<svg preserveAspectRatio="xMinYMin meet" viewBox="0 0 408 100" fill="none" xmlns="http://www.w3.org/2000/svg">
<path d="M37.3865 23.6467V37.8917H0V23.6467H37.3865ZM7.24086 10.5413H27.6335V60.755C27.6335 61.5147 27.7689 62.1439 28.0398 62.6424C28.3108 63.1648 28.7294 63.5446 29.2959 63.7821C29.8624 64.0432 30.5889 64.1738 31.4756 64.1738C32.0913 64.1738 32.8178 64.1026 33.6552 63.9601C34.468 63.8177 35.0714 63.699 35.4654 63.604L38.4209 77.4217C37.5096 77.6828 36.2166 78.0033 34.5418 78.3832C32.8425 78.7631 30.8352 79.0123 28.5201 79.1311C23.8406 79.3685 19.9124 78.8936 16.7352 77.7066C13.5581 76.5432 11.1691 74.6914 9.56827 72.151C7.9674 69.6106 7.1916 66.4292 7.24086 62.6068V10.5413ZM67.2365 47.5783V78.3476H46.8439V5.4131H66.4977V34.0456H67.0887C68.3694 30.5555 70.4998 27.8253 73.4799 25.8547C76.46 23.9079 80.0435 22.9345 84.2304 22.9345C88.2448 22.9345 91.7421 23.8129 94.7222 25.5698C97.6777 27.3267 99.9805 29.7483 101.631 32.8348C103.256 35.9212 104.057 39.4587 104.032 43.4473V78.3476H83.6393V47.5783C83.6639 44.8718 82.9743 42.7469 81.5704 41.2037C80.142 39.6605 78.1224 38.8889 75.5118 38.8889C73.8616 38.8889 72.4209 39.2331 71.1894 39.9216C69.9334 40.6339 68.9728 41.6311 68.3079 42.9131C67.6183 44.2189 67.2611 45.774 67.2365 47.5783ZM114.08 78.3476V23.6467H133.882V34.0456H134.473C135.507 30.1994 137.158 27.386 139.423 25.6054C141.665 23.8248 144.3 22.9345 147.329 22.9345C148.216 22.9345 149.103 22.9938 149.989 23.1125C150.851 23.255 151.689 23.4449 152.501 23.6823V40.4558C151.491 40.1235 150.248 39.8742 148.77 39.708C147.292 39.5418 146.024 39.4587 144.965 39.4587C142.97 39.4587 141.184 39.886 139.608 40.7407C138.007 41.6192 136.751 42.83 135.84 44.3732C134.929 45.9402 134.473 47.7683 134.473 49.8575V78.3476H114.08ZM159.151 78.3476V23.6467H179.544V78.3476H159.151ZM169.384 17.9487C166.601 17.9487 164.225 17.0703 162.254 15.3134C160.284 13.5565 159.299 11.4435 159.299 8.97435C159.299 6.50521 160.284 4.3922 162.254 2.63531C164.225 0.87843 166.589 0 169.347 0C172.13 0 174.507 0.87843 176.477 2.63531C178.423 4.3922 179.396 6.50521 179.396 8.97435C179.396 11.4435 178.423 13.5565 176.477 15.3134C174.507 17.0703 172.143 17.9487 169.384 17.9487ZM247.076 23.6467L228.013 78.3476H204.369L185.307 23.6467H206.734L215.896 59.8291H216.487L225.649 23.6467H247.076ZM252.839 78.3476V23.6467H273.231V78.3476H252.839ZM263.072 17.9487C260.289 17.9487 257.912 17.0703 255.942 15.3134C253.972 13.5565 252.987 11.4435 252.987 8.97435C252.987 6.50521 253.972 4.3922 255.942 2.63531C257.912 0.87843 260.277 0 263.035 0C265.818 0 268.195 0.87843 270.165 2.63531C272.111 4.3922 273.084 6.50521 273.084 8.97435C273.084 11.4435 272.111 13.5565 270.165 15.3134C268.195 17.0703 265.831 17.9487 263.072 17.9487ZM303.968 47.5783V78.3476H283.576V23.6467H302.934V34.0456H303.525C304.756 30.5793 306.936 27.8609 310.064 25.8903C313.167 23.9198 316.8 22.9345 320.962 22.9345C324.976 22.9345 328.474 23.8129 331.454 25.5698C334.409 27.3504 336.712 29.7839 338.362 32.8704C339.988 35.9568 340.788 39.4824 340.764 43.4473V78.3476H320.371V47.5783C320.396 44.8718 319.694 42.7469 318.265 41.2037C316.812 39.6605 314.805 38.8889 312.243 38.8889C310.569 38.8889 309.116 39.2331 307.884 39.9216C306.628 40.6339 305.668 41.6311 305.003 42.9131C304.338 44.2189 303.993 45.774 303.968 47.5783ZM378.15 100C372.461 100 367.597 99.2165 363.557 97.6496C359.494 96.1064 356.354 93.9696 354.137 91.2393C351.896 88.5328 350.64 85.4226 350.369 81.9088H370.022C370.22 83.0722 370.712 84.01 371.5 84.7222C372.288 85.4345 373.31 85.9449 374.566 86.2536C375.798 86.5859 377.189 86.7521 378.741 86.7521C381.376 86.7521 383.568 86.1349 385.317 84.9003C387.041 83.6657 387.903 81.434 387.903 78.2051V68.9459H387.312C386.573 70.7977 385.44 72.3647 383.913 73.6467C382.386 74.9525 380.551 75.9378 378.409 76.6026C376.266 77.2911 373.914 77.6353 371.352 77.6353C367.313 77.6353 363.607 76.7331 360.233 74.9288C356.834 73.1244 354.125 70.2635 352.105 66.3461C350.061 62.4288 349.039 57.3124 349.039 50.9971C349.039 44.397 350.11 39.0313 352.253 34.9003C354.371 30.7692 357.129 27.7422 360.528 25.8191C363.902 23.896 367.461 22.9345 371.205 22.9345C374.012 22.9345 376.475 23.3974 378.593 24.3234C380.711 25.273 382.485 26.5195 383.913 28.0627C385.342 29.6296 386.425 31.339 387.164 33.1909H387.607V23.6467H408V78.2051C408 82.8348 406.769 86.764 404.306 89.9929C401.818 93.2455 398.333 95.7265 393.851 97.4359C389.368 99.1453 384.135 100 378.15 100ZM378.889 63.6752C380.761 63.6752 382.374 63.1648 383.728 62.1439C385.058 61.1467 386.093 59.6985 386.832 57.7991C387.546 55.9235 387.903 53.6562 387.903 50.9971C387.903 48.2906 387.546 45.9639 386.832 44.0171C386.093 42.094 385.058 40.6102 383.728 39.5655C382.374 38.5446 380.761 38.0342 378.889 38.0342C377.017 38.0342 375.428 38.5446 374.123 39.5655C372.793 40.6102 371.783 42.094 371.094 44.0171C370.38 45.9639 370.022 48.2906 370.022 50.9971C370.022 53.7037 370.38 55.9948 371.094 57.8704C371.783 59.7697 372.793 61.2061 374.123 62.1795C375.428 63.1766 377.017 63.6752 378.889 63.6752Z" fill="url(#paint0_linear_187_19)"/>
<path d="M37.3865 23.6467V37.8917H0V23.6467H37.3865ZM7.24086 10.5413H27.6335V60.755C27.6335 61.5147 27.7689 62.1439 28.0398 62.6424C28.3108 63.1648 28.7294 63.5446 29.2959 63.7821C29.8624 64.0432 30.5889 64.1738 31.4756 64.1738C32.0913 64.1738 32.8178 64.1026 33.6552 63.9601C34.468 63.8177 35.0714 63.699 35.4654 63.604L38.4209 77.4217C37.5096 77.6828 36.2166 78.0033 34.5418 78.3832C32.8425 78.7631 30.8352 79.0123 28.5201 79.1311C23.8406 79.3685 19.9124 78.8936 16.7352 77.7066C13.5581 76.5432 11.1691 74.6914 9.56827 72.151C7.9674 69.6106 7.1916 66.4292 7.24086 62.6068V10.5413ZM67.2365 47.5783V78.3476H46.8439V5.4131H66.4977V34.0456H67.0887C68.3694 30.5555 70.4998 27.8253 73.4799 25.8547C76.46 23.9079 80.0435 22.9345 84.2304 22.9345C88.2448 22.9345 91.7421 23.8129 94.7222 25.5698C97.6777 27.3267 99.9805 29.7483 101.631 32.8348C103.256 35.9212 104.057 39.4587 104.032 43.4473V78.3476H83.6393V47.5783C83.6639 44.8718 82.9743 42.7469 81.5704 41.2037C80.142 39.6605 78.1224 38.8889 75.5118 38.8889C73.8616 38.8889 72.4209 39.2331 71.1894 39.9216C69.9334 40.6339 68.9728 41.6311 68.3079 42.9131C67.6183 44.2189 67.2611 45.774 67.2365 47.5783ZM114.08 78.3476V23.6467H133.882V34.0456H134.473C135.507 30.1994 137.158 27.386 139.423 25.6054C141.665 23.8248 144.3 22.9345 147.329 22.9345C148.216 22.9345 149.103 22.9938 149.989 23.1125C150.851 23.255 151.689 23.4449 152.501 23.6823V40.4558C151.491 40.1235 150.248 39.8742 148.77 39.708C147.292 39.5418 146.024 39.4587 144.965 39.4587C142.97 39.4587 141.184 39.886 139.608 40.7407C138.007 41.6192 136.751 42.83 135.84 44.3732C134.929 45.9402 134.473 47.7683 134.473 49.8575V78.3476H114.08ZM159.151 78.3476V23.6467H179.544V78.3476H159.151ZM169.384 17.9487C166.601 17.9487 164.225 17.0703 162.254 15.3134C160.284 13.5565 159.299 11.4435 159.299 8.97435C159.299 6.50521 160.284 4.3922 162.254 2.63531C164.225 0.87843 166.589 0 169.347 0C172.13 0 174.507 0.87843 176.477 2.63531C178.423 4.3922 179.396 6.50521 179.396 8.97435C179.396 11.4435 178.423 13.5565 176.477 15.3134C174.507 17.0703 172.143 17.9487 169.384 17.9487ZM247.076 23.6467L228.013 78.3476H204.369L185.307 23.6467H206.734L215.896 59.8291H216.487L225.649 23.6467H247.076ZM252.839 78.3476V23.6467H273.231V78.3476H252.839ZM263.072 17.9487C260.289 17.9487 257.912 17.0703 255.942 15.3134C253.972 13.5565 252.987 11.4435 252.987 8.97435C252.987 6.50521 253.972 4.3922 255.942 2.63531C257.912 0.87843 260.277 0 263.035 0C265.818 0 268.195 0.87843 270.165 2.63531C272.111 4.3922 273.084 6.50521 273.084 8.97435C273.084 11.4435 272.111 13.5565 270.165 15.3134C268.195 17.0703 265.831 17.9487 263.072 17.9487ZM303.968 47.5783V78.3476H283.576V23.6467H302.934V34.0456H303.525C304.756 30.5793 306.936 27.8609 310.064 25.8903C313.167 23.9198 316.8 22.9345 320.962 22.9345C324.976 22.9345 328.474 23.8129 331.454 25.5698C334.409 27.3504 336.712 29.7839 338.362 32.8704C339.988 35.9568 340.788 39.4824 340.764 43.4473V78.3476H320.371V47.5783C320.396 44.8718 319.694 42.7469 318.265 41.2037C316.812 39.6605 314.805 38.8889 312.243 38.8889C310.569 38.8889 309.116 39.2331 307.884 39.9216C306.628 40.6339 305.668 41.6311 305.003 42.9131C304.338 44.2189 303.993 45.774 303.968 47.5783ZM378.15 100C372.461 100 367.597 99.2165 363.557 97.6496C359.494 96.1064 356.354 93.9696 354.137 91.2393C351.896 88.5328 350.64 85.4226 350.369 81.9088H370.022C370.22 83.0722 370.712 84.01 371.5 84.7222C372.288 85.4345 373.31 85.9449 374.566 86.2536C375.798 86.5859 377.189 86.7521 378.741 86.7521C381.376 86.7521 383.568 86.1349 385.317 84.9003C387.041 83.6657 387.903 81.434 387.903 78.2051V68.9459H387.312C386.573 70.7977 385.44 72.3647 383.913 73.6467C382.386 74.9525 380.551 75.9378 378.409 76.6026C376.266 77.2911 373.914 77.6353 371.352 77.6353C367.313 77.6353 363.607 76.7331 360.233 74.9288C356.834 73.1244 354.125 70.2635 352.105 66.3461C350.061 62.4288 349.039 57.3124 349.039 50.9971C349.039 44.397 350.11 39.0313 352.253 34.9003C354.371 30.7692 357.129 27.7422 360.528 25.8191C363.902 23.896 367.461 22.9345 371.205 22.9345C374.012 22.9345 376.475 23.3974 378.593 24.3234C380.711 25.273 382.485 26.5195 383.913 28.0627C385.342 29.6296 386.425 31.339 387.164 33.1909H387.607V23.6467H408V78.2051C408 82.8348 406.769 86.764 404.306 89.9929C401.818 93.2455 398.333 95.7265 393.851 97.4359C389.368 99.1453 384.135 100 378.15 100ZM378.889 63.6752C380.761 63.6752 382.374 63.1648 383.728 62.1439C385.058 61.1467 386.093 59.6985 386.832 57.7991C387.546 55.9235 387.903 53.6562 387.903 50.9971C387.903 48.2906 387.546 45.9639 386.832 44.0171C386.093 42.094 385.058 40.6102 383.728 39.5655C382.374 38.5446 380.761 38.0342 378.889 38.0342C377.017 38.0342 375.428 38.5446 374.123 39.5655C372.793 40.6102 371.783 42.094 371.094 44.0171C370.38 45.9639 370.022 48.2906 370.022 50.9971C370.022 53.7037 370.38 55.9948 371.094 57.8704C371.783 59.7697 372.793 61.2061 374.123 62.1795C375.428 63.1766 377.017 63.6752 378.889 63.6752Z" fill="url(#paint1_linear_187_19)"/>
<path d="M37.3865 23.6467V37.8917H0V23.6467H37.3865ZM7.24086 10.5413H27.6335V60.755C27.6335 61.5147 27.7689 62.1439 28.0398 62.6424C28.3108 63.1648 28.7294 63.5446 29.2959 63.7821C29.8624 64.0432 30.5889 64.1738 31.4756 64.1738C32.0913 64.1738 32.8178 64.1026 33.6552 63.9601C34.468 63.8177 35.0714 63.699 35.4654 63.604L38.4209 77.4217C37.5096 77.6828 36.2166 78.0033 34.5418 78.3832C32.8425 78.7631 30.8352 79.0123 28.5201 79.1311C23.8406 79.3685 19.9124 78.8936 16.7352 77.7066C13.5581 76.5432 11.1691 74.6914 9.56827 72.151C7.9674 69.6106 7.1916 66.4292 7.24086 62.6068V10.5413ZM67.2365 47.5783V78.3476H46.8439V5.4131H66.4977V34.0456H67.0887C68.3694 30.5555 70.4998 27.8253 73.4799 25.8547C76.46 23.9079 80.0435 22.9345 84.2304 22.9345C88.2448 22.9345 91.7421 23.8129 94.7222 25.5698C97.6777 27.3267 99.9805 29.7483 101.631 32.8348C103.256 35.9212 104.057 39.4587 104.032 43.4473V78.3476H83.6393V47.5783C83.6639 44.8718 82.9743 42.7469 81.5704 41.2037C80.142 39.6605 78.1224 38.8889 75.5118 38.8889C73.8616 38.8889 72.4209 39.2331 71.1894 39.9216C69.9334 40.6339 68.9728 41.6311 68.3079 42.9131C67.6183 44.2189 67.2611 45.774 67.2365 47.5783ZM114.08 78.3476V23.6467H133.882V34.0456H134.473C135.507 30.1994 137.158 27.386 139.423 25.6054C141.665 23.8248 144.3 22.9345 147.329 22.9345C148.216 22.9345 149.103 22.9938 149.989 23.1125C150.851 23.255 151.689 23.4449 152.501 23.6823V40.4558C151.491 40.1235 150.248 39.8742 148.77 39.708C147.292 39.5418 146.024 39.4587 144.965 39.4587C142.97 39.4587 141.184 39.886 139.608 40.7407C138.007 41.6192 136.751 42.83 135.84 44.3732C134.929 45.9402 134.473 47.7683 134.473 49.8575V78.3476H114.08ZM159.151 78.3476V23.6467H179.544V78.3476H159.151ZM169.384 17.9487C166.601 17.9487 164.225 17.0703 162.254 15.3134C160.284 13.5565 159.299 11.4435 159.299 8.97435C159.299 6.50521 160.284 4.3922 162.254 2.63531C164.225 0.87843 166.589 0 169.347 0C172.13 0 174.507 0.87843 176.477 2.63531C178.423 4.3922 179.396 6.50521 179.396 8.97435C179.396 11.4435 178.423 13.5565 176.477 15.3134C174.507 17.0703 172.143 17.9487 169.384 17.9487ZM247.076 23.6467L228.013 78.3476H204.369L185.307 23.6467H206.734L215.896 59.8291H216.487L225.649 23.6467H247.076ZM252.839 78.3476V23.6467H273.231V78.3476H252.839ZM263.072 17.9487C260.289 17.9487 257.912 17.0703 255.942 15.3134C253.972 13.5565 252.987 11.4435 252.987 8.97435C252.987 6.50521 253.972 4.3922 255.942 2.63531C257.912 0.87843 260.277 0 263.035 0C265.818 0 268.195 0.87843 270.165 2.63531C272.111 4.3922 273.084 6.50521 273.084 8.97435C273.084 11.4435 272.111 13.5565 270.165 15.3134C268.195 17.0703 265.831 17.9487 263.072 17.9487ZM303.968 47.5783V78.3476H283.576V23.6467H302.934V34.0456H303.525C304.756 30.5793 306.936 27.8609 310.064 25.8903C313.167 23.9198 316.8 22.9345 320.962 22.9345C324.976 22.9345 328.474 23.8129 331.454 25.5698C334.409 27.3504 336.712 29.7839 338.362 32.8704C339.988 35.9568 340.788 39.4824 340.764 43.4473V78.3476H320.371V47.5783C320.396 44.8718 319.694 42.7469 318.265 41.2037C316.812 39.6605 314.805 38.8889 312.243 38.8889C310.569 38.8889 309.116 39.2331 307.884 39.9216C306.628 40.6339 305.668 41.6311 305.003 42.9131C304.338 44.2189 303.993 45.774 303.968 47.5783ZM378.15 100C372.461 100 367.597 99.2165 363.557 97.6496C359.494 96.1064 356.354 93.9696 354.137 91.2393C351.896 88.5328 350.64 85.4226 350.369 81.9088H370.022C370.22 83.0722 370.712 84.01 371.5 84.7222C372.288 85.4345 373.31 85.9449 374.566 86.2536C375.798 86.5859 377.189 86.7521 378.741 86.7521C381.376 86.7521 383.568 86.1349 385.317 84.9003C387.041 83.6657 387.903 81.434 387.903 78.2051V68.9459H387.312C386.573 70.7977 385.44 72.3647 383.913 73.6467C382.386 74.9525 380.551 75.9378 378.409 76.6026C376.266 77.2911 373.914 77.6353 371.352 77.6353C367.313 77.6353 363.607 76.7331 360.233 74.9288C356.834 73.1244 354.125 70.2635 352.105 66.3461C350.061 62.4288 349.039 57.3124 349.039 50.9971C349.039 44.397 350.11 39.0313 352.253 34.9003C354.371 30.7692 357.129 27.7422 360.528 25.8191C363.902 23.896 367.461 22.9345 371.205 22.9345C374.012 22.9345 376.475 23.3974 378.593 24.3234C380.711 25.273 382.485 26.5195 383.913 28.0627C385.342 29.6296 386.425 31.339 387.164 33.1909H387.607V23.6467H408V78.2051C408 82.8348 406.769 86.764 404.306 89.9929C401.818 93.2455 398.333 95.7265 393.851 97.4359C389.368 99.1453 384.135 100 378.15 100ZM378.889 63.6752C380.761 63.6752 382.374 63.1648 383.728 62.1439C385.058 61.1467 386.093 59.6985 386.832 57.7991C387.546 55.9235 387.903 53.6562 387.903 50.9971C387.903 48.2906 387.546 45.9639 386.832 44.0171C386.093 42.094 385.058 40.6102 383.728 39.5655C382.374 38.5446 380.761 38.0342 378.889 38.0342C377.017 38.0342 375.428 38.5446 374.123 39.5655C372.793 40.6102 371.783 42.094 371.094 44.0171C370.38 45.9639 370.022 48.2906 370.022 50.9971C370.022 53.7037 370.38 55.9948 371.094 57.8704C371.783 59.7697 372.793 61.2061 374.123 62.1795C375.428 63.1766 377.017 63.6752 378.889 63.6752Z" fill="url(#paint2_linear_187_19)"/>
<path d="M37.3865 23.6467V37.8917H0V23.6467H37.3865ZM7.24086 10.5413H27.6335V60.755C27.6335 61.5147 27.7689 62.1439 28.0398 62.6424C28.3108 63.1648 28.7294 63.5446 29.2959 63.7821C29.8624 64.0432 30.5889 64.1738 31.4756 64.1738C32.0913 64.1738 32.8178 64.1026 33.6552 63.9601C34.468 63.8177 35.0714 63.699 35.4654 63.604L38.4209 77.4217C37.5096 77.6828 36.2166 78.0033 34.5418 78.3832C32.8425 78.7631 30.8352 79.0123 28.5201 79.1311C23.8406 79.3685 19.9124 78.8936 16.7352 77.7066C13.5581 76.5432 11.1691 74.6914 9.56827 72.151C7.9674 69.6106 7.1916 66.4292 7.24086 62.6068V10.5413ZM67.2365 47.5783V78.3476H46.8439V5.4131H66.4977V34.0456H67.0887C68.3694 30.5555 70.4998 27.8253 73.4799 25.8547C76.46 23.9079 80.0435 22.9345 84.2304 22.9345C88.2448 22.9345 91.7421 23.8129 94.7222 25.5698C97.6777 27.3267 99.9805 29.7483 101.631 32.8348C103.256 35.9212 104.057 39.4587 104.032 43.4473V78.3476H83.6393V47.5783C83.6639 44.8718 82.9743 42.7469 81.5704 41.2037C80.142 39.6605 78.1224 38.8889 75.5118 38.8889C73.8616 38.8889 72.4209 39.2331 71.1894 39.9216C69.9334 40.6339 68.9728 41.6311 68.3079 42.9131C67.6183 44.2189 67.2611 45.774 67.2365 47.5783ZM114.08 78.3476V23.6467H133.882V34.0456H134.473C135.507 30.1994 137.158 27.386 139.423 25.6054C141.665 23.8248 144.3 22.9345 147.329 22.9345C148.216 22.9345 149.103 22.9938 149.989 23.1125C150.851 23.255 151.689 23.4449 152.501 23.6823V40.4558C151.491 40.1235 150.248 39.8742 148.77 39.708C147.292 39.5418 146.024 39.4587 144.965 39.4587C142.97 39.4587 141.184 39.886 139.608 40.7407C138.007 41.6192 136.751 42.83 135.84 44.3732C134.929 45.9402 134.473 47.7683 134.473 49.8575V78.3476H114.08ZM159.151 78.3476V23.6467H179.544V78.3476H159.151ZM169.384 17.9487C166.601 17.9487 164.225 17.0703 162.254 15.3134C160.284 13.5565 159.299 11.4435 159.299 8.97435C159.299 6.50521 160.284 4.3922 162.254 2.63531C164.225 0.87843 166.589 0 169.347 0C172.13 0 174.507 0.87843 176.477 2.63531C178.423 4.3922 179.396 6.50521 179.396 8.97435C179.396 11.4435 178.423 13.5565 176.477 15.3134C174.507 17.0703 172.143 17.9487 169.384 17.9487ZM247.076 23.6467L228.013 78.3476H204.369L185.307 23.6467H206.734L215.896 59.8291H216.487L225.649 23.6467H247.076ZM252.839 78.3476V23.6467H273.231V78.3476H252.839ZM263.072 17.9487C260.289 17.9487 257.912 17.0703 255.942 15.3134C253.972 13.5565 252.987 11.4435 252.987 8.97435C252.987 6.50521 253.972 4.3922 255.942 2.63531C257.912 0.87843 260.277 0 263.035 0C265.818 0 268.195 0.87843 270.165 2.63531C272.111 4.3922 273.084 6.50521 273.084 8.97435C273.084 11.4435 272.111 13.5565 270.165 15.3134C268.195 17.0703 265.831 17.9487 263.072 17.9487ZM303.968 47.5783V78.3476H283.576V23.6467H302.934V34.0456H303.525C304.756 30.5793 306.936 27.8609 310.064 25.8903C313.167 23.9198 316.8 22.9345 320.962 22.9345C324.976 22.9345 328.474 23.8129 331.454 25.5698C334.409 27.3504 336.712 29.7839 338.362 32.8704C339.988 35.9568 340.788 39.4824 340.764 43.4473V78.3476H320.371V47.5783C320.396 44.8718 319.694 42.7469 318.265 41.2037C316.812 39.6605 314.805 38.8889 312.243 38.8889C310.569 38.8889 309.116 39.2331 307.884 39.9216C306.628 40.6339 305.668 41.6311 305.003 42.9131C304.338 44.2189 303.993 45.774 303.968 47.5783ZM378.15 100C372.461 100 367.597 99.2165 363.557 97.6496C359.494 96.1064 356.354 93.9696 354.137 91.2393C351.896 88.5328 350.64 85.4226 350.369 81.9088H370.022C370.22 83.0722 370.712 84.01 371.5 84.7222C372.288 85.4345 373.31 85.9449 374.566 86.2536C375.798 86.5859 377.189 86.7521 378.741 86.7521C381.376 86.7521 383.568 86.1349 385.317 84.9003C387.041 83.6657 387.903 81.434 387.903 78.2051V68.9459H387.312C386.573 70.7977 385.44 72.3647 383.913 73.6467C382.386 74.9525 380.551 75.9378 378.409 76.6026C376.266 77.2911 373.914 77.6353 371.352 77.6353C367.313 77.6353 363.607 76.7331 360.233 74.9288C356.834 73.1244 354.125 70.2635 352.105 66.3461C350.061 62.4288 349.039 57.3124 349.039 50.9971C349.039 44.397 350.11 39.0313 352.253 34.9003C354.371 30.7692 357.129 27.7422 360.528 25.8191C363.902 23.896 367.461 22.9345 371.205 22.9345C374.012 22.9345 376.475 23.3974 378.593 24.3234C380.711 25.273 382.485 26.5195 383.913 28.0627C385.342 29.6296 386.425 31.339 387.164 33.1909H387.607V23.6467H408V78.2051C408 82.8348 406.769 86.764 404.306 89.9929C401.818 93.2455 398.333 95.7265 393.851 97.4359C389.368 99.1453 384.135 100 378.15 100ZM378.889 63.6752C380.761 63.6752 382.374 63.1648 383.728 62.1439C385.058 61.1467 386.093 59.6985 386.832 57.7991C387.546 55.9235 387.903 53.6562 387.903 50.9971C387.903 48.2906 387.546 45.9639 386.832 44.0171C386.093 42.094 385.058 40.6102 383.728 39.5655C382.374 38.5446 380.761 38.0342 378.889 38.0342C377.017 38.0342 375.428 38.5446 374.123 39.5655C372.793 40.6102 371.783 42.094 371.094 44.0171C370.38 45.9639 370.022 48.2906 370.022 50.9971C370.022 53.7037 370.38 55.9948 371.094 57.8704C371.783 59.7697 372.793 61.2061 374.123 62.1795C375.428 63.1766 377.017 63.6752 378.889 63.6752Z" fill="url(#paint3_linear_187_19)"/>
<path d="M37.3865 23.6467V37.8917H0V23.6467H37.3865ZM7.24086 10.5413H27.6335V60.755C27.6335 61.5147 27.7689 62.1439 28.0398 62.6424C28.3108 63.1648 28.7294 63.5446 29.2959 63.7821C29.8624 64.0432 30.5889 64.1738 31.4756 64.1738C32.0913 64.1738 32.8178 64.1026 33.6552 63.9601C34.468 63.8177 35.0714 63.699 35.4654 63.604L38.4209 77.4217C37.5096 77.6828 36.2166 78.0033 34.5418 78.3832C32.8425 78.7631 30.8352 79.0123 28.5201 79.1311C23.8406 79.3685 19.9124 78.8936 16.7352 77.7066C13.5581 76.5432 11.1691 74.6914 9.56827 72.151C7.9674 69.6106 7.1916 66.4292 7.24086 62.6068V10.5413ZM67.2365 47.5783V78.3476H46.8439V5.4131H66.4977V34.0456H67.0887C68.3694 30.5555 70.4998 27.8253 73.4799 25.8547C76.46 23.9079 80.0435 22.9345 84.2304 22.9345C88.2448 22.9345 91.7421 23.8129 94.7222 25.5698C97.6777 27.3267 99.9805 29.7483 101.631 32.8348C103.256 35.9212 104.057 39.4587 104.032 43.4473V78.3476H83.6393V47.5783C83.6639 44.8718 82.9743 42.7469 81.5704 41.2037C80.142 39.6605 78.1224 38.8889 75.5118 38.8889C73.8616 38.8889 72.4209 39.2331 71.1894 39.9216C69.9334 40.6339 68.9728 41.6311 68.3079 42.9131C67.6183 44.2189 67.2611 45.774 67.2365 47.5783ZM114.08 78.3476V23.6467H133.882V34.0456H134.473C135.507 30.1994 137.158 27.386 139.423 25.6054C141.665 23.8248 144.3 22.9345 147.329 22.9345C148.216 22.9345 149.103 22.9938 149.989 23.1125C150.851 23.255 151.689 23.4449 152.501 23.6823V40.4558C151.491 40.1235 150.248 39.8742 148.77 39.708C147.292 39.5418 146.024 39.4587 144.965 39.4587C142.97 39.4587 141.184 39.886 139.608 40.7407C138.007 41.6192 136.751 42.83 135.84 44.3732C134.929 45.9402 134.473 47.7683 134.473 49.8575V78.3476H114.08ZM159.151 78.3476V23.6467H179.544V78.3476H159.151ZM169.384 17.9487C166.601 17.9487 164.225 17.0703 162.254 15.3134C160.284 13.5565 159.299 11.4435 159.299 8.97435C159.299 6.50521 160.284 4.3922 162.254 2.63531C164.225 0.87843 166.589 0 169.347 0C172.13 0 174.507 0.87843 176.477 2.63531C178.423 4.3922 179.396 6.50521 179.396 8.97435C179.396 11.4435 178.423 13.5565 176.477 15.3134C174.507 17.0703 172.143 17.9487 169.384 17.9487ZM247.076 23.6467L228.013 78.3476H204.369L185.307 23.6467H206.734L215.896 59.8291H216.487L225.649 23.6467H247.076ZM252.839 78.3476V23.6467H273.231V78.3476H252.839ZM263.072 17.9487C260.289 17.9487 257.912 17.0703 255.942 15.3134C253.972 13.5565 252.987 11.4435 252.987 8.97435C252.987 6.50521 253.972 4.3922 255.942 2.63531C257.912 0.87843 260.277 0 263.035 0C265.818 0 268.195 0.87843 270.165 2.63531C272.111 4.3922 273.084 6.50521 273.084 8.97435C273.084 11.4435 272.111 13.5565 270.165 15.3134C268.195 17.0703 265.831 17.9487 263.072 17.9487ZM303.968 47.5783V78.3476H283.576V23.6467H302.934V34.0456H303.525C304.756 30.5793 306.936 27.8609 310.064 25.8903C313.167 23.9198 316.8 22.9345 320.962 22.9345C324.976 22.9345 328.474 23.8129 331.454 25.5698C334.409 27.3504 336.712 29.7839 338.362 32.8704C339.988 35.9568 340.788 39.4824 340.764 43.4473V78.3476H320.371V47.5783C320.396 44.8718 319.694 42.7469 318.265 41.2037C316.812 39.6605 314.805 38.8889 312.243 38.8889C310.569 38.8889 309.116 39.2331 307.884 39.9216C306.628 40.6339 305.668 41.6311 305.003 42.9131C304.338 44.2189 303.993 45.774 303.968 47.5783ZM378.15 100C372.461 100 367.597 99.2165 363.557 97.6496C359.494 96.1064 356.354 93.9696 354.137 91.2393C351.896 88.5328 350.64 85.4226 350.369 81.9088H370.022C370.22 83.0722 370.712 84.01 371.5 84.7222C372.288 85.4345 373.31 85.9449 374.566 86.2536C375.798 86.5859 377.189 86.7521 378.741 86.7521C381.376 86.7521 383.568 86.1349 385.317 84.9003C387.041 83.6657 387.903 81.434 387.903 78.2051V68.9459H387.312C386.573 70.7977 385.44 72.3647 383.913 73.6467C382.386 74.9525 380.551 75.9378 378.409 76.6026C376.266 77.2911 373.914 77.6353 371.352 77.6353C367.313 77.6353 363.607 76.7331 360.233 74.9288C356.834 73.1244 354.125 70.2635 352.105 66.3461C350.061 62.4288 349.039 57.3124 349.039 50.9971C349.039 44.397 350.11 39.0313 352.253 34.9003C354.371 30.7692 357.129 27.7422 360.528 25.8191C363.902 23.896 367.461 22.9345 371.205 22.9345C374.012 22.9345 376.475 23.3974 378.593 24.3234C380.711 25.273 382.485 26.5195 383.913 28.0627C385.342 29.6296 386.425 31.339 387.164 33.1909H387.607V23.6467H408V78.2051C408 82.8348 406.769 86.764 404.306 89.9929C401.818 93.2455 398.333 95.7265 393.851 97.4359C389.368 99.1453 384.135 100 378.15 100ZM378.889 63.6752C380.761 63.6752 382.374 63.1648 383.728 62.1439C385.058 61.1467 386.093 59.6985 386.832 57.7991C387.546 55.9235 387.903 53.6562 387.903 50.9971C387.903 48.2906 387.546 45.9639 386.832 44.0171C386.093 42.094 385.058 40.6102 383.728 39.5655C382.374 38.5446 380.761 38.0342 378.889 38.0342C377.017 38.0342 375.428 38.5446 374.123 39.5655C372.793 40.6102 371.783 42.094 371.094 44.0171C370.38 45.9639 370.022 48.2906 370.022 50.9971C370.022 53.7037 370.38 55.9948 371.094 57.8704C371.783 59.7697 372.793 61.2061 374.123 62.1795C375.428 63.1766 377.017 63.6752 378.889 63.6752Z" fill="url(#paint4_linear_187_19)"/>
<path d="M37.3865 23.6467V37.8917H0V23.6467H37.3865ZM7.24086 10.5413H27.6335V60.755C27.6335 61.5147 27.7689 62.1439 28.0398 62.6424C28.3108 63.1648 28.7294 63.5446 29.2959 63.7821C29.8624 64.0432 30.5889 64.1738 31.4756 64.1738C32.0913 64.1738 32.8178 64.1026 33.6552 63.9601C34.468 63.8177 35.0714 63.699 35.4654 63.604L38.4209 77.4217C37.5096 77.6828 36.2166 78.0033 34.5418 78.3832C32.8425 78.7631 30.8352 79.0123 28.5201 79.1311C23.8406 79.3685 19.9124 78.8936 16.7352 77.7066C13.5581 76.5432 11.1691 74.6914 9.56827 72.151C7.9674 69.6106 7.1916 66.4292 7.24086 62.6068V10.5413ZM67.2365 47.5783V78.3476H46.8439V5.4131H66.4977V34.0456H67.0887C68.3694 30.5555 70.4998 27.8253 73.4799 25.8547C76.46 23.9079 80.0435 22.9345 84.2304 22.9345C88.2448 22.9345 91.7421 23.8129 94.7222 25.5698C97.6777 27.3267 99.9805 29.7483 101.631 32.8348C103.256 35.9212 104.057 39.4587 104.032 43.4473V78.3476H83.6393V47.5783C83.6639 44.8718 82.9743 42.7469 81.5704 41.2037C80.142 39.6605 78.1224 38.8889 75.5118 38.8889C73.8616 38.8889 72.4209 39.2331 71.1894 39.9216C69.9334 40.6339 68.9728 41.6311 68.3079 42.9131C67.6183 44.2189 67.2611 45.774 67.2365 47.5783ZM114.08 78.3476V23.6467H133.882V34.0456H134.473C135.507 30.1994 137.158 27.386 139.423 25.6054C141.665 23.8248 144.3 22.9345 147.329 22.9345C148.216 22.9345 149.103 22.9938 149.989 23.1125C150.851 23.255 151.689 23.4449 152.501 23.6823V40.4558C151.491 40.1235 150.248 39.8742 148.77 39.708C147.292 39.5418 146.024 39.4587 144.965 39.4587C142.97 39.4587 141.184 39.886 139.608 40.7407C138.007 41.6192 136.751 42.83 135.84 44.3732C134.929 45.9402 134.473 47.7683 134.473 49.8575V78.3476H114.08ZM159.151 78.3476V23.6467H179.544V78.3476H159.151ZM169.384 17.9487C166.601 17.9487 164.225 17.0703 162.254 15.3134C160.284 13.5565 159.299 11.4435 159.299 8.97435C159.299 6.50521 160.284 4.3922 162.254 2.63531C164.225 0.87843 166.589 0 169.347 0C172.13 0 174.507 0.87843 176.477 2.63531C178.423 4.3922 179.396 6.50521 179.396 8.97435C179.396 11.4435 178.423 13.5565 176.477 15.3134C174.507 17.0703 172.143 17.9487 169.384 17.9487ZM247.076 23.6467L228.013 78.3476H204.369L185.307 23.6467H206.734L215.896 59.8291H216.487L225.649 23.6467H247.076ZM252.839 78.3476V23.6467H273.231V78.3476H252.839ZM263.072 17.9487C260.289 17.9487 257.912 17.0703 255.942 15.3134C253.972 13.5565 252.987 11.4435 252.987 8.97435C252.987 6.50521 253.972 4.3922 255.942 2.63531C257.912 0.87843 260.277 0 263.035 0C265.818 0 268.195 0.87843 270.165 2.63531C272.111 4.3922 273.084 6.50521 273.084 8.97435C273.084 11.4435 272.111 13.5565 270.165 15.3134C268.195 17.0703 265.831 17.9487 263.072 17.9487ZM303.968 47.5783V78.3476H283.576V23.6467H302.934V34.0456H303.525C304.756 30.5793 306.936 27.8609 310.064 25.8903C313.167 23.9198 316.8 22.9345 320.962 22.9345C324.976 22.9345 328.474 23.8129 331.454 25.5698C334.409 27.3504 336.712 29.7839 338.362 32.8704C339.988 35.9568 340.788 39.4824 340.764 43.4473V78.3476H320.371V47.5783C320.396 44.8718 319.694 42.7469 318.265 41.2037C316.812 39.6605 314.805 38.8889 312.243 38.8889C310.569 38.8889 309.116 39.2331 307.884 39.9216C306.628 40.6339 305.668 41.6311 305.003 42.9131C304.338 44.2189 303.993 45.774 303.968 47.5783ZM378.15 100C372.461 100 367.597 99.2165 363.557 97.6496C359.494 96.1064 356.354 93.9696 354.137 91.2393C351.896 88.5328 350.64 85.4226 350.369 81.9088H370.022C370.22 83.0722 370.712 84.01 371.5 84.7222C372.288 85.4345 373.31 85.9449 374.566 86.2536C375.798 86.5859 377.189 86.7521 378.741 86.7521C381.376 86.7521 383.568 86.1349 385.317 84.9003C387.041 83.6657 387.903 81.434 387.903 78.2051V68.9459H387.312C386.573 70.7977 385.44 72.3647 383.913 73.6467C382.386 74.9525 380.551 75.9378 378.409 76.6026C376.266 77.2911 373.914 77.6353 371.352 77.6353C367.313 77.6353 363.607 76.7331 360.233 74.9288C356.834 73.1244 354.125 70.2635 352.105 66.3461C350.061 62.4288 349.039 57.3124 349.039 50.9971C349.039 44.397 350.11 39.0313 352.253 34.9003C354.371 30.7692 357.129 27.7422 360.528 25.8191C363.902 23.896 367.461 22.9345 371.205 22.9345C374.012 22.9345 376.475 23.3974 378.593 24.3234C380.711 25.273 382.485 26.5195 383.913 28.0627C385.342 29.6296 386.425 31.339 387.164 33.1909H387.607V23.6467H408V78.2051C408 82.8348 406.769 86.764 404.306 89.9929C401.818 93.2455 398.333 95.7265 393.851 97.4359C389.368 99.1453 384.135 100 378.15 100ZM378.889 63.6752C380.761 63.6752 382.374 63.1648 383.728 62.1439C385.058 61.1467 386.093 59.6985 386.832 57.7991C387.546 55.9235 387.903 53.6562 387.903 50.9971C387.903 48.2906 387.546 45.9639 386.832 44.0171C386.093 42.094 385.058 40.6102 383.728 39.5655C382.374 38.5446 380.761 38.0342 378.889 38.0342C377.017 38.0342 375.428 38.5446 374.123 39.5655C372.793 40.6102 371.783 42.094 371.094 44.0171C370.38 45.9639 370.022 48.2906 370.022 50.9971C370.022 53.7037 370.38 55.9948 371.094 57.8704C371.783 59.7697 372.793 61.2061 374.123 62.1795C375.428 63.1766 377.017 63.6752 378.889 63.6752Z" fill="url(#paint5_linear_187_19)"/>
<path d="M37.3865 23.6467V37.8917H0V23.6467H37.3865ZM7.24086 10.5413H27.6335V60.755C27.6335 61.5147 27.7689 62.1439 28.0398 62.6424C28.3108 63.1648 28.7294 63.5446 29.2959 63.7821C29.8624 64.0432 30.5889 64.1738 31.4756 64.1738C32.0913 64.1738 32.8178 64.1026 33.6552 63.9601C34.468 63.8177 35.0714 63.699 35.4654 63.604L38.4209 77.4217C37.5096 77.6828 36.2166 78.0033 34.5418 78.3832C32.8425 78.7631 30.8352 79.0123 28.5201 79.1311C23.8406 79.3685 19.9124 78.8936 16.7352 77.7066C13.5581 76.5432 11.1691 74.6914 9.56827 72.151C7.9674 69.6106 7.1916 66.4292 7.24086 62.6068V10.5413ZM67.2365 47.5783V78.3476H46.8439V5.4131H66.4977V34.0456H67.0887C68.3694 30.5555 70.4998 27.8253 73.4799 25.8547C76.46 23.9079 80.0435 22.9345 84.2304 22.9345C88.2448 22.9345 91.7421 23.8129 94.7222 25.5698C97.6777 27.3267 99.9805 29.7483 101.631 32.8348C103.256 35.9212 104.057 39.4587 104.032 43.4473V78.3476H83.6393V47.5783C83.6639 44.8718 82.9743 42.7469 81.5704 41.2037C80.142 39.6605 78.1224 38.8889 75.5118 38.8889C73.8616 38.8889 72.4209 39.2331 71.1894 39.9216C69.9334 40.6339 68.9728 41.6311 68.3079 42.9131C67.6183 44.2189 67.2611 45.774 67.2365 47.5783ZM114.08 78.3476V23.6467H133.882V34.0456H134.473C135.507 30.1994 137.158 27.386 139.423 25.6054C141.665 23.8248 144.3 22.9345 147.329 22.9345C148.216 22.9345 149.103 22.9938 149.989 23.1125C150.851 23.255 151.689 23.4449 152.501 23.6823V40.4558C151.491 40.1235 150.248 39.8742 148.77 39.708C147.292 39.5418 146.024 39.4587 144.965 39.4587C142.97 39.4587 141.184 39.886 139.608 40.7407C138.007 41.6192 136.751 42.83 135.84 44.3732C134.929 45.9402 134.473 47.7683 134.473 49.8575V78.3476H114.08ZM159.151 78.3476V23.6467H179.544V78.3476H159.151ZM169.384 17.9487C166.601 17.9487 164.225 17.0703 162.254 15.3134C160.284 13.5565 159.299 11.4435 159.299 8.97435C159.299 6.50521 160.284 4.3922 162.254 2.63531C164.225 0.87843 166.589 0 169.347 0C172.13 0 174.507 0.87843 176.477 2.63531C178.423 4.3922 179.396 6.50521 179.396 8.97435C179.396 11.4435 178.423 13.5565 176.477 15.3134C174.507 17.0703 172.143 17.9487 169.384 17.9487ZM247.076 23.6467L228.013 78.3476H204.369L185.307 23.6467H206.734L215.896 59.8291H216.487L225.649 23.6467H247.076ZM252.839 78.3476V23.6467H273.231V78.3476H252.839ZM263.072 17.9487C260.289 17.9487 257.912 17.0703 255.942 15.3134C253.972 13.5565 252.987 11.4435 252.987 8.97435C252.987 6.50521 253.972 4.3922 255.942 2.63531C257.912 0.87843 260.277 0 263.035 0C265.818 0 268.195 0.87843 270.165 2.63531C272.111 4.3922 273.084 6.50521 273.084 8.97435C273.084 11.4435 272.111 13.5565 270.165 15.3134C268.195 17.0703 265.831 17.9487 263.072 17.9487ZM303.968 47.5783V78.3476H283.576V23.6467H302.934V34.0456H303.525C304.756 30.5793 306.936 27.8609 310.064 25.8903C313.167 23.9198 316.8 22.9345 320.962 22.9345C324.976 22.9345 328.474 23.8129 331.454 25.5698C334.409 27.3504 336.712 29.7839 338.362 32.8704C339.988 35.9568 340.788 39.4824 340.764 43.4473V78.3476H320.371V47.5783C320.396 44.8718 319.694 42.7469 318.265 41.2037C316.812 39.6605 314.805 38.8889 312.243 38.8889C310.569 38.8889 309.116 39.2331 307.884 39.9216C306.628 40.6339 305.668 41.6311 305.003 42.9131C304.338 44.2189 303.993 45.774 303.968 47.5783ZM378.15 100C372.461 100 367.597 99.2165 363.557 97.6496C359.494 96.1064 356.354 93.9696 354.137 91.2393C351.896 88.5328 350.64 85.4226 350.369 81.9088H370.022C370.22 83.0722 370.712 84.01 371.5 84.7222C372.288 85.4345 373.31 85.9449 374.566 86.2536C375.798 86.5859 377.189 86.7521 378.741 86.7521C381.376 86.7521 383.568 86.1349 385.317 84.9003C387.041 83.6657 387.903 81.434 387.903 78.2051V68.9459H387.312C386.573 70.7977 385.44 72.3647 383.913 73.6467C382.386 74.9525 380.551 75.9378 378.409 76.6026C376.266 77.2911 373.914 77.6353 371.352 77.6353C367.313 77.6353 363.607 76.7331 360.233 74.9288C356.834 73.1244 354.125 70.2635 352.105 66.3461C350.061 62.4288 349.039 57.3124 349.039 50.9971C349.039 44.397 350.11 39.0313 352.253 34.9003C354.371 30.7692 357.129 27.7422 360.528 25.8191C363.902 23.896 367.461 22.9345 371.205 22.9345C374.012 22.9345 376.475 23.3974 378.593 24.3234C380.711 25.273 382.485 26.5195 383.913 28.0627C385.342 29.6296 386.425 31.339 387.164 33.1909H387.607V23.6467H408V78.2051C408 82.8348 406.769 86.764 404.306 89.9929C401.818 93.2455 398.333 95.7265 393.851 97.4359C389.368 99.1453 384.135 100 378.15 100ZM378.889 63.6752C380.761 63.6752 382.374 63.1648 383.728 62.1439C385.058 61.1467 386.093 59.6985 386.832 57.7991C387.546 55.9235 387.903 53.6562 387.903 50.9971C387.903 48.2906 387.546 45.9639 386.832 44.0171C386.093 42.094 385.058 40.6102 383.728 39.5655C382.374 38.5446 380.761 38.0342 378.889 38.0342C377.017 38.0342 375.428 38.5446 374.123 39.5655C372.793 40.6102 371.783 42.094 371.094 44.0171C370.38 45.9639 370.022 48.2906 370.022 50.9971C370.022 53.7037 370.38 55.9948 371.094 57.8704C371.783 59.7697 372.793 61.2061 374.123 62.1795C375.428 63.1766 377.017 63.6752 378.889 63.6752Z" fill="url(#paint6_linear_187_19)"/>
<path d="M37.3865 23.6467V37.8917H0V23.6467H37.3865ZM7.24086 10.5413H27.6335V60.755C27.6335 61.5147 27.7689 62.1439 28.0398 62.6424C28.3108 63.1648 28.7294 63.5446 29.2959 63.7821C29.8624 64.0432 30.5889 64.1738 31.4756 64.1738C32.0913 64.1738 32.8178 64.1026 33.6552 63.9601C34.468 63.8177 35.0714 63.699 35.4654 63.604L38.4209 77.4217C37.5096 77.6828 36.2166 78.0033 34.5418 78.3832C32.8425 78.7631 30.8352 79.0123 28.5201 79.1311C23.8406 79.3685 19.9124 78.8936 16.7352 77.7066C13.5581 76.5432 11.1691 74.6914 9.56827 72.151C7.9674 69.6106 7.1916 66.4292 7.24086 62.6068V10.5413ZM67.2365 47.5783V78.3476H46.8439V5.4131H66.4977V34.0456H67.0887C68.3694 30.5555 70.4998 27.8253 73.4799 25.8547C76.46 23.9079 80.0435 22.9345 84.2304 22.9345C88.2448 22.9345 91.7421 23.8129 94.7222 25.5698C97.6777 27.3267 99.9805 29.7483 101.631 32.8348C103.256 35.9212 104.057 39.4587 104.032 43.4473V78.3476H83.6393V47.5783C83.6639 44.8718 82.9743 42.7469 81.5704 41.2037C80.142 39.6605 78.1224 38.8889 75.5118 38.8889C73.8616 38.8889 72.4209 39.2331 71.1894 39.9216C69.9334 40.6339 68.9728 41.6311 68.3079 42.9131C67.6183 44.2189 67.2611 45.774 67.2365 47.5783ZM114.08 78.3476V23.6467H133.882V34.0456H134.473C135.507 30.1994 137.158 27.386 139.423 25.6054C141.665 23.8248 144.3 22.9345 147.329 22.9345C148.216 22.9345 149.103 22.9938 149.989 23.1125C150.851 23.255 151.689 23.4449 152.501 23.6823V40.4558C151.491 40.1235 150.248 39.8742 148.77 39.708C147.292 39.5418 146.024 39.4587 144.965 39.4587C142.97 39.4587 141.184 39.886 139.608 40.7407C138.007 41.6192 136.751 42.83 135.84 44.3732C134.929 45.9402 134.473 47.7683 134.473 49.8575V78.3476H114.08ZM159.151 78.3476V23.6467H179.544V78.3476H159.151ZM169.384 17.9487C166.601 17.9487 164.225 17.0703 162.254 15.3134C160.284 13.5565 159.299 11.4435 159.299 8.97435C159.299 6.50521 160.284 4.3922 162.254 2.63531C164.225 0.87843 166.589 0 169.347 0C172.13 0 174.507 0.87843 176.477 2.63531C178.423 4.3922 179.396 6.50521 179.396 8.97435C179.396 11.4435 178.423 13.5565 176.477 15.3134C174.507 17.0703 172.143 17.9487 169.384 17.9487ZM247.076 23.6467L228.013 78.3476H204.369L185.307 23.6467H206.734L215.896 59.8291H216.487L225.649 23.6467H247.076ZM252.839 78.3476V23.6467H273.231V78.3476H252.839ZM263.072 17.9487C260.289 17.9487 257.912 17.0703 255.942 15.3134C253.972 13.5565 252.987 11.4435 252.987 8.97435C252.987 6.50521 253.972 4.3922 255.942 2.63531C257.912 0.87843 260.277 0 263.035 0C265.818 0 268.195 0.87843 270.165 2.63531C272.111 4.3922 273.084 6.50521 273.084 8.97435C273.084 11.4435 272.111 13.5565 270.165 15.3134C268.195 17.0703 265.831 17.9487 263.072 17.9487ZM303.968 47.5783V78.3476H283.576V23.6467H302.934V34.0456H303.525C304.756 30.5793 306.936 27.8609 310.064 25.8903C313.167 23.9198 316.8 22.9345 320.962 22.9345C324.976 22.9345 328.474 23.8129 331.454 25.5698C334.409 27.3504 336.712 29.7839 338.362 32.8704C339.988 35.9568 340.788 39.4824 340.764 43.4473V78.3476H320.371V47.5783C320.396 44.8718 319.694 42.7469 318.265 41.2037C316.812 39.6605 314.805 38.8889 312.243 38.8889C310.569 38.8889 309.116 39.2331 307.884 39.9216C306.628 40.6339 305.668 41.6311 305.003 42.9131C304.338 44.2189 303.993 45.774 303.968 47.5783ZM378.15 100C372.461 100 367.597 99.2165 363.557 97.6496C359.494 96.1064 356.354 93.9696 354.137 91.2393C351.896 88.5328 350.64 85.4226 350.369 81.9088H370.022C370.22 83.0722 370.712 84.01 371.5 84.7222C372.288 85.4345 373.31 85.9449 374.566 86.2536C375.798 86.5859 377.189 86.7521 378.741 86.7521C381.376 86.7521 383.568 86.1349 385.317 84.9003C387.041 83.6657 387.903 81.434 387.903 78.2051V68.9459H387.312C386.573 70.7977 385.44 72.3647 383.913 73.6467C382.386 74.9525 380.551 75.9378 378.409 76.6026C376.266 77.2911 373.914 77.6353 371.352 77.6353C367.313 77.6353 363.607 76.7331 360.233 74.9288C356.834 73.1244 354.125 70.2635 352.105 66.3461C350.061 62.4288 349.039 57.3124 349.039 50.9971C349.039 44.397 350.11 39.0313 352.253 34.9003C354.371 30.7692 357.129 27.7422 360.528 25.8191C363.902 23.896 367.461 22.9345 371.205 22.9345C374.012 22.9345 376.475 23.3974 378.593 24.3234C380.711 25.273 382.485 26.5195 383.913 28.0627C385.342 29.6296 386.425 31.339 387.164 33.1909H387.607V23.6467H408V78.2051C408 82.8348 406.769 86.764 404.306 89.9929C401.818 93.2455 398.333 95.7265 393.851 97.4359C389.368 99.1453 384.135 100 378.15 100ZM378.889 63.6752C380.761 63.6752 382.374 63.1648 383.728 62.1439C385.058 61.1467 386.093 59.6985 386.832 57.7991C387.546 55.9235 387.903 53.6562 387.903 50.9971C387.903 48.2906 387.546 45.9639 386.832 44.0171C386.093 42.094 385.058 40.6102 383.728 39.5655C382.374 38.5446 380.761 38.0342 378.889 38.0342C377.017 38.0342 375.428 38.5446 374.123 39.5655C372.793 40.6102 371.783 42.094 371.094 44.0171C370.38 45.9639 370.022 48.2906 370.022 50.9971C370.022 53.7037 370.38 55.9948 371.094 57.8704C371.783 59.7697 372.793 61.2061 374.123 62.1795C375.428 63.1766 377.017 63.6752 378.889 63.6752Z" fill="url(#paint7_linear_187_19)"/>
<path d="M37.3865 23.6467V37.8917H0V23.6467H37.3865ZM7.24086 10.5413H27.6335V60.755C27.6335 61.5147 27.7689 62.1439 28.0398 62.6424C28.3108 63.1648 28.7294 63.5446 29.2959 63.7821C29.8624 64.0432 30.5889 64.1738 31.4756 64.1738C32.0913 64.1738 32.8178 64.1026 33.6552 63.9601C34.468 63.8177 35.0714 63.699 35.4654 63.604L38.4209 77.4217C37.5096 77.6828 36.2166 78.0033 34.5418 78.3832C32.8425 78.7631 30.8352 79.0123 28.5201 79.1311C23.8406 79.3685 19.9124 78.8936 16.7352 77.7066C13.5581 76.5432 11.1691 74.6914 9.56827 72.151C7.9674 69.6106 7.1916 66.4292 7.24086 62.6068V10.5413ZM67.2365 47.5783V78.3476H46.8439V5.4131H66.4977V34.0456H67.0887C68.3694 30.5555 70.4998 27.8253 73.4799 25.8547C76.46 23.9079 80.0435 22.9345 84.2304 22.9345C88.2448 22.9345 91.7421 23.8129 94.7222 25.5698C97.6777 27.3267 99.9805 29.7483 101.631 32.8348C103.256 35.9212 104.057 39.4587 104.032 43.4473V78.3476H83.6393V47.5783C83.6639 44.8718 82.9743 42.7469 81.5704 41.2037C80.142 39.6605 78.1224 38.8889 75.5118 38.8889C73.8616 38.8889 72.4209 39.2331 71.1894 39.9216C69.9334 40.6339 68.9728 41.6311 68.3079 42.9131C67.6183 44.2189 67.2611 45.774 67.2365 47.5783ZM114.08 78.3476V23.6467H133.882V34.0456H134.473C135.507 30.1994 137.158 27.386 139.423 25.6054C141.665 23.8248 144.3 22.9345 147.329 22.9345C148.216 22.9345 149.103 22.9938 149.989 23.1125C150.851 23.255 151.689 23.4449 152.501 23.6823V40.4558C151.491 40.1235 150.248 39.8742 148.77 39.708C147.292 39.5418 146.024 39.4587 144.965 39.4587C142.97 39.4587 141.184 39.886 139.608 40.7407C138.007 41.6192 136.751 42.83 135.84 44.3732C134.929 45.9402 134.473 47.7683 134.473 49.8575V78.3476H114.08ZM159.151 78.3476V23.6467H179.544V78.3476H159.151ZM169.384 17.9487C166.601 17.9487 164.225 17.0703 162.254 15.3134C160.284 13.5565 159.299 11.4435 159.299 8.97435C159.299 6.50521 160.284 4.3922 162.254 2.63531C164.225 0.87843 166.589 0 169.347 0C172.13 0 174.507 0.87843 176.477 2.63531C178.423 4.3922 179.396 6.50521 179.396 8.97435C179.396 11.4435 178.423 13.5565 176.477 15.3134C174.507 17.0703 172.143 17.9487 169.384 17.9487ZM247.076 23.6467L228.013 78.3476H204.369L185.307 23.6467H206.734L215.896 59.8291H216.487L225.649 23.6467H247.076ZM252.839 78.3476V23.6467H273.231V78.3476H252.839ZM263.072 17.9487C260.289 17.9487 257.912 17.0703 255.942 15.3134C253.972 13.5565 252.987 11.4435 252.987 8.97435C252.987 6.50521 253.972 4.3922 255.942 2.63531C257.912 0.87843 260.277 0 263.035 0C265.818 0 268.195 0.87843 270.165 2.63531C272.111 4.3922 273.084 6.50521 273.084 8.97435C273.084 11.4435 272.111 13.5565 270.165 15.3134C268.195 17.0703 265.831 17.9487 263.072 17.9487ZM303.968 47.5783V78.3476H283.576V23.6467H302.934V34.0456H303.525C304.756 30.5793 306.936 27.8609 310.064 25.8903C313.167 23.9198 316.8 22.9345 320.962 22.9345C324.976 22.9345 328.474 23.8129 331.454 25.5698C334.409 27.3504 336.712 29.7839 338.362 32.8704C339.988 35.9568 340.788 39.4824 340.764 43.4473V78.3476H320.371V47.5783C320.396 44.8718 319.694 42.7469 318.265 41.2037C316.812 39.6605 314.805 38.8889 312.243 38.8889C310.569 38.8889 309.116 39.2331 307.884 39.9216C306.628 40.6339 305.668 41.6311 305.003 42.9131C304.338 44.2189 303.993 45.774 303.968 47.5783ZM378.15 100C372.461 100 367.597 99.2165 363.557 97.6496C359.494 96.1064 356.354 93.9696 354.137 91.2393C351.896 88.5328 350.64 85.4226 350.369 81.9088H370.022C370.22 83.0722 370.712 84.01 371.5 84.7222C372.288 85.4345 373.31 85.9449 374.566 86.2536C375.798 86.5859 377.189 86.7521 378.741 86.7521C381.376 86.7521 383.568 86.1349 385.317 84.9003C387.041 83.6657 387.903 81.434 387.903 78.2051V68.9459H387.312C386.573 70.7977 385.44 72.3647 383.913 73.6467C382.386 74.9525 380.551 75.9378 378.409 76.6026C376.266 77.2911 373.914 77.6353 371.352 77.6353C367.313 77.6353 363.607 76.7331 360.233 74.9288C356.834 73.1244 354.125 70.2635 352.105 66.3461C350.061 62.4288 349.039 57.3124 349.039 50.9971C349.039 44.397 350.11 39.0313 352.253 34.9003C354.371 30.7692 357.129 27.7422 360.528 25.8191C363.902 23.896 367.461 22.9345 371.205 22.9345C374.012 22.9345 376.475 23.3974 378.593 24.3234C380.711 25.273 382.485 26.5195 383.913 28.0627C385.342 29.6296 386.425 31.339 387.164 33.1909H387.607V23.6467H408V78.2051C408 82.8348 406.769 86.764 404.306 89.9929C401.818 93.2455 398.333 95.7265 393.851 97.4359C389.368 99.1453 384.135 100 378.15 100ZM378.889 63.6752C380.761 63.6752 382.374 63.1648 383.728 62.1439C385.058 61.1467 386.093 59.6985 386.832 57.7991C387.546 55.9235 387.903 53.6562 387.903 50.9971C387.903 48.2906 387.546 45.9639 386.832 44.0171C386.093 42.094 385.058 40.6102 383.728 39.5655C382.374 38.5446 380.761 38.0342 378.889 38.0342C377.017 38.0342 375.428 38.5446 374.123 39.5655C372.793 40.6102 371.783 42.094 371.094 44.0171C370.38 45.9639 370.022 48.2906 370.022 50.9971C370.022 53.7037 370.38 55.9948 371.094 57.8704C371.783 59.7697 372.793 61.2061 374.123 62.1795C375.428 63.1766 377.017 63.6752 378.889 63.6752Z" fill="url(#paint8_linear_187_19)"/>
<path d="M37.3865 23.6467V37.8917H0V23.6467H37.3865ZM7.24086 10.5413H27.6335V60.755C27.6335 61.5147 27.7689 62.1439 28.0398 62.6424C28.3108 63.1648 28.7294 63.5446 29.2959 63.7821C29.8624 64.0432 30.5889 64.1738 31.4756 64.1738C32.0913 64.1738 32.8178 64.1026 33.6552 63.9601C34.468 63.8177 35.0714 63.699 35.4654 63.604L38.4209 77.4217C37.5096 77.6828 36.2166 78.0033 34.5418 78.3832C32.8425 78.7631 30.8352 79.0123 28.5201 79.1311C23.8406 79.3685 19.9124 78.8936 16.7352 77.7066C13.5581 76.5432 11.1691 74.6914 9.56827 72.151C7.9674 69.6106 7.1916 66.4292 7.24086 62.6068V10.5413ZM67.2365 47.5783V78.3476H46.8439V5.4131H66.4977V34.0456H67.0887C68.3694 30.5555 70.4998 27.8253 73.4799 25.8547C76.46 23.9079 80.0435 22.9345 84.2304 22.9345C88.2448 22.9345 91.7421 23.8129 94.7222 25.5698C97.6777 27.3267 99.9805 29.7483 101.631 32.8348C103.256 35.9212 104.057 39.4587 104.032 43.4473V78.3476H83.6393V47.5783C83.6639 44.8718 82.9743 42.7469 81.5704 41.2037C80.142 39.6605 78.1224 38.8889 75.5118 38.8889C73.8616 38.8889 72.4209 39.2331 71.1894 39.9216C69.9334 40.6339 68.9728 41.6311 68.3079 42.9131C67.6183 44.2189 67.2611 45.774 67.2365 47.5783ZM114.08 78.3476V23.6467H133.882V34.0456H134.473C135.507 30.1994 137.158 27.386 139.423 25.6054C141.665 23.8248 144.3 22.9345 147.329 22.9345C148.216 22.9345 149.103 22.9938 149.989 23.1125C150.851 23.255 151.689 23.4449 152.501 23.6823V40.4558C151.491 40.1235 150.248 39.8742 148.77 39.708C147.292 39.5418 146.024 39.4587 144.965 39.4587C142.97 39.4587 141.184 39.886 139.608 40.7407C138.007 41.6192 136.751 42.83 135.84 44.3732C134.929 45.9402 134.473 47.7683 134.473 49.8575V78.3476H114.08ZM159.151 78.3476V23.6467H179.544V78.3476H159.151ZM169.384 17.9487C166.601 17.9487 164.225 17.0703 162.254 15.3134C160.284 13.5565 159.299 11.4435 159.299 8.97435C159.299 6.50521 160.284 4.3922 162.254 2.63531C164.225 0.87843 166.589 0 169.347 0C172.13 0 174.507 0.87843 176.477 2.63531C178.423 4.3922 179.396 6.50521 179.396 8.97435C179.396 11.4435 178.423 13.5565 176.477 15.3134C174.507 17.0703 172.143 17.9487 169.384 17.9487ZM247.076 23.6467L228.013 78.3476H204.369L185.307 23.6467H206.734L215.896 59.8291H216.487L225.649 23.6467H247.076ZM252.839 78.3476V23.6467H273.231V78.3476H252.839ZM263.072 17.9487C260.289 17.9487 257.912 17.0703 255.942 15.3134C253.972 13.5565 252.987 11.4435 252.987 8.97435C252.987 6.50521 253.972 4.3922 255.942 2.63531C257.912 0.87843 260.277 0 263.035 0C265.818 0 268.195 0.87843 270.165 2.63531C272.111 4.3922 273.084 6.50521 273.084 8.97435C273.084 11.4435 272.111 13.5565 270.165 15.3134C268.195 17.0703 265.831 17.9487 263.072 17.9487ZM303.968 47.5783V78.3476H283.576V23.6467H302.934V34.0456H303.525C304.756 30.5793 306.936 27.8609 310.064 25.8903C313.167 23.9198 316.8 22.9345 320.962 22.9345C324.976 22.9345 328.474 23.8129 331.454 25.5698C334.409 27.3504 336.712 29.7839 338.362 32.8704C339.988 35.9568 340.788 39.4824 340.764 43.4473V78.3476H320.371V47.5783C320.396 44.8718 319.694 42.7469 318.265 41.2037C316.812 39.6605 314.805 38.8889 312.243 38.8889C310.569 38.8889 309.116 39.2331 307.884 39.9216C306.628 40.6339 305.668 41.6311 305.003 42.9131C304.338 44.2189 303.993 45.774 303.968 47.5783ZM378.15 100C372.461 100 367.597 99.2165 363.557 97.6496C359.494 96.1064 356.354 93.9696 354.137 91.2393C351.896 88.5328 350.64 85.4226 350.369 81.9088H370.022C370.22 83.0722 370.712 84.01 371.5 84.7222C372.288 85.4345 373.31 85.9449 374.566 86.2536C375.798 86.5859 377.189 86.7521 378.741 86.7521C381.376 86.7521 383.568 86.1349 385.317 84.9003C387.041 83.6657 387.903 81.434 387.903 78.2051V68.9459H387.312C386.573 70.7977 385.44 72.3647 383.913 73.6467C382.386 74.9525 380.551 75.9378 378.409 76.6026C376.266 77.2911 373.914 77.6353 371.352 77.6353C367.313 77.6353 363.607 76.7331 360.233 74.9288C356.834 73.1244 354.125 70.2635 352.105 66.3461C350.061 62.4288 349.039 57.3124 349.039 50.9971C349.039 44.397 350.11 39.0313 352.253 34.9003C354.371 30.7692 357.129 27.7422 360.528 25.8191C363.902 23.896 367.461 22.9345 371.205 22.9345C374.012 22.9345 376.475 23.3974 378.593 24.3234C380.711 25.273 382.485 26.5195 383.913 28.0627C385.342 29.6296 386.425 31.339 387.164 33.1909H387.607V23.6467H408V78.2051C408 82.8348 406.769 86.764 404.306 89.9929C401.818 93.2455 398.333 95.7265 393.851 97.4359C389.368 99.1453 384.135 100 378.15 100ZM378.889 63.6752C380.761 63.6752 382.374 63.1648 383.728 62.1439C385.058 61.1467 386.093 59.6985 386.832 57.7991C387.546 55.9235 387.903 53.6562 387.903 50.9971C387.903 48.2906 387.546 45.9639 386.832 44.0171C386.093 42.094 385.058 40.6102 383.728 39.5655C382.374 38.5446 380.761 38.0342 378.889 38.0342C377.017 38.0342 375.428 38.5446 374.123 39.5655C372.793 40.6102 371.783 42.094 371.094 44.0171C370.38 45.9639 370.022 48.2906 370.022 50.9971C370.022 53.7037 370.38 55.9948 371.094 57.8704C371.783 59.7697 372.793 61.2061 374.123 62.1795C375.428 63.1766 377.017 63.6752 378.889 63.6752Z" fill="url(#paint9_linear_187_19)"/>
<path d="M37.3865 23.6467V37.8917H0V23.6467H37.3865ZM7.24086 10.5413H27.6335V60.755C27.6335 61.5147 27.7689 62.1439 28.0398 62.6424C28.3108 63.1648 28.7294 63.5446 29.2959 63.7821C29.8624 64.0432 30.5889 64.1738 31.4756 64.1738C32.0913 64.1738 32.8178 64.1026 33.6552 63.9601C34.468 63.8177 35.0714 63.699 35.4654 63.604L38.4209 77.4217C37.5096 77.6828 36.2166 78.0033 34.5418 78.3832C32.8425 78.7631 30.8352 79.0123 28.5201 79.1311C23.8406 79.3685 19.9124 78.8936 16.7352 77.7066C13.5581 76.5432 11.1691 74.6914 9.56827 72.151C7.9674 69.6106 7.1916 66.4292 7.24086 62.6068V10.5413ZM67.2365 47.5783V78.3476H46.8439V5.4131H66.4977V34.0456H67.0887C68.3694 30.5555 70.4998 27.8253 73.4799 25.8547C76.46 23.9079 80.0435 22.9345 84.2304 22.9345C88.2448 22.9345 91.7421 23.8129 94.7222 25.5698C97.6777 27.3267 99.9805 29.7483 101.631 32.8348C103.256 35.9212 104.057 39.4587 104.032 43.4473V78.3476H83.6393V47.5783C83.6639 44.8718 82.9743 42.7469 81.5704 41.2037C80.142 39.6605 78.1224 38.8889 75.5118 38.8889C73.8616 38.8889 72.4209 39.2331 71.1894 39.9216C69.9334 40.6339 68.9728 41.6311 68.3079 42.9131C67.6183 44.2189 67.2611 45.774 67.2365 47.5783ZM114.08 78.3476V23.6467H133.882V34.0456H134.473C135.507 30.1994 137.158 27.386 139.423 25.6054C141.665 23.8248 144.3 22.9345 147.329 22.9345C148.216 22.9345 149.103 22.9938 149.989 23.1125C150.851 23.255 151.689 23.4449 152.501 23.6823V40.4558C151.491 40.1235 150.248 39.8742 148.77 39.708C147.292 39.5418 146.024 39.4587 144.965 39.4587C142.97 39.4587 141.184 39.886 139.608 40.7407C138.007 41.6192 136.751 42.83 135.84 44.3732C134.929 45.9402 134.473 47.7683 134.473 49.8575V78.3476H114.08ZM159.151 78.3476V23.6467H179.544V78.3476H159.151ZM169.384 17.9487C166.601 17.9487 164.225 17.0703 162.254 15.3134C160.284 13.5565 159.299 11.4435 159.299 8.97435C159.299 6.50521 160.284 4.3922 162.254 2.63531C164.225 0.87843 166.589 0 169.347 0C172.13 0 174.507 0.87843 176.477 2.63531C178.423 4.3922 179.396 6.50521 179.396 8.97435C179.396 11.4435 178.423 13.5565 176.477 15.3134C174.507 17.0703 172.143 17.9487 169.384 17.9487ZM247.076 23.6467L228.013 78.3476H204.369L185.307 23.6467H206.734L215.896 59.8291H216.487L225.649 23.6467H247.076ZM252.839 78.3476V23.6467H273.231V78.3476H252.839ZM263.072 17.9487C260.289 17.9487 257.912 17.0703 255.942 15.3134C253.972 13.5565 252.987 11.4435 252.987 8.97435C252.987 6.50521 253.972 4.3922 255.942 2.63531C257.912 0.87843 260.277 0 263.035 0C265.818 0 268.195 0.87843 270.165 2.63531C272.111 4.3922 273.084 6.50521 273.084 8.97435C273.084 11.4435 272.111 13.5565 270.165 15.3134C268.195 17.0703 265.831 17.9487 263.072 17.9487ZM303.968 47.5783V78.3476H283.576V23.6467H302.934V34.0456H303.525C304.756 30.5793 306.936 27.8609 310.064 25.8903C313.167 23.9198 316.8 22.9345 320.962 22.9345C324.976 22.9345 328.474 23.8129 331.454 25.5698C334.409 27.3504 336.712 29.7839 338.362 32.8704C339.988 35.9568 340.788 39.4824 340.764 43.4473V78.3476H320.371V47.5783C320.396 44.8718 319.694 42.7469 318.265 41.2037C316.812 39.6605 314.805 38.8889 312.243 38.8889C310.569 38.8889 309.116 39.2331 307.884 39.9216C306.628 40.6339 305.668 41.6311 305.003 42.9131C304.338 44.2189 303.993 45.774 303.968 47.5783ZM378.15 100C372.461 100 367.597 99.2165 363.557 97.6496C359.494 96.1064 356.354 93.9696 354.137 91.2393C351.896 88.5328 350.64 85.4226 350.369 81.9088H370.022C370.22 83.0722 370.712 84.01 371.5 84.7222C372.288 85.4345 373.31 85.9449 374.566 86.2536C375.798 86.5859 377.189 86.7521 378.741 86.7521C381.376 86.7521 383.568 86.1349 385.317 84.9003C387.041 83.6657 387.903 81.434 387.903 78.2051V68.9459H387.312C386.573 70.7977 385.44 72.3647 383.913 73.6467C382.386 74.9525 380.551 75.9378 378.409 76.6026C376.266 77.2911 373.914 77.6353 371.352 77.6353C367.313 77.6353 363.607 76.7331 360.233 74.9288C356.834 73.1244 354.125 70.2635 352.105 66.3461C350.061 62.4288 349.039 57.3124 349.039 50.9971C349.039 44.397 350.11 39.0313 352.253 34.9003C354.371 30.7692 357.129 27.7422 360.528 25.8191C363.902 23.896 367.461 22.9345 371.205 22.9345C374.012 22.9345 376.475 23.3974 378.593 24.3234C380.711 25.273 382.485 26.5195 383.913 28.0627C385.342 29.6296 386.425 31.339 387.164 33.1909H387.607V23.6467H408V78.2051C408 82.8348 406.769 86.764 404.306 89.9929C401.818 93.2455 398.333 95.7265 393.851 97.4359C389.368 99.1453 384.135 100 378.15 100ZM378.889 63.6752C380.761 63.6752 382.374 63.1648 383.728 62.1439C385.058 61.1467 386.093 59.6985 386.832 57.7991C387.546 55.9235 387.903 53.6562 387.903 50.9971C387.903 48.2906 387.546 45.9639 386.832 44.0171C386.093 42.094 385.058 40.6102 383.728 39.5655C382.374 38.5446 380.761 38.0342 378.889 38.0342C377.017 38.0342 375.428 38.5446 374.123 39.5655C372.793 40.6102 371.783 42.094 371.094 44.0171C370.38 45.9639 370.022 48.2906 370.022 50.9971C370.022 53.7037 370.38 55.9948 371.094 57.8704C371.783 59.7697 372.793 61.2061 374.123 62.1795C375.428 63.1766 377.017 63.6752 378.889 63.6752Z" fill="url(#paint10_linear_187_19)"/>
<path d="M37.3865 23.6467V37.8917H0V23.6467H37.3865ZM7.24086 10.5413H27.6335V60.755C27.6335 61.5147 27.7689 62.1439 28.0398 62.6424C28.3108 63.1648 28.7294 63.5446 29.2959 63.7821C29.8624 64.0432 30.5889 64.1738 31.4756 64.1738C32.0913 64.1738 32.8178 64.1026 33.6552 63.9601C34.468 63.8177 35.0714 63.699 35.4654 63.604L38.4209 77.4217C37.5096 77.6828 36.2166 78.0033 34.5418 78.3832C32.8425 78.7631 30.8352 79.0123 28.5201 79.1311C23.8406 79.3685 19.9124 78.8936 16.7352 77.7066C13.5581 76.5432 11.1691 74.6914 9.56827 72.151C7.9674 69.6106 7.1916 66.4292 7.24086 62.6068V10.5413ZM67.2365 47.5783V78.3476H46.8439V5.4131H66.4977V34.0456H67.0887C68.3694 30.5555 70.4998 27.8253 73.4799 25.8547C76.46 23.9079 80.0435 22.9345 84.2304 22.9345C88.2448 22.9345 91.7421 23.8129 94.7222 25.5698C97.6777 27.3267 99.9805 29.7483 101.631 32.8348C103.256 35.9212 104.057 39.4587 104.032 43.4473V78.3476H83.6393V47.5783C83.6639 44.8718 82.9743 42.7469 81.5704 41.2037C80.142 39.6605 78.1224 38.8889 75.5118 38.8889C73.8616 38.8889 72.4209 39.2331 71.1894 39.9216C69.9334 40.6339 68.9728 41.6311 68.3079 42.9131C67.6183 44.2189 67.2611 45.774 67.2365 47.5783ZM114.08 78.3476V23.6467H133.882V34.0456H134.473C135.507 30.1994 137.158 27.386 139.423 25.6054C141.665 23.8248 144.3 22.9345 147.329 22.9345C148.216 22.9345 149.103 22.9938 149.989 23.1125C150.851 23.255 151.689 23.4449 152.501 23.6823V40.4558C151.491 40.1235 150.248 39.8742 148.77 39.708C147.292 39.5418 146.024 39.4587 144.965 39.4587C142.97 39.4587 141.184 39.886 139.608 40.7407C138.007 41.6192 136.751 42.83 135.84 44.3732C134.929 45.9402 134.473 47.7683 134.473 49.8575V78.3476H114.08ZM159.151 78.3476V23.6467H179.544V78.3476H159.151ZM169.384 17.9487C166.601 17.9487 164.225 17.0703 162.254 15.3134C160.284 13.5565 159.299 11.4435 159.299 8.97435C159.299 6.50521 160.284 4.3922 162.254 2.63531C164.225 0.87843 166.589 0 169.347 0C172.13 0 174.507 0.87843 176.477 2.63531C178.423 4.3922 179.396 6.50521 179.396 8.97435C179.396 11.4435 178.423 13.5565 176.477 15.3134C174.507 17.0703 172.143 17.9487 169.384 17.9487ZM247.076 23.6467L228.013 78.3476H204.369L185.307 23.6467H206.734L215.896 59.8291H216.487L225.649 23.6467H247.076ZM252.839 78.3476V23.6467H273.231V78.3476H252.839ZM263.072 17.9487C260.289 17.9487 257.912 17.0703 255.942 15.3134C253.972 13.5565 252.987 11.4435 252.987 8.97435C252.987 6.50521 253.972 4.3922 255.942 2.63531C257.912 0.87843 260.277 0 263.035 0C265.818 0 268.195 0.87843 270.165 2.63531C272.111 4.3922 273.084 6.50521 273.084 8.97435C273.084 11.4435 272.111 13.5565 270.165 15.3134C268.195 17.0703 265.831 17.9487 263.072 17.9487ZM303.968 47.5783V78.3476H283.576V23.6467H302.934V34.0456H303.525C304.756 30.5793 306.936 27.8609 310.064 25.8903C313.167 23.9198 316.8 22.9345 320.962 22.9345C324.976 22.9345 328.474 23.8129 331.454 25.5698C334.409 27.3504 336.712 29.7839 338.362 32.8704C339.988 35.9568 340.788 39.4824 340.764 43.4473V78.3476H320.371V47.5783C320.396 44.8718 319.694 42.7469 318.265 41.2037C316.812 39.6605 314.805 38.8889 312.243 38.8889C310.569 38.8889 309.116 39.2331 307.884 39.9216C306.628 40.6339 305.668 41.6311 305.003 42.9131C304.338 44.2189 303.993 45.774 303.968 47.5783ZM378.15 100C372.461 100 367.597 99.2165 363.557 97.6496C359.494 96.1064 356.354 93.9696 354.137 91.2393C351.896 88.5328 350.64 85.4226 350.369 81.9088H370.022C370.22 83.0722 370.712 84.01 371.5 84.7222C372.288 85.4345 373.31 85.9449 374.566 86.2536C375.798 86.5859 377.189 86.7521 378.741 86.7521C381.376 86.7521 383.568 86.1349 385.317 84.9003C387.041 83.6657 387.903 81.434 387.903 78.2051V68.9459H387.312C386.573 70.7977 385.44 72.3647 383.913 73.6467C382.386 74.9525 380.551 75.9378 378.409 76.6026C376.266 77.2911 373.914 77.6353 371.352 77.6353C367.313 77.6353 363.607 76.7331 360.233 74.9288C356.834 73.1244 354.125 70.2635 352.105 66.3461C350.061 62.4288 349.039 57.3124 349.039 50.9971C349.039 44.397 350.11 39.0313 352.253 34.9003C354.371 30.7692 357.129 27.7422 360.528 25.8191C363.902 23.896 367.461 22.9345 371.205 22.9345C374.012 22.9345 376.475 23.3974 378.593 24.3234C380.711 25.273 382.485 26.5195 383.913 28.0627C385.342 29.6296 386.425 31.339 387.164 33.1909H387.607V23.6467H408V78.2051C408 82.8348 406.769 86.764 404.306 89.9929C401.818 93.2455 398.333 95.7265 393.851 97.4359C389.368 99.1453 384.135 100 378.15 100ZM378.889 63.6752C380.761 63.6752 382.374 63.1648 383.728 62.1439C385.058 61.1467 386.093 59.6985 386.832 57.7991C387.546 55.9235 387.903 53.6562 387.903 50.9971C387.903 48.2906 387.546 45.9639 386.832 44.0171C386.093 42.094 385.058 40.6102 383.728 39.5655C382.374 38.5446 380.761 38.0342 378.889 38.0342C377.017 38.0342 375.428 38.5446 374.123 39.5655C372.793 40.6102 371.783 42.094 371.094 44.0171C370.38 45.9639 370.022 48.2906 370.022 50.9971C370.022 53.7037 370.38 55.9948 371.094 57.8704C371.783 59.7697 372.793 61.2061 374.123 62.1795C375.428 63.1766 377.017 63.6752 378.889 63.6752Z" fill="url(#paint11_linear_187_19)"/>
<defs>
<linearGradient id="paint0_linear_187_19" x1="48.1132" y1="-93.595" x2="197.388" y2="104.97" gradientUnits="userSpaceOnUse">
<stop stop-color="#FF1717"/>
<stop offset="1" stop-color="#FFCB46"/>
</linearGradient>
<linearGradient id="paint1_linear_187_19" x1="48.1132" y1="-93.595" x2="197.388" y2="104.97" gradientUnits="userSpaceOnUse">
<stop stop-color="#FF1717"/>
<stop offset="1" stop-color="#FFCB46"/>
</linearGradient>
<linearGradient id="paint2_linear_187_19" x1="48.1132" y1="-93.595" x2="197.388" y2="104.97" gradientUnits="userSpaceOnUse">
<stop stop-color="#FF1717"/>
<stop offset="1" stop-color="#FFCB46"/>
</linearGradient>
<linearGradient id="paint3_linear_187_19" x1="48.1132" y1="-93.595" x2="197.388" y2="104.97" gradientUnits="userSpaceOnUse">
<stop stop-color="#FF1717"/>
<stop offset="1" stop-color="#FFCB46"/>
</linearGradient>
<linearGradient id="paint4_linear_187_19" x1="48.1132" y1="-93.595" x2="197.388" y2="104.97" gradientUnits="userSpaceOnUse">
<stop stop-color="#FF1717"/>
<stop offset="1" stop-color="#FFCB46"/>
</linearGradient>
<linearGradient id="paint5_linear_187_19" x1="48.1132" y1="-93.595" x2="197.388" y2="104.97" gradientUnits="userSpaceOnUse">
<stop stop-color="#FF1717"/>
<stop offset="1" stop-color="#FFCB46"/>
</linearGradient>
<linearGradient id="paint6_linear_187_19" x1="48.1132" y1="-93.595" x2="197.388" y2="104.97" gradientUnits="userSpaceOnUse">
<stop stop-color="#FF1717"/>
<stop offset="1" stop-color="#FFCB46"/>
</linearGradient>
<linearGradient id="paint7_linear_187_19" x1="48.1132" y1="-93.595" x2="197.388" y2="104.97" gradientUnits="userSpaceOnUse">
<stop stop-color="#FF1717"/>
<stop offset="1" stop-color="#FFCB46"/>
</linearGradient>
<linearGradient id="paint8_linear_187_19" x1="48.1132" y1="-93.595" x2="197.388" y2="104.97" gradientUnits="userSpaceOnUse">
<stop stop-color="#FF1717"/>
<stop offset="1" stop-color="#FFCB46"/>
</linearGradient>
<linearGradient id="paint9_linear_187_19" x1="48.1132" y1="-93.595" x2="197.388" y2="104.97" gradientUnits="userSpaceOnUse">
<stop stop-color="#FF1717"/>
<stop offset="1" stop-color="#FFCB46"/>
</linearGradient>
<linearGradient id="paint10_linear_187_19" x1="48.1132" y1="-93.595" x2="197.388" y2="104.97" gradientUnits="userSpaceOnUse">
<stop stop-color="#FF1717"/>
<stop offset="1" stop-color="#FFCB46"/>
</linearGradient>
<linearGradient id="paint11_linear_187_19" x1="48.1132" y1="-93.595" x2="197.388" y2="104.97" gradientUnits="userSpaceOnUse">
<stop stop-color="#FF1717"/>
<stop offset="1" stop-color="#FFCB46"/>
</linearGradient>
</defs>
</svg>
