<svg preserveAspectRatio="xMinYMin meet" viewBox="0 0 613 98" fill="none" xmlns="http://www.w3.org/2000/svg">
<path d="M30.5196 78.6542C24.1294 78.6542 18.6594 77.4774 14.1096 75.1239C9.55975 72.7939 6.0707 69.5226 3.64242 65.3098C1.21414 61.1206 0 56.2488 0 50.6945C0 45.1403 1.21414 40.2567 3.64242 36.044C6.0707 31.8547 9.55975 28.5833 14.1096 26.2298C18.6594 23.8999 24.1294 22.7349 30.5196 22.7349C36.2964 22.7349 41.3063 23.688 45.5494 25.5944C49.7669 27.5243 53.0387 30.2308 55.3648 33.714C57.6908 37.2207 58.8666 41.3276 58.8922 46.0346H39.2614C38.9803 43.1868 38.0984 41.0099 36.6159 39.5036C35.1078 38.0209 33.178 37.2795 30.8264 37.2795C28.986 37.2795 27.3757 37.762 25.9954 38.727C24.6151 39.7154 23.5415 41.1864 22.7747 43.1398C22.0079 45.1167 21.6245 47.5879 21.6245 50.5533C21.6245 53.5187 22.0079 55.9782 22.7747 57.9316C23.5415 59.9085 24.6151 61.3794 25.9954 62.3444C27.3757 63.3329 28.986 63.8271 30.8264 63.8271C32.3856 63.8271 33.7659 63.4858 34.9672 62.8033C36.1686 62.1443 37.1527 61.1559 37.9195 59.8379C38.6608 58.5435 39.1081 56.9549 39.2614 55.0721H58.8922C58.8155 59.8497 57.6269 64.0036 55.3264 67.5339C53.026 71.0877 49.7797 73.8295 45.5878 75.7594C41.3702 77.6892 36.3475 78.6542 30.5196 78.6542ZM96.0065 78.6542C89.6163 78.6542 84.1463 77.4774 79.5964 75.1239C75.0466 72.7939 71.5576 69.5226 69.1293 65.3098C66.701 61.1206 65.4869 56.2488 65.4869 50.6945C65.4869 45.1403 66.701 40.2567 69.1293 36.044C71.5576 31.8547 75.0466 28.5833 79.5964 26.2298C84.1463 23.8999 89.6163 22.7349 96.0065 22.7349C102.397 22.7349 107.867 23.8999 112.417 26.2298C116.966 28.5833 120.455 31.8547 122.884 36.044C125.312 40.2567 126.526 45.1403 126.526 50.6945C126.526 56.2488 125.312 61.1206 122.884 65.3098C120.455 69.5226 116.966 72.7939 112.417 75.1239C107.867 77.4774 102.397 78.6542 96.0065 78.6542ZM96.1599 64.2507C97.9491 64.2507 99.4955 63.6976 100.799 62.5915C102.103 61.4854 103.112 59.9085 103.828 57.861C104.544 55.8134 104.902 53.3775 104.902 50.5533C104.902 47.7056 104.544 45.2579 103.828 43.2104C103.112 41.1864 102.103 39.6213 100.799 38.5151C99.4955 37.409 97.9491 36.8559 96.1599 36.8559C94.2684 36.8559 92.6453 37.409 91.2905 38.5151C89.9358 39.6213 88.9006 41.1864 88.1849 43.2104C87.4692 45.2579 87.1113 47.7056 87.1113 50.5533C87.1113 53.3775 87.4692 55.8134 88.1849 57.861C88.9006 59.9085 89.9358 61.4854 91.2905 62.5915C92.6453 63.6976 94.2684 64.2507 96.1599 64.2507ZM135.115 77.6657V23.4409H155.205V33.7493H155.819C157.046 30.3602 159.142 27.6772 162.107 25.7003C165.072 23.7233 168.599 22.7349 172.689 22.7349C176.83 22.7349 180.396 23.7351 183.386 25.7356C186.377 27.7596 188.179 30.4308 188.792 33.7493H189.406C190.403 30.4308 192.524 27.7596 195.77 25.7356C199.017 23.7351 202.825 22.7349 207.196 22.7349C212.845 22.7349 217.433 24.4059 220.961 27.7478C224.463 31.0898 226.213 35.5379 226.213 41.0922V77.6657H205.049V46.0346C205.049 43.6575 204.397 41.7865 203.094 40.4215C201.79 39.08 200.039 38.4092 197.841 38.4092C195.668 38.4092 193.956 39.08 192.703 40.4215C191.425 41.7865 190.786 43.6575 190.786 46.0346V77.6657H170.542V46.0346C170.542 43.6575 169.89 41.7865 168.586 40.4215C167.283 39.08 165.532 38.4092 163.334 38.4092C161.877 38.4092 160.624 38.7152 159.576 39.3271C158.528 39.939 157.723 40.8098 157.161 41.9395C156.573 43.0927 156.279 44.4577 156.279 46.0346V77.6657H135.115ZM236.642 77.6657V23.4409H256.733V33.7493H257.346C258.573 30.3602 260.669 27.6772 263.634 25.7003C266.6 23.7233 270.127 22.7349 274.217 22.7349C278.358 22.7349 281.923 23.7351 284.914 25.7356C287.904 27.7596 289.707 30.4308 290.32 33.7493H290.933C291.93 30.4308 294.052 27.7596 297.298 25.7356C300.544 23.7351 304.353 22.7349 308.724 22.7349C314.373 22.7349 318.961 24.4059 322.488 27.7478C325.99 31.0898 327.741 35.5379 327.741 41.0922V77.6657H306.577V46.0346C306.577 43.6575 305.925 41.7865 304.621 40.4215C303.318 39.08 301.567 38.4092 299.369 38.4092C297.196 38.4092 295.483 39.08 294.231 40.4215C292.953 41.7865 292.314 43.6575 292.314 46.0346V77.6657H272.07V46.0346C272.07 43.6575 271.418 41.7865 270.114 40.4215C268.811 39.08 267.06 38.4092 264.861 38.4092C263.404 38.4092 262.152 38.7152 261.104 39.3271C260.056 39.939 259.251 40.8098 258.688 41.9395C258.101 43.0927 257.807 44.4577 257.807 46.0346V77.6657H236.642ZM376.358 53.9424V23.4409H397.522V77.6657H377.431V67.3574H376.818C375.54 70.817 373.303 73.5118 370.108 75.4416C366.913 77.3951 363.117 78.3718 358.721 78.3718C354.605 78.3718 351.014 77.501 347.947 75.7594C344.854 74.0178 342.464 71.6172 340.777 68.5576C339.064 65.4981 338.195 61.9914 338.17 58.0375V23.4409H359.334V53.9424C359.36 56.6254 360.114 58.7318 361.596 60.2615C363.053 61.7913 365.111 62.5562 367.769 62.5562C369.533 62.5562 371.067 62.2032 372.37 61.4971C373.648 60.8146 374.645 59.8261 375.361 58.5317C376.051 57.2608 376.383 55.731 376.358 53.9424ZM429.422 47.1643V77.6657H408.258V23.4409H428.348V33.7493H428.962C430.24 30.3132 432.502 27.6184 435.748 25.665C438.969 23.7116 442.739 22.7349 447.059 22.7349C451.225 22.7349 454.855 23.6057 457.948 25.3473C461.015 27.1124 463.405 29.5247 465.118 32.5843C466.805 35.6439 467.636 39.1388 467.61 43.0692V77.6657H446.446V47.1643C446.471 44.4813 445.743 42.3749 444.26 40.8451C442.752 39.3153 440.669 38.5504 438.011 38.5504C436.272 38.5504 434.764 38.8917 433.486 39.5742C432.183 40.2803 431.186 41.2687 430.496 42.5396C429.806 43.8341 429.448 45.3756 429.422 47.1643ZM478.039 77.6657V23.4409H499.203V77.6657H478.039ZM488.659 17.7925C485.771 17.7925 483.304 16.9217 481.259 15.1801C479.215 13.4385 478.192 11.3439 478.192 8.89626C478.192 6.44862 479.215 4.35399 481.259 2.6124C483.304 0.870803 485.758 1.3113e-06 488.621 1.3113e-06C491.509 1.3113e-06 493.976 0.870803 496.021 2.6124C498.04 4.35399 499.05 6.44862 499.05 8.89626C499.05 11.3439 498.04 13.4385 496.021 15.1801C493.976 16.9217 491.522 17.7925 488.659 17.7925ZM545.059 23.4409V37.562H506.258V23.4409H545.059ZM513.773 10.4496H534.937V60.2262C534.937 60.9794 535.078 61.603 535.359 62.0973C535.64 62.615 536.075 62.9916 536.663 63.2269C537.25 63.4858 538.005 63.6153 538.925 63.6153C539.564 63.6153 540.318 63.5447 541.187 63.4035C542.03 63.2623 542.657 63.1446 543.066 63.0504L546.133 76.7478C545.187 77.0067 543.845 77.3244 542.107 77.701C540.343 78.0776 538.26 78.3247 535.857 78.4424C531.001 78.6777 526.924 78.207 523.627 77.0303C520.329 75.877 517.85 74.0413 516.188 71.5231C514.527 69.0048 513.722 65.8511 513.773 62.062V10.4496ZM566.53 98C564.102 98 561.789 97.8235 559.591 97.4705C557.392 97.141 555.463 96.682 553.801 96.0937L558.402 82.255C560.14 82.8199 561.738 83.1847 563.195 83.3494C564.626 83.5142 565.866 83.42 566.914 83.067C567.936 82.714 568.677 82.0432 569.138 81.0548L569.598 80.0663L548.893 23.4409H570.978L580.487 61.0029H581.1L590.762 23.4409H613L591.529 82.1844C590.455 85.1734 588.909 87.8564 586.89 90.2334C584.845 92.634 582.174 94.5286 578.876 95.9171C575.579 97.3057 571.464 98 566.53 98Z" fill="url(#paint0_linear_187_18)"/>
<path d="M30.5196 78.6542C24.1294 78.6542 18.6594 77.4774 14.1096 75.1239C9.55975 72.7939 6.0707 69.5226 3.64242 65.3098C1.21414 61.1206 0 56.2488 0 50.6945C0 45.1403 1.21414 40.2567 3.64242 36.044C6.0707 31.8547 9.55975 28.5833 14.1096 26.2298C18.6594 23.8999 24.1294 22.7349 30.5196 22.7349C36.2964 22.7349 41.3063 23.688 45.5494 25.5944C49.7669 27.5243 53.0387 30.2308 55.3648 33.714C57.6908 37.2207 58.8666 41.3276 58.8922 46.0346H39.2614C38.9803 43.1868 38.0984 41.0099 36.6159 39.5036C35.1078 38.0209 33.178 37.2795 30.8264 37.2795C28.986 37.2795 27.3757 37.762 25.9954 38.727C24.6151 39.7154 23.5415 41.1864 22.7747 43.1398C22.0079 45.1167 21.6245 47.5879 21.6245 50.5533C21.6245 53.5187 22.0079 55.9782 22.7747 57.9316C23.5415 59.9085 24.6151 61.3794 25.9954 62.3444C27.3757 63.3329 28.986 63.8271 30.8264 63.8271C32.3856 63.8271 33.7659 63.4858 34.9672 62.8033C36.1686 62.1443 37.1527 61.1559 37.9195 59.8379C38.6608 58.5435 39.1081 56.9549 39.2614 55.0721H58.8922C58.8155 59.8497 57.6269 64.0036 55.3264 67.5339C53.026 71.0877 49.7797 73.8295 45.5878 75.7594C41.3702 77.6892 36.3475 78.6542 30.5196 78.6542ZM96.0065 78.6542C89.6163 78.6542 84.1463 77.4774 79.5964 75.1239C75.0466 72.7939 71.5576 69.5226 69.1293 65.3098C66.701 61.1206 65.4869 56.2488 65.4869 50.6945C65.4869 45.1403 66.701 40.2567 69.1293 36.044C71.5576 31.8547 75.0466 28.5833 79.5964 26.2298C84.1463 23.8999 89.6163 22.7349 96.0065 22.7349C102.397 22.7349 107.867 23.8999 112.417 26.2298C116.966 28.5833 120.455 31.8547 122.884 36.044C125.312 40.2567 126.526 45.1403 126.526 50.6945C126.526 56.2488 125.312 61.1206 122.884 65.3098C120.455 69.5226 116.966 72.7939 112.417 75.1239C107.867 77.4774 102.397 78.6542 96.0065 78.6542ZM96.1599 64.2507C97.9491 64.2507 99.4955 63.6976 100.799 62.5915C102.103 61.4854 103.112 59.9085 103.828 57.861C104.544 55.8134 104.902 53.3775 104.902 50.5533C104.902 47.7056 104.544 45.2579 103.828 43.2104C103.112 41.1864 102.103 39.6213 100.799 38.5151C99.4955 37.409 97.9491 36.8559 96.1599 36.8559C94.2684 36.8559 92.6453 37.409 91.2905 38.5151C89.9358 39.6213 88.9006 41.1864 88.1849 43.2104C87.4692 45.2579 87.1113 47.7056 87.1113 50.5533C87.1113 53.3775 87.4692 55.8134 88.1849 57.861C88.9006 59.9085 89.9358 61.4854 91.2905 62.5915C92.6453 63.6976 94.2684 64.2507 96.1599 64.2507ZM135.115 77.6657V23.4409H155.205V33.7493H155.819C157.046 30.3602 159.142 27.6772 162.107 25.7003C165.072 23.7233 168.599 22.7349 172.689 22.7349C176.83 22.7349 180.396 23.7351 183.386 25.7356C186.377 27.7596 188.179 30.4308 188.792 33.7493H189.406C190.403 30.4308 192.524 27.7596 195.77 25.7356C199.017 23.7351 202.825 22.7349 207.196 22.7349C212.845 22.7349 217.433 24.4059 220.961 27.7478C224.463 31.0898 226.213 35.5379 226.213 41.0922V77.6657H205.049V46.0346C205.049 43.6575 204.397 41.7865 203.094 40.4215C201.79 39.08 200.039 38.4092 197.841 38.4092C195.668 38.4092 193.956 39.08 192.703 40.4215C191.425 41.7865 190.786 43.6575 190.786 46.0346V77.6657H170.542V46.0346C170.542 43.6575 169.89 41.7865 168.586 40.4215C167.283 39.08 165.532 38.4092 163.334 38.4092C161.877 38.4092 160.624 38.7152 159.576 39.3271C158.528 39.939 157.723 40.8098 157.161 41.9395C156.573 43.0927 156.279 44.4577 156.279 46.0346V77.6657H135.115ZM236.642 77.6657V23.4409H256.733V33.7493H257.346C258.573 30.3602 260.669 27.6772 263.634 25.7003C266.6 23.7233 270.127 22.7349 274.217 22.7349C278.358 22.7349 281.923 23.7351 284.914 25.7356C287.904 27.7596 289.707 30.4308 290.32 33.7493H290.933C291.93 30.4308 294.052 27.7596 297.298 25.7356C300.544 23.7351 304.353 22.7349 308.724 22.7349C314.373 22.7349 318.961 24.4059 322.488 27.7478C325.99 31.0898 327.741 35.5379 327.741 41.0922V77.6657H306.577V46.0346C306.577 43.6575 305.925 41.7865 304.621 40.4215C303.318 39.08 301.567 38.4092 299.369 38.4092C297.196 38.4092 295.483 39.08 294.231 40.4215C292.953 41.7865 292.314 43.6575 292.314 46.0346V77.6657H272.07V46.0346C272.07 43.6575 271.418 41.7865 270.114 40.4215C268.811 39.08 267.06 38.4092 264.861 38.4092C263.404 38.4092 262.152 38.7152 261.104 39.3271C260.056 39.939 259.251 40.8098 258.688 41.9395C258.101 43.0927 257.807 44.4577 257.807 46.0346V77.6657H236.642ZM376.358 53.9424V23.4409H397.522V77.6657H377.431V67.3574H376.818C375.54 70.817 373.303 73.5118 370.108 75.4416C366.913 77.3951 363.117 78.3718 358.721 78.3718C354.605 78.3718 351.014 77.501 347.947 75.7594C344.854 74.0178 342.464 71.6172 340.777 68.5576C339.064 65.4981 338.195 61.9914 338.17 58.0375V23.4409H359.334V53.9424C359.36 56.6254 360.114 58.7318 361.596 60.2615C363.053 61.7913 365.111 62.5562 367.769 62.5562C369.533 62.5562 371.067 62.2032 372.37 61.4971C373.648 60.8146 374.645 59.8261 375.361 58.5317C376.051 57.2608 376.383 55.731 376.358 53.9424ZM429.422 47.1643V77.6657H408.258V23.4409H428.348V33.7493H428.962C430.24 30.3132 432.502 27.6184 435.748 25.665C438.969 23.7116 442.739 22.7349 447.059 22.7349C451.225 22.7349 454.855 23.6057 457.948 25.3473C461.015 27.1124 463.405 29.5247 465.118 32.5843C466.805 35.6439 467.636 39.1388 467.61 43.0692V77.6657H446.446V47.1643C446.471 44.4813 445.743 42.3749 444.26 40.8451C442.752 39.3153 440.669 38.5504 438.011 38.5504C436.272 38.5504 434.764 38.8917 433.486 39.5742C432.183 40.2803 431.186 41.2687 430.496 42.5396C429.806 43.8341 429.448 45.3756 429.422 47.1643ZM478.039 77.6657V23.4409H499.203V77.6657H478.039ZM488.659 17.7925C485.771 17.7925 483.304 16.9217 481.259 15.1801C479.215 13.4385 478.192 11.3439 478.192 8.89626C478.192 6.44862 479.215 4.35399 481.259 2.6124C483.304 0.870803 485.758 1.3113e-06 488.621 1.3113e-06C491.509 1.3113e-06 493.976 0.870803 496.021 2.6124C498.04 4.35399 499.05 6.44862 499.05 8.89626C499.05 11.3439 498.04 13.4385 496.021 15.1801C493.976 16.9217 491.522 17.7925 488.659 17.7925ZM545.059 23.4409V37.562H506.258V23.4409H545.059ZM513.773 10.4496H534.937V60.2262C534.937 60.9794 535.078 61.603 535.359 62.0973C535.64 62.615 536.075 62.9916 536.663 63.2269C537.25 63.4858 538.005 63.6153 538.925 63.6153C539.564 63.6153 540.318 63.5447 541.187 63.4035C542.03 63.2623 542.657 63.1446 543.066 63.0504L546.133 76.7478C545.187 77.0067 543.845 77.3244 542.107 77.701C540.343 78.0776 538.26 78.3247 535.857 78.4424C531.001 78.6777 526.924 78.207 523.627 77.0303C520.329 75.877 517.85 74.0413 516.188 71.5231C514.527 69.0048 513.722 65.8511 513.773 62.062V10.4496ZM566.53 98C564.102 98 561.789 97.8235 559.591 97.4705C557.392 97.141 555.463 96.682 553.801 96.0937L558.402 82.255C560.14 82.8199 561.738 83.1847 563.195 83.3494C564.626 83.5142 565.866 83.42 566.914 83.067C567.936 82.714 568.677 82.0432 569.138 81.0548L569.598 80.0663L548.893 23.4409H570.978L580.487 61.0029H581.1L590.762 23.4409H613L591.529 82.1844C590.455 85.1734 588.909 87.8564 586.89 90.2334C584.845 92.634 582.174 94.5286 578.876 95.9171C575.579 97.3057 571.464 98 566.53 98Z" fill="url(#paint1_linear_187_18)"/>
<path d="M30.5196 78.6542C24.1294 78.6542 18.6594 77.4774 14.1096 75.1239C9.55975 72.7939 6.0707 69.5226 3.64242 65.3098C1.21414 61.1206 0 56.2488 0 50.6945C0 45.1403 1.21414 40.2567 3.64242 36.044C6.0707 31.8547 9.55975 28.5833 14.1096 26.2298C18.6594 23.8999 24.1294 22.7349 30.5196 22.7349C36.2964 22.7349 41.3063 23.688 45.5494 25.5944C49.7669 27.5243 53.0387 30.2308 55.3648 33.714C57.6908 37.2207 58.8666 41.3276 58.8922 46.0346H39.2614C38.9803 43.1868 38.0984 41.0099 36.6159 39.5036C35.1078 38.0209 33.178 37.2795 30.8264 37.2795C28.986 37.2795 27.3757 37.762 25.9954 38.727C24.6151 39.7154 23.5415 41.1864 22.7747 43.1398C22.0079 45.1167 21.6245 47.5879 21.6245 50.5533C21.6245 53.5187 22.0079 55.9782 22.7747 57.9316C23.5415 59.9085 24.6151 61.3794 25.9954 62.3444C27.3757 63.3329 28.986 63.8271 30.8264 63.8271C32.3856 63.8271 33.7659 63.4858 34.9672 62.8033C36.1686 62.1443 37.1527 61.1559 37.9195 59.8379C38.6608 58.5435 39.1081 56.9549 39.2614 55.0721H58.8922C58.8155 59.8497 57.6269 64.0036 55.3264 67.5339C53.026 71.0877 49.7797 73.8295 45.5878 75.7594C41.3702 77.6892 36.3475 78.6542 30.5196 78.6542ZM96.0065 78.6542C89.6163 78.6542 84.1463 77.4774 79.5964 75.1239C75.0466 72.7939 71.5576 69.5226 69.1293 65.3098C66.701 61.1206 65.4869 56.2488 65.4869 50.6945C65.4869 45.1403 66.701 40.2567 69.1293 36.044C71.5576 31.8547 75.0466 28.5833 79.5964 26.2298C84.1463 23.8999 89.6163 22.7349 96.0065 22.7349C102.397 22.7349 107.867 23.8999 112.417 26.2298C116.966 28.5833 120.455 31.8547 122.884 36.044C125.312 40.2567 126.526 45.1403 126.526 50.6945C126.526 56.2488 125.312 61.1206 122.884 65.3098C120.455 69.5226 116.966 72.7939 112.417 75.1239C107.867 77.4774 102.397 78.6542 96.0065 78.6542ZM96.1599 64.2507C97.9491 64.2507 99.4955 63.6976 100.799 62.5915C102.103 61.4854 103.112 59.9085 103.828 57.861C104.544 55.8134 104.902 53.3775 104.902 50.5533C104.902 47.7056 104.544 45.2579 103.828 43.2104C103.112 41.1864 102.103 39.6213 100.799 38.5151C99.4955 37.409 97.9491 36.8559 96.1599 36.8559C94.2684 36.8559 92.6453 37.409 91.2905 38.5151C89.9358 39.6213 88.9006 41.1864 88.1849 43.2104C87.4692 45.2579 87.1113 47.7056 87.1113 50.5533C87.1113 53.3775 87.4692 55.8134 88.1849 57.861C88.9006 59.9085 89.9358 61.4854 91.2905 62.5915C92.6453 63.6976 94.2684 64.2507 96.1599 64.2507ZM135.115 77.6657V23.4409H155.205V33.7493H155.819C157.046 30.3602 159.142 27.6772 162.107 25.7003C165.072 23.7233 168.599 22.7349 172.689 22.7349C176.83 22.7349 180.396 23.7351 183.386 25.7356C186.377 27.7596 188.179 30.4308 188.792 33.7493H189.406C190.403 30.4308 192.524 27.7596 195.77 25.7356C199.017 23.7351 202.825 22.7349 207.196 22.7349C212.845 22.7349 217.433 24.4059 220.961 27.7478C224.463 31.0898 226.213 35.5379 226.213 41.0922V77.6657H205.049V46.0346C205.049 43.6575 204.397 41.7865 203.094 40.4215C201.79 39.08 200.039 38.4092 197.841 38.4092C195.668 38.4092 193.956 39.08 192.703 40.4215C191.425 41.7865 190.786 43.6575 190.786 46.0346V77.6657H170.542V46.0346C170.542 43.6575 169.89 41.7865 168.586 40.4215C167.283 39.08 165.532 38.4092 163.334 38.4092C161.877 38.4092 160.624 38.7152 159.576 39.3271C158.528 39.939 157.723 40.8098 157.161 41.9395C156.573 43.0927 156.279 44.4577 156.279 46.0346V77.6657H135.115ZM236.642 77.6657V23.4409H256.733V33.7493H257.346C258.573 30.3602 260.669 27.6772 263.634 25.7003C266.6 23.7233 270.127 22.7349 274.217 22.7349C278.358 22.7349 281.923 23.7351 284.914 25.7356C287.904 27.7596 289.707 30.4308 290.32 33.7493H290.933C291.93 30.4308 294.052 27.7596 297.298 25.7356C300.544 23.7351 304.353 22.7349 308.724 22.7349C314.373 22.7349 318.961 24.4059 322.488 27.7478C325.99 31.0898 327.741 35.5379 327.741 41.0922V77.6657H306.577V46.0346C306.577 43.6575 305.925 41.7865 304.621 40.4215C303.318 39.08 301.567 38.4092 299.369 38.4092C297.196 38.4092 295.483 39.08 294.231 40.4215C292.953 41.7865 292.314 43.6575 292.314 46.0346V77.6657H272.07V46.0346C272.07 43.6575 271.418 41.7865 270.114 40.4215C268.811 39.08 267.06 38.4092 264.861 38.4092C263.404 38.4092 262.152 38.7152 261.104 39.3271C260.056 39.939 259.251 40.8098 258.688 41.9395C258.101 43.0927 257.807 44.4577 257.807 46.0346V77.6657H236.642ZM376.358 53.9424V23.4409H397.522V77.6657H377.431V67.3574H376.818C375.54 70.817 373.303 73.5118 370.108 75.4416C366.913 77.3951 363.117 78.3718 358.721 78.3718C354.605 78.3718 351.014 77.501 347.947 75.7594C344.854 74.0178 342.464 71.6172 340.777 68.5576C339.064 65.4981 338.195 61.9914 338.17 58.0375V23.4409H359.334V53.9424C359.36 56.6254 360.114 58.7318 361.596 60.2615C363.053 61.7913 365.111 62.5562 367.769 62.5562C369.533 62.5562 371.067 62.2032 372.37 61.4971C373.648 60.8146 374.645 59.8261 375.361 58.5317C376.051 57.2608 376.383 55.731 376.358 53.9424ZM429.422 47.1643V77.6657H408.258V23.4409H428.348V33.7493H428.962C430.24 30.3132 432.502 27.6184 435.748 25.665C438.969 23.7116 442.739 22.7349 447.059 22.7349C451.225 22.7349 454.855 23.6057 457.948 25.3473C461.015 27.1124 463.405 29.5247 465.118 32.5843C466.805 35.6439 467.636 39.1388 467.61 43.0692V77.6657H446.446V47.1643C446.471 44.4813 445.743 42.3749 444.26 40.8451C442.752 39.3153 440.669 38.5504 438.011 38.5504C436.272 38.5504 434.764 38.8917 433.486 39.5742C432.183 40.2803 431.186 41.2687 430.496 42.5396C429.806 43.8341 429.448 45.3756 429.422 47.1643ZM478.039 77.6657V23.4409H499.203V77.6657H478.039ZM488.659 17.7925C485.771 17.7925 483.304 16.9217 481.259 15.1801C479.215 13.4385 478.192 11.3439 478.192 8.89626C478.192 6.44862 479.215 4.35399 481.259 2.6124C483.304 0.870803 485.758 1.3113e-06 488.621 1.3113e-06C491.509 1.3113e-06 493.976 0.870803 496.021 2.6124C498.04 4.35399 499.05 6.44862 499.05 8.89626C499.05 11.3439 498.04 13.4385 496.021 15.1801C493.976 16.9217 491.522 17.7925 488.659 17.7925ZM545.059 23.4409V37.562H506.258V23.4409H545.059ZM513.773 10.4496H534.937V60.2262C534.937 60.9794 535.078 61.603 535.359 62.0973C535.64 62.615 536.075 62.9916 536.663 63.2269C537.25 63.4858 538.005 63.6153 538.925 63.6153C539.564 63.6153 540.318 63.5447 541.187 63.4035C542.03 63.2623 542.657 63.1446 543.066 63.0504L546.133 76.7478C545.187 77.0067 543.845 77.3244 542.107 77.701C540.343 78.0776 538.26 78.3247 535.857 78.4424C531.001 78.6777 526.924 78.207 523.627 77.0303C520.329 75.877 517.85 74.0413 516.188 71.5231C514.527 69.0048 513.722 65.8511 513.773 62.062V10.4496ZM566.53 98C564.102 98 561.789 97.8235 559.591 97.4705C557.392 97.141 555.463 96.682 553.801 96.0937L558.402 82.255C560.14 82.8199 561.738 83.1847 563.195 83.3494C564.626 83.5142 565.866 83.42 566.914 83.067C567.936 82.714 568.677 82.0432 569.138 81.0548L569.598 80.0663L548.893 23.4409H570.978L580.487 61.0029H581.1L590.762 23.4409H613L591.529 82.1844C590.455 85.1734 588.909 87.8564 586.89 90.2334C584.845 92.634 582.174 94.5286 578.876 95.9171C575.579 97.3057 571.464 98 566.53 98Z" fill="url(#paint2_linear_187_18)"/>
<path d="M30.5196 78.6542C24.1294 78.6542 18.6594 77.4774 14.1096 75.1239C9.55975 72.7939 6.0707 69.5226 3.64242 65.3098C1.21414 61.1206 0 56.2488 0 50.6945C0 45.1403 1.21414 40.2567 3.64242 36.044C6.0707 31.8547 9.55975 28.5833 14.1096 26.2298C18.6594 23.8999 24.1294 22.7349 30.5196 22.7349C36.2964 22.7349 41.3063 23.688 45.5494 25.5944C49.7669 27.5243 53.0387 30.2308 55.3648 33.714C57.6908 37.2207 58.8666 41.3276 58.8922 46.0346H39.2614C38.9803 43.1868 38.0984 41.0099 36.6159 39.5036C35.1078 38.0209 33.178 37.2795 30.8264 37.2795C28.986 37.2795 27.3757 37.762 25.9954 38.727C24.6151 39.7154 23.5415 41.1864 22.7747 43.1398C22.0079 45.1167 21.6245 47.5879 21.6245 50.5533C21.6245 53.5187 22.0079 55.9782 22.7747 57.9316C23.5415 59.9085 24.6151 61.3794 25.9954 62.3444C27.3757 63.3329 28.986 63.8271 30.8264 63.8271C32.3856 63.8271 33.7659 63.4858 34.9672 62.8033C36.1686 62.1443 37.1527 61.1559 37.9195 59.8379C38.6608 58.5435 39.1081 56.9549 39.2614 55.0721H58.8922C58.8155 59.8497 57.6269 64.0036 55.3264 67.5339C53.026 71.0877 49.7797 73.8295 45.5878 75.7594C41.3702 77.6892 36.3475 78.6542 30.5196 78.6542ZM96.0065 78.6542C89.6163 78.6542 84.1463 77.4774 79.5964 75.1239C75.0466 72.7939 71.5576 69.5226 69.1293 65.3098C66.701 61.1206 65.4869 56.2488 65.4869 50.6945C65.4869 45.1403 66.701 40.2567 69.1293 36.044C71.5576 31.8547 75.0466 28.5833 79.5964 26.2298C84.1463 23.8999 89.6163 22.7349 96.0065 22.7349C102.397 22.7349 107.867 23.8999 112.417 26.2298C116.966 28.5833 120.455 31.8547 122.884 36.044C125.312 40.2567 126.526 45.1403 126.526 50.6945C126.526 56.2488 125.312 61.1206 122.884 65.3098C120.455 69.5226 116.966 72.7939 112.417 75.1239C107.867 77.4774 102.397 78.6542 96.0065 78.6542ZM96.1599 64.2507C97.9491 64.2507 99.4955 63.6976 100.799 62.5915C102.103 61.4854 103.112 59.9085 103.828 57.861C104.544 55.8134 104.902 53.3775 104.902 50.5533C104.902 47.7056 104.544 45.2579 103.828 43.2104C103.112 41.1864 102.103 39.6213 100.799 38.5151C99.4955 37.409 97.9491 36.8559 96.1599 36.8559C94.2684 36.8559 92.6453 37.409 91.2905 38.5151C89.9358 39.6213 88.9006 41.1864 88.1849 43.2104C87.4692 45.2579 87.1113 47.7056 87.1113 50.5533C87.1113 53.3775 87.4692 55.8134 88.1849 57.861C88.9006 59.9085 89.9358 61.4854 91.2905 62.5915C92.6453 63.6976 94.2684 64.2507 96.1599 64.2507ZM135.115 77.6657V23.4409H155.205V33.7493H155.819C157.046 30.3602 159.142 27.6772 162.107 25.7003C165.072 23.7233 168.599 22.7349 172.689 22.7349C176.83 22.7349 180.396 23.7351 183.386 25.7356C186.377 27.7596 188.179 30.4308 188.792 33.7493H189.406C190.403 30.4308 192.524 27.7596 195.77 25.7356C199.017 23.7351 202.825 22.7349 207.196 22.7349C212.845 22.7349 217.433 24.4059 220.961 27.7478C224.463 31.0898 226.213 35.5379 226.213 41.0922V77.6657H205.049V46.0346C205.049 43.6575 204.397 41.7865 203.094 40.4215C201.79 39.08 200.039 38.4092 197.841 38.4092C195.668 38.4092 193.956 39.08 192.703 40.4215C191.425 41.7865 190.786 43.6575 190.786 46.0346V77.6657H170.542V46.0346C170.542 43.6575 169.89 41.7865 168.586 40.4215C167.283 39.08 165.532 38.4092 163.334 38.4092C161.877 38.4092 160.624 38.7152 159.576 39.3271C158.528 39.939 157.723 40.8098 157.161 41.9395C156.573 43.0927 156.279 44.4577 156.279 46.0346V77.6657H135.115ZM236.642 77.6657V23.4409H256.733V33.7493H257.346C258.573 30.3602 260.669 27.6772 263.634 25.7003C266.6 23.7233 270.127 22.7349 274.217 22.7349C278.358 22.7349 281.923 23.7351 284.914 25.7356C287.904 27.7596 289.707 30.4308 290.32 33.7493H290.933C291.93 30.4308 294.052 27.7596 297.298 25.7356C300.544 23.7351 304.353 22.7349 308.724 22.7349C314.373 22.7349 318.961 24.4059 322.488 27.7478C325.99 31.0898 327.741 35.5379 327.741 41.0922V77.6657H306.577V46.0346C306.577 43.6575 305.925 41.7865 304.621 40.4215C303.318 39.08 301.567 38.4092 299.369 38.4092C297.196 38.4092 295.483 39.08 294.231 40.4215C292.953 41.7865 292.314 43.6575 292.314 46.0346V77.6657H272.07V46.0346C272.07 43.6575 271.418 41.7865 270.114 40.4215C268.811 39.08 267.06 38.4092 264.861 38.4092C263.404 38.4092 262.152 38.7152 261.104 39.3271C260.056 39.939 259.251 40.8098 258.688 41.9395C258.101 43.0927 257.807 44.4577 257.807 46.0346V77.6657H236.642ZM376.358 53.9424V23.4409H397.522V77.6657H377.431V67.3574H376.818C375.54 70.817 373.303 73.5118 370.108 75.4416C366.913 77.3951 363.117 78.3718 358.721 78.3718C354.605 78.3718 351.014 77.501 347.947 75.7594C344.854 74.0178 342.464 71.6172 340.777 68.5576C339.064 65.4981 338.195 61.9914 338.17 58.0375V23.4409H359.334V53.9424C359.36 56.6254 360.114 58.7318 361.596 60.2615C363.053 61.7913 365.111 62.5562 367.769 62.5562C369.533 62.5562 371.067 62.2032 372.37 61.4971C373.648 60.8146 374.645 59.8261 375.361 58.5317C376.051 57.2608 376.383 55.731 376.358 53.9424ZM429.422 47.1643V77.6657H408.258V23.4409H428.348V33.7493H428.962C430.24 30.3132 432.502 27.6184 435.748 25.665C438.969 23.7116 442.739 22.7349 447.059 22.7349C451.225 22.7349 454.855 23.6057 457.948 25.3473C461.015 27.1124 463.405 29.5247 465.118 32.5843C466.805 35.6439 467.636 39.1388 467.61 43.0692V77.6657H446.446V47.1643C446.471 44.4813 445.743 42.3749 444.26 40.8451C442.752 39.3153 440.669 38.5504 438.011 38.5504C436.272 38.5504 434.764 38.8917 433.486 39.5742C432.183 40.2803 431.186 41.2687 430.496 42.5396C429.806 43.8341 429.448 45.3756 429.422 47.1643ZM478.039 77.6657V23.4409H499.203V77.6657H478.039ZM488.659 17.7925C485.771 17.7925 483.304 16.9217 481.259 15.1801C479.215 13.4385 478.192 11.3439 478.192 8.89626C478.192 6.44862 479.215 4.35399 481.259 2.6124C483.304 0.870803 485.758 1.3113e-06 488.621 1.3113e-06C491.509 1.3113e-06 493.976 0.870803 496.021 2.6124C498.04 4.35399 499.05 6.44862 499.05 8.89626C499.05 11.3439 498.04 13.4385 496.021 15.1801C493.976 16.9217 491.522 17.7925 488.659 17.7925ZM545.059 23.4409V37.562H506.258V23.4409H545.059ZM513.773 10.4496H534.937V60.2262C534.937 60.9794 535.078 61.603 535.359 62.0973C535.64 62.615 536.075 62.9916 536.663 63.2269C537.25 63.4858 538.005 63.6153 538.925 63.6153C539.564 63.6153 540.318 63.5447 541.187 63.4035C542.03 63.2623 542.657 63.1446 543.066 63.0504L546.133 76.7478C545.187 77.0067 543.845 77.3244 542.107 77.701C540.343 78.0776 538.26 78.3247 535.857 78.4424C531.001 78.6777 526.924 78.207 523.627 77.0303C520.329 75.877 517.85 74.0413 516.188 71.5231C514.527 69.0048 513.722 65.8511 513.773 62.062V10.4496ZM566.53 98C564.102 98 561.789 97.8235 559.591 97.4705C557.392 97.141 555.463 96.682 553.801 96.0937L558.402 82.255C560.14 82.8199 561.738 83.1847 563.195 83.3494C564.626 83.5142 565.866 83.42 566.914 83.067C567.936 82.714 568.677 82.0432 569.138 81.0548L569.598 80.0663L548.893 23.4409H570.978L580.487 61.0029H581.1L590.762 23.4409H613L591.529 82.1844C590.455 85.1734 588.909 87.8564 586.89 90.2334C584.845 92.634 582.174 94.5286 578.876 95.9171C575.579 97.3057 571.464 98 566.53 98Z" fill="url(#paint3_linear_187_18)"/>
<path d="M30.5196 78.6542C24.1294 78.6542 18.6594 77.4774 14.1096 75.1239C9.55975 72.7939 6.0707 69.5226 3.64242 65.3098C1.21414 61.1206 0 56.2488 0 50.6945C0 45.1403 1.21414 40.2567 3.64242 36.044C6.0707 31.8547 9.55975 28.5833 14.1096 26.2298C18.6594 23.8999 24.1294 22.7349 30.5196 22.7349C36.2964 22.7349 41.3063 23.688 45.5494 25.5944C49.7669 27.5243 53.0387 30.2308 55.3648 33.714C57.6908 37.2207 58.8666 41.3276 58.8922 46.0346H39.2614C38.9803 43.1868 38.0984 41.0099 36.6159 39.5036C35.1078 38.0209 33.178 37.2795 30.8264 37.2795C28.986 37.2795 27.3757 37.762 25.9954 38.727C24.6151 39.7154 23.5415 41.1864 22.7747 43.1398C22.0079 45.1167 21.6245 47.5879 21.6245 50.5533C21.6245 53.5187 22.0079 55.9782 22.7747 57.9316C23.5415 59.9085 24.6151 61.3794 25.9954 62.3444C27.3757 63.3329 28.986 63.8271 30.8264 63.8271C32.3856 63.8271 33.7659 63.4858 34.9672 62.8033C36.1686 62.1443 37.1527 61.1559 37.9195 59.8379C38.6608 58.5435 39.1081 56.9549 39.2614 55.0721H58.8922C58.8155 59.8497 57.6269 64.0036 55.3264 67.5339C53.026 71.0877 49.7797 73.8295 45.5878 75.7594C41.3702 77.6892 36.3475 78.6542 30.5196 78.6542ZM96.0065 78.6542C89.6163 78.6542 84.1463 77.4774 79.5964 75.1239C75.0466 72.7939 71.5576 69.5226 69.1293 65.3098C66.701 61.1206 65.4869 56.2488 65.4869 50.6945C65.4869 45.1403 66.701 40.2567 69.1293 36.044C71.5576 31.8547 75.0466 28.5833 79.5964 26.2298C84.1463 23.8999 89.6163 22.7349 96.0065 22.7349C102.397 22.7349 107.867 23.8999 112.417 26.2298C116.966 28.5833 120.455 31.8547 122.884 36.044C125.312 40.2567 126.526 45.1403 126.526 50.6945C126.526 56.2488 125.312 61.1206 122.884 65.3098C120.455 69.5226 116.966 72.7939 112.417 75.1239C107.867 77.4774 102.397 78.6542 96.0065 78.6542ZM96.1599 64.2507C97.9491 64.2507 99.4955 63.6976 100.799 62.5915C102.103 61.4854 103.112 59.9085 103.828 57.861C104.544 55.8134 104.902 53.3775 104.902 50.5533C104.902 47.7056 104.544 45.2579 103.828 43.2104C103.112 41.1864 102.103 39.6213 100.799 38.5151C99.4955 37.409 97.9491 36.8559 96.1599 36.8559C94.2684 36.8559 92.6453 37.409 91.2905 38.5151C89.9358 39.6213 88.9006 41.1864 88.1849 43.2104C87.4692 45.2579 87.1113 47.7056 87.1113 50.5533C87.1113 53.3775 87.4692 55.8134 88.1849 57.861C88.9006 59.9085 89.9358 61.4854 91.2905 62.5915C92.6453 63.6976 94.2684 64.2507 96.1599 64.2507ZM135.115 77.6657V23.4409H155.205V33.7493H155.819C157.046 30.3602 159.142 27.6772 162.107 25.7003C165.072 23.7233 168.599 22.7349 172.689 22.7349C176.83 22.7349 180.396 23.7351 183.386 25.7356C186.377 27.7596 188.179 30.4308 188.792 33.7493H189.406C190.403 30.4308 192.524 27.7596 195.77 25.7356C199.017 23.7351 202.825 22.7349 207.196 22.7349C212.845 22.7349 217.433 24.4059 220.961 27.7478C224.463 31.0898 226.213 35.5379 226.213 41.0922V77.6657H205.049V46.0346C205.049 43.6575 204.397 41.7865 203.094 40.4215C201.79 39.08 200.039 38.4092 197.841 38.4092C195.668 38.4092 193.956 39.08 192.703 40.4215C191.425 41.7865 190.786 43.6575 190.786 46.0346V77.6657H170.542V46.0346C170.542 43.6575 169.89 41.7865 168.586 40.4215C167.283 39.08 165.532 38.4092 163.334 38.4092C161.877 38.4092 160.624 38.7152 159.576 39.3271C158.528 39.939 157.723 40.8098 157.161 41.9395C156.573 43.0927 156.279 44.4577 156.279 46.0346V77.6657H135.115ZM236.642 77.6657V23.4409H256.733V33.7493H257.346C258.573 30.3602 260.669 27.6772 263.634 25.7003C266.6 23.7233 270.127 22.7349 274.217 22.7349C278.358 22.7349 281.923 23.7351 284.914 25.7356C287.904 27.7596 289.707 30.4308 290.32 33.7493H290.933C291.93 30.4308 294.052 27.7596 297.298 25.7356C300.544 23.7351 304.353 22.7349 308.724 22.7349C314.373 22.7349 318.961 24.4059 322.488 27.7478C325.99 31.0898 327.741 35.5379 327.741 41.0922V77.6657H306.577V46.0346C306.577 43.6575 305.925 41.7865 304.621 40.4215C303.318 39.08 301.567 38.4092 299.369 38.4092C297.196 38.4092 295.483 39.08 294.231 40.4215C292.953 41.7865 292.314 43.6575 292.314 46.0346V77.6657H272.07V46.0346C272.07 43.6575 271.418 41.7865 270.114 40.4215C268.811 39.08 267.06 38.4092 264.861 38.4092C263.404 38.4092 262.152 38.7152 261.104 39.3271C260.056 39.939 259.251 40.8098 258.688 41.9395C258.101 43.0927 257.807 44.4577 257.807 46.0346V77.6657H236.642ZM376.358 53.9424V23.4409H397.522V77.6657H377.431V67.3574H376.818C375.54 70.817 373.303 73.5118 370.108 75.4416C366.913 77.3951 363.117 78.3718 358.721 78.3718C354.605 78.3718 351.014 77.501 347.947 75.7594C344.854 74.0178 342.464 71.6172 340.777 68.5576C339.064 65.4981 338.195 61.9914 338.17 58.0375V23.4409H359.334V53.9424C359.36 56.6254 360.114 58.7318 361.596 60.2615C363.053 61.7913 365.111 62.5562 367.769 62.5562C369.533 62.5562 371.067 62.2032 372.37 61.4971C373.648 60.8146 374.645 59.8261 375.361 58.5317C376.051 57.2608 376.383 55.731 376.358 53.9424ZM429.422 47.1643V77.6657H408.258V23.4409H428.348V33.7493H428.962C430.24 30.3132 432.502 27.6184 435.748 25.665C438.969 23.7116 442.739 22.7349 447.059 22.7349C451.225 22.7349 454.855 23.6057 457.948 25.3473C461.015 27.1124 463.405 29.5247 465.118 32.5843C466.805 35.6439 467.636 39.1388 467.61 43.0692V77.6657H446.446V47.1643C446.471 44.4813 445.743 42.3749 444.26 40.8451C442.752 39.3153 440.669 38.5504 438.011 38.5504C436.272 38.5504 434.764 38.8917 433.486 39.5742C432.183 40.2803 431.186 41.2687 430.496 42.5396C429.806 43.8341 429.448 45.3756 429.422 47.1643ZM478.039 77.6657V23.4409H499.203V77.6657H478.039ZM488.659 17.7925C485.771 17.7925 483.304 16.9217 481.259 15.1801C479.215 13.4385 478.192 11.3439 478.192 8.89626C478.192 6.44862 479.215 4.35399 481.259 2.6124C483.304 0.870803 485.758 1.3113e-06 488.621 1.3113e-06C491.509 1.3113e-06 493.976 0.870803 496.021 2.6124C498.04 4.35399 499.05 6.44862 499.05 8.89626C499.05 11.3439 498.04 13.4385 496.021 15.1801C493.976 16.9217 491.522 17.7925 488.659 17.7925ZM545.059 23.4409V37.562H506.258V23.4409H545.059ZM513.773 10.4496H534.937V60.2262C534.937 60.9794 535.078 61.603 535.359 62.0973C535.64 62.615 536.075 62.9916 536.663 63.2269C537.25 63.4858 538.005 63.6153 538.925 63.6153C539.564 63.6153 540.318 63.5447 541.187 63.4035C542.03 63.2623 542.657 63.1446 543.066 63.0504L546.133 76.7478C545.187 77.0067 543.845 77.3244 542.107 77.701C540.343 78.0776 538.26 78.3247 535.857 78.4424C531.001 78.6777 526.924 78.207 523.627 77.0303C520.329 75.877 517.85 74.0413 516.188 71.5231C514.527 69.0048 513.722 65.8511 513.773 62.062V10.4496ZM566.53 98C564.102 98 561.789 97.8235 559.591 97.4705C557.392 97.141 555.463 96.682 553.801 96.0937L558.402 82.255C560.14 82.8199 561.738 83.1847 563.195 83.3494C564.626 83.5142 565.866 83.42 566.914 83.067C567.936 82.714 568.677 82.0432 569.138 81.0548L569.598 80.0663L548.893 23.4409H570.978L580.487 61.0029H581.1L590.762 23.4409H613L591.529 82.1844C590.455 85.1734 588.909 87.8564 586.89 90.2334C584.845 92.634 582.174 94.5286 578.876 95.9171C575.579 97.3057 571.464 98 566.53 98Z" fill="url(#paint4_linear_187_18)"/>
<path d="M30.5196 78.6542C24.1294 78.6542 18.6594 77.4774 14.1096 75.1239C9.55975 72.7939 6.0707 69.5226 3.64242 65.3098C1.21414 61.1206 0 56.2488 0 50.6945C0 45.1403 1.21414 40.2567 3.64242 36.044C6.0707 31.8547 9.55975 28.5833 14.1096 26.2298C18.6594 23.8999 24.1294 22.7349 30.5196 22.7349C36.2964 22.7349 41.3063 23.688 45.5494 25.5944C49.7669 27.5243 53.0387 30.2308 55.3648 33.714C57.6908 37.2207 58.8666 41.3276 58.8922 46.0346H39.2614C38.9803 43.1868 38.0984 41.0099 36.6159 39.5036C35.1078 38.0209 33.178 37.2795 30.8264 37.2795C28.986 37.2795 27.3757 37.762 25.9954 38.727C24.6151 39.7154 23.5415 41.1864 22.7747 43.1398C22.0079 45.1167 21.6245 47.5879 21.6245 50.5533C21.6245 53.5187 22.0079 55.9782 22.7747 57.9316C23.5415 59.9085 24.6151 61.3794 25.9954 62.3444C27.3757 63.3329 28.986 63.8271 30.8264 63.8271C32.3856 63.8271 33.7659 63.4858 34.9672 62.8033C36.1686 62.1443 37.1527 61.1559 37.9195 59.8379C38.6608 58.5435 39.1081 56.9549 39.2614 55.0721H58.8922C58.8155 59.8497 57.6269 64.0036 55.3264 67.5339C53.026 71.0877 49.7797 73.8295 45.5878 75.7594C41.3702 77.6892 36.3475 78.6542 30.5196 78.6542ZM96.0065 78.6542C89.6163 78.6542 84.1463 77.4774 79.5964 75.1239C75.0466 72.7939 71.5576 69.5226 69.1293 65.3098C66.701 61.1206 65.4869 56.2488 65.4869 50.6945C65.4869 45.1403 66.701 40.2567 69.1293 36.044C71.5576 31.8547 75.0466 28.5833 79.5964 26.2298C84.1463 23.8999 89.6163 22.7349 96.0065 22.7349C102.397 22.7349 107.867 23.8999 112.417 26.2298C116.966 28.5833 120.455 31.8547 122.884 36.044C125.312 40.2567 126.526 45.1403 126.526 50.6945C126.526 56.2488 125.312 61.1206 122.884 65.3098C120.455 69.5226 116.966 72.7939 112.417 75.1239C107.867 77.4774 102.397 78.6542 96.0065 78.6542ZM96.1599 64.2507C97.9491 64.2507 99.4955 63.6976 100.799 62.5915C102.103 61.4854 103.112 59.9085 103.828 57.861C104.544 55.8134 104.902 53.3775 104.902 50.5533C104.902 47.7056 104.544 45.2579 103.828 43.2104C103.112 41.1864 102.103 39.6213 100.799 38.5151C99.4955 37.409 97.9491 36.8559 96.1599 36.8559C94.2684 36.8559 92.6453 37.409 91.2905 38.5151C89.9358 39.6213 88.9006 41.1864 88.1849 43.2104C87.4692 45.2579 87.1113 47.7056 87.1113 50.5533C87.1113 53.3775 87.4692 55.8134 88.1849 57.861C88.9006 59.9085 89.9358 61.4854 91.2905 62.5915C92.6453 63.6976 94.2684 64.2507 96.1599 64.2507ZM135.115 77.6657V23.4409H155.205V33.7493H155.819C157.046 30.3602 159.142 27.6772 162.107 25.7003C165.072 23.7233 168.599 22.7349 172.689 22.7349C176.83 22.7349 180.396 23.7351 183.386 25.7356C186.377 27.7596 188.179 30.4308 188.792 33.7493H189.406C190.403 30.4308 192.524 27.7596 195.77 25.7356C199.017 23.7351 202.825 22.7349 207.196 22.7349C212.845 22.7349 217.433 24.4059 220.961 27.7478C224.463 31.0898 226.213 35.5379 226.213 41.0922V77.6657H205.049V46.0346C205.049 43.6575 204.397 41.7865 203.094 40.4215C201.79 39.08 200.039 38.4092 197.841 38.4092C195.668 38.4092 193.956 39.08 192.703 40.4215C191.425 41.7865 190.786 43.6575 190.786 46.0346V77.6657H170.542V46.0346C170.542 43.6575 169.89 41.7865 168.586 40.4215C167.283 39.08 165.532 38.4092 163.334 38.4092C161.877 38.4092 160.624 38.7152 159.576 39.3271C158.528 39.939 157.723 40.8098 157.161 41.9395C156.573 43.0927 156.279 44.4577 156.279 46.0346V77.6657H135.115ZM236.642 77.6657V23.4409H256.733V33.7493H257.346C258.573 30.3602 260.669 27.6772 263.634 25.7003C266.6 23.7233 270.127 22.7349 274.217 22.7349C278.358 22.7349 281.923 23.7351 284.914 25.7356C287.904 27.7596 289.707 30.4308 290.32 33.7493H290.933C291.93 30.4308 294.052 27.7596 297.298 25.7356C300.544 23.7351 304.353 22.7349 308.724 22.7349C314.373 22.7349 318.961 24.4059 322.488 27.7478C325.99 31.0898 327.741 35.5379 327.741 41.0922V77.6657H306.577V46.0346C306.577 43.6575 305.925 41.7865 304.621 40.4215C303.318 39.08 301.567 38.4092 299.369 38.4092C297.196 38.4092 295.483 39.08 294.231 40.4215C292.953 41.7865 292.314 43.6575 292.314 46.0346V77.6657H272.07V46.0346C272.07 43.6575 271.418 41.7865 270.114 40.4215C268.811 39.08 267.06 38.4092 264.861 38.4092C263.404 38.4092 262.152 38.7152 261.104 39.3271C260.056 39.939 259.251 40.8098 258.688 41.9395C258.101 43.0927 257.807 44.4577 257.807 46.0346V77.6657H236.642ZM376.358 53.9424V23.4409H397.522V77.6657H377.431V67.3574H376.818C375.54 70.817 373.303 73.5118 370.108 75.4416C366.913 77.3951 363.117 78.3718 358.721 78.3718C354.605 78.3718 351.014 77.501 347.947 75.7594C344.854 74.0178 342.464 71.6172 340.777 68.5576C339.064 65.4981 338.195 61.9914 338.17 58.0375V23.4409H359.334V53.9424C359.36 56.6254 360.114 58.7318 361.596 60.2615C363.053 61.7913 365.111 62.5562 367.769 62.5562C369.533 62.5562 371.067 62.2032 372.37 61.4971C373.648 60.8146 374.645 59.8261 375.361 58.5317C376.051 57.2608 376.383 55.731 376.358 53.9424ZM429.422 47.1643V77.6657H408.258V23.4409H428.348V33.7493H428.962C430.24 30.3132 432.502 27.6184 435.748 25.665C438.969 23.7116 442.739 22.7349 447.059 22.7349C451.225 22.7349 454.855 23.6057 457.948 25.3473C461.015 27.1124 463.405 29.5247 465.118 32.5843C466.805 35.6439 467.636 39.1388 467.61 43.0692V77.6657H446.446V47.1643C446.471 44.4813 445.743 42.3749 444.26 40.8451C442.752 39.3153 440.669 38.5504 438.011 38.5504C436.272 38.5504 434.764 38.8917 433.486 39.5742C432.183 40.2803 431.186 41.2687 430.496 42.5396C429.806 43.8341 429.448 45.3756 429.422 47.1643ZM478.039 77.6657V23.4409H499.203V77.6657H478.039ZM488.659 17.7925C485.771 17.7925 483.304 16.9217 481.259 15.1801C479.215 13.4385 478.192 11.3439 478.192 8.89626C478.192 6.44862 479.215 4.35399 481.259 2.6124C483.304 0.870803 485.758 1.3113e-06 488.621 1.3113e-06C491.509 1.3113e-06 493.976 0.870803 496.021 2.6124C498.04 4.35399 499.05 6.44862 499.05 8.89626C499.05 11.3439 498.04 13.4385 496.021 15.1801C493.976 16.9217 491.522 17.7925 488.659 17.7925ZM545.059 23.4409V37.562H506.258V23.4409H545.059ZM513.773 10.4496H534.937V60.2262C534.937 60.9794 535.078 61.603 535.359 62.0973C535.64 62.615 536.075 62.9916 536.663 63.2269C537.25 63.4858 538.005 63.6153 538.925 63.6153C539.564 63.6153 540.318 63.5447 541.187 63.4035C542.03 63.2623 542.657 63.1446 543.066 63.0504L546.133 76.7478C545.187 77.0067 543.845 77.3244 542.107 77.701C540.343 78.0776 538.26 78.3247 535.857 78.4424C531.001 78.6777 526.924 78.207 523.627 77.0303C520.329 75.877 517.85 74.0413 516.188 71.5231C514.527 69.0048 513.722 65.8511 513.773 62.062V10.4496ZM566.53 98C564.102 98 561.789 97.8235 559.591 97.4705C557.392 97.141 555.463 96.682 553.801 96.0937L558.402 82.255C560.14 82.8199 561.738 83.1847 563.195 83.3494C564.626 83.5142 565.866 83.42 566.914 83.067C567.936 82.714 568.677 82.0432 569.138 81.0548L569.598 80.0663L548.893 23.4409H570.978L580.487 61.0029H581.1L590.762 23.4409H613L591.529 82.1844C590.455 85.1734 588.909 87.8564 586.89 90.2334C584.845 92.634 582.174 94.5286 578.876 95.9171C575.579 97.3057 571.464 98 566.53 98Z" fill="url(#paint5_linear_187_18)"/>
<path d="M30.5196 78.6542C24.1294 78.6542 18.6594 77.4774 14.1096 75.1239C9.55975 72.7939 6.0707 69.5226 3.64242 65.3098C1.21414 61.1206 0 56.2488 0 50.6945C0 45.1403 1.21414 40.2567 3.64242 36.044C6.0707 31.8547 9.55975 28.5833 14.1096 26.2298C18.6594 23.8999 24.1294 22.7349 30.5196 22.7349C36.2964 22.7349 41.3063 23.688 45.5494 25.5944C49.7669 27.5243 53.0387 30.2308 55.3648 33.714C57.6908 37.2207 58.8666 41.3276 58.8922 46.0346H39.2614C38.9803 43.1868 38.0984 41.0099 36.6159 39.5036C35.1078 38.0209 33.178 37.2795 30.8264 37.2795C28.986 37.2795 27.3757 37.762 25.9954 38.727C24.6151 39.7154 23.5415 41.1864 22.7747 43.1398C22.0079 45.1167 21.6245 47.5879 21.6245 50.5533C21.6245 53.5187 22.0079 55.9782 22.7747 57.9316C23.5415 59.9085 24.6151 61.3794 25.9954 62.3444C27.3757 63.3329 28.986 63.8271 30.8264 63.8271C32.3856 63.8271 33.7659 63.4858 34.9672 62.8033C36.1686 62.1443 37.1527 61.1559 37.9195 59.8379C38.6608 58.5435 39.1081 56.9549 39.2614 55.0721H58.8922C58.8155 59.8497 57.6269 64.0036 55.3264 67.5339C53.026 71.0877 49.7797 73.8295 45.5878 75.7594C41.3702 77.6892 36.3475 78.6542 30.5196 78.6542ZM96.0065 78.6542C89.6163 78.6542 84.1463 77.4774 79.5964 75.1239C75.0466 72.7939 71.5576 69.5226 69.1293 65.3098C66.701 61.1206 65.4869 56.2488 65.4869 50.6945C65.4869 45.1403 66.701 40.2567 69.1293 36.044C71.5576 31.8547 75.0466 28.5833 79.5964 26.2298C84.1463 23.8999 89.6163 22.7349 96.0065 22.7349C102.397 22.7349 107.867 23.8999 112.417 26.2298C116.966 28.5833 120.455 31.8547 122.884 36.044C125.312 40.2567 126.526 45.1403 126.526 50.6945C126.526 56.2488 125.312 61.1206 122.884 65.3098C120.455 69.5226 116.966 72.7939 112.417 75.1239C107.867 77.4774 102.397 78.6542 96.0065 78.6542ZM96.1599 64.2507C97.9491 64.2507 99.4955 63.6976 100.799 62.5915C102.103 61.4854 103.112 59.9085 103.828 57.861C104.544 55.8134 104.902 53.3775 104.902 50.5533C104.902 47.7056 104.544 45.2579 103.828 43.2104C103.112 41.1864 102.103 39.6213 100.799 38.5151C99.4955 37.409 97.9491 36.8559 96.1599 36.8559C94.2684 36.8559 92.6453 37.409 91.2905 38.5151C89.9358 39.6213 88.9006 41.1864 88.1849 43.2104C87.4692 45.2579 87.1113 47.7056 87.1113 50.5533C87.1113 53.3775 87.4692 55.8134 88.1849 57.861C88.9006 59.9085 89.9358 61.4854 91.2905 62.5915C92.6453 63.6976 94.2684 64.2507 96.1599 64.2507ZM135.115 77.6657V23.4409H155.205V33.7493H155.819C157.046 30.3602 159.142 27.6772 162.107 25.7003C165.072 23.7233 168.599 22.7349 172.689 22.7349C176.83 22.7349 180.396 23.7351 183.386 25.7356C186.377 27.7596 188.179 30.4308 188.792 33.7493H189.406C190.403 30.4308 192.524 27.7596 195.77 25.7356C199.017 23.7351 202.825 22.7349 207.196 22.7349C212.845 22.7349 217.433 24.4059 220.961 27.7478C224.463 31.0898 226.213 35.5379 226.213 41.0922V77.6657H205.049V46.0346C205.049 43.6575 204.397 41.7865 203.094 40.4215C201.79 39.08 200.039 38.4092 197.841 38.4092C195.668 38.4092 193.956 39.08 192.703 40.4215C191.425 41.7865 190.786 43.6575 190.786 46.0346V77.6657H170.542V46.0346C170.542 43.6575 169.89 41.7865 168.586 40.4215C167.283 39.08 165.532 38.4092 163.334 38.4092C161.877 38.4092 160.624 38.7152 159.576 39.3271C158.528 39.939 157.723 40.8098 157.161 41.9395C156.573 43.0927 156.279 44.4577 156.279 46.0346V77.6657H135.115ZM236.642 77.6657V23.4409H256.733V33.7493H257.346C258.573 30.3602 260.669 27.6772 263.634 25.7003C266.6 23.7233 270.127 22.7349 274.217 22.7349C278.358 22.7349 281.923 23.7351 284.914 25.7356C287.904 27.7596 289.707 30.4308 290.32 33.7493H290.933C291.93 30.4308 294.052 27.7596 297.298 25.7356C300.544 23.7351 304.353 22.7349 308.724 22.7349C314.373 22.7349 318.961 24.4059 322.488 27.7478C325.99 31.0898 327.741 35.5379 327.741 41.0922V77.6657H306.577V46.0346C306.577 43.6575 305.925 41.7865 304.621 40.4215C303.318 39.08 301.567 38.4092 299.369 38.4092C297.196 38.4092 295.483 39.08 294.231 40.4215C292.953 41.7865 292.314 43.6575 292.314 46.0346V77.6657H272.07V46.0346C272.07 43.6575 271.418 41.7865 270.114 40.4215C268.811 39.08 267.06 38.4092 264.861 38.4092C263.404 38.4092 262.152 38.7152 261.104 39.3271C260.056 39.939 259.251 40.8098 258.688 41.9395C258.101 43.0927 257.807 44.4577 257.807 46.0346V77.6657H236.642ZM376.358 53.9424V23.4409H397.522V77.6657H377.431V67.3574H376.818C375.54 70.817 373.303 73.5118 370.108 75.4416C366.913 77.3951 363.117 78.3718 358.721 78.3718C354.605 78.3718 351.014 77.501 347.947 75.7594C344.854 74.0178 342.464 71.6172 340.777 68.5576C339.064 65.4981 338.195 61.9914 338.17 58.0375V23.4409H359.334V53.9424C359.36 56.6254 360.114 58.7318 361.596 60.2615C363.053 61.7913 365.111 62.5562 367.769 62.5562C369.533 62.5562 371.067 62.2032 372.37 61.4971C373.648 60.8146 374.645 59.8261 375.361 58.5317C376.051 57.2608 376.383 55.731 376.358 53.9424ZM429.422 47.1643V77.6657H408.258V23.4409H428.348V33.7493H428.962C430.24 30.3132 432.502 27.6184 435.748 25.665C438.969 23.7116 442.739 22.7349 447.059 22.7349C451.225 22.7349 454.855 23.6057 457.948 25.3473C461.015 27.1124 463.405 29.5247 465.118 32.5843C466.805 35.6439 467.636 39.1388 467.61 43.0692V77.6657H446.446V47.1643C446.471 44.4813 445.743 42.3749 444.26 40.8451C442.752 39.3153 440.669 38.5504 438.011 38.5504C436.272 38.5504 434.764 38.8917 433.486 39.5742C432.183 40.2803 431.186 41.2687 430.496 42.5396C429.806 43.8341 429.448 45.3756 429.422 47.1643ZM478.039 77.6657V23.4409H499.203V77.6657H478.039ZM488.659 17.7925C485.771 17.7925 483.304 16.9217 481.259 15.1801C479.215 13.4385 478.192 11.3439 478.192 8.89626C478.192 6.44862 479.215 4.35399 481.259 2.6124C483.304 0.870803 485.758 1.3113e-06 488.621 1.3113e-06C491.509 1.3113e-06 493.976 0.870803 496.021 2.6124C498.04 4.35399 499.05 6.44862 499.05 8.89626C499.05 11.3439 498.04 13.4385 496.021 15.1801C493.976 16.9217 491.522 17.7925 488.659 17.7925ZM545.059 23.4409V37.562H506.258V23.4409H545.059ZM513.773 10.4496H534.937V60.2262C534.937 60.9794 535.078 61.603 535.359 62.0973C535.64 62.615 536.075 62.9916 536.663 63.2269C537.25 63.4858 538.005 63.6153 538.925 63.6153C539.564 63.6153 540.318 63.5447 541.187 63.4035C542.03 63.2623 542.657 63.1446 543.066 63.0504L546.133 76.7478C545.187 77.0067 543.845 77.3244 542.107 77.701C540.343 78.0776 538.26 78.3247 535.857 78.4424C531.001 78.6777 526.924 78.207 523.627 77.0303C520.329 75.877 517.85 74.0413 516.188 71.5231C514.527 69.0048 513.722 65.8511 513.773 62.062V10.4496ZM566.53 98C564.102 98 561.789 97.8235 559.591 97.4705C557.392 97.141 555.463 96.682 553.801 96.0937L558.402 82.255C560.14 82.8199 561.738 83.1847 563.195 83.3494C564.626 83.5142 565.866 83.42 566.914 83.067C567.936 82.714 568.677 82.0432 569.138 81.0548L569.598 80.0663L548.893 23.4409H570.978L580.487 61.0029H581.1L590.762 23.4409H613L591.529 82.1844C590.455 85.1734 588.909 87.8564 586.89 90.2334C584.845 92.634 582.174 94.5286 578.876 95.9171C575.579 97.3057 571.464 98 566.53 98Z" fill="url(#paint6_linear_187_18)"/>
<path d="M30.5196 78.6542C24.1294 78.6542 18.6594 77.4774 14.1096 75.1239C9.55975 72.7939 6.0707 69.5226 3.64242 65.3098C1.21414 61.1206 0 56.2488 0 50.6945C0 45.1403 1.21414 40.2567 3.64242 36.044C6.0707 31.8547 9.55975 28.5833 14.1096 26.2298C18.6594 23.8999 24.1294 22.7349 30.5196 22.7349C36.2964 22.7349 41.3063 23.688 45.5494 25.5944C49.7669 27.5243 53.0387 30.2308 55.3648 33.714C57.6908 37.2207 58.8666 41.3276 58.8922 46.0346H39.2614C38.9803 43.1868 38.0984 41.0099 36.6159 39.5036C35.1078 38.0209 33.178 37.2795 30.8264 37.2795C28.986 37.2795 27.3757 37.762 25.9954 38.727C24.6151 39.7154 23.5415 41.1864 22.7747 43.1398C22.0079 45.1167 21.6245 47.5879 21.6245 50.5533C21.6245 53.5187 22.0079 55.9782 22.7747 57.9316C23.5415 59.9085 24.6151 61.3794 25.9954 62.3444C27.3757 63.3329 28.986 63.8271 30.8264 63.8271C32.3856 63.8271 33.7659 63.4858 34.9672 62.8033C36.1686 62.1443 37.1527 61.1559 37.9195 59.8379C38.6608 58.5435 39.1081 56.9549 39.2614 55.0721H58.8922C58.8155 59.8497 57.6269 64.0036 55.3264 67.5339C53.026 71.0877 49.7797 73.8295 45.5878 75.7594C41.3702 77.6892 36.3475 78.6542 30.5196 78.6542ZM96.0065 78.6542C89.6163 78.6542 84.1463 77.4774 79.5964 75.1239C75.0466 72.7939 71.5576 69.5226 69.1293 65.3098C66.701 61.1206 65.4869 56.2488 65.4869 50.6945C65.4869 45.1403 66.701 40.2567 69.1293 36.044C71.5576 31.8547 75.0466 28.5833 79.5964 26.2298C84.1463 23.8999 89.6163 22.7349 96.0065 22.7349C102.397 22.7349 107.867 23.8999 112.417 26.2298C116.966 28.5833 120.455 31.8547 122.884 36.044C125.312 40.2567 126.526 45.1403 126.526 50.6945C126.526 56.2488 125.312 61.1206 122.884 65.3098C120.455 69.5226 116.966 72.7939 112.417 75.1239C107.867 77.4774 102.397 78.6542 96.0065 78.6542ZM96.1599 64.2507C97.9491 64.2507 99.4955 63.6976 100.799 62.5915C102.103 61.4854 103.112 59.9085 103.828 57.861C104.544 55.8134 104.902 53.3775 104.902 50.5533C104.902 47.7056 104.544 45.2579 103.828 43.2104C103.112 41.1864 102.103 39.6213 100.799 38.5151C99.4955 37.409 97.9491 36.8559 96.1599 36.8559C94.2684 36.8559 92.6453 37.409 91.2905 38.5151C89.9358 39.6213 88.9006 41.1864 88.1849 43.2104C87.4692 45.2579 87.1113 47.7056 87.1113 50.5533C87.1113 53.3775 87.4692 55.8134 88.1849 57.861C88.9006 59.9085 89.9358 61.4854 91.2905 62.5915C92.6453 63.6976 94.2684 64.2507 96.1599 64.2507ZM135.115 77.6657V23.4409H155.205V33.7493H155.819C157.046 30.3602 159.142 27.6772 162.107 25.7003C165.072 23.7233 168.599 22.7349 172.689 22.7349C176.83 22.7349 180.396 23.7351 183.386 25.7356C186.377 27.7596 188.179 30.4308 188.792 33.7493H189.406C190.403 30.4308 192.524 27.7596 195.77 25.7356C199.017 23.7351 202.825 22.7349 207.196 22.7349C212.845 22.7349 217.433 24.4059 220.961 27.7478C224.463 31.0898 226.213 35.5379 226.213 41.0922V77.6657H205.049V46.0346C205.049 43.6575 204.397 41.7865 203.094 40.4215C201.79 39.08 200.039 38.4092 197.841 38.4092C195.668 38.4092 193.956 39.08 192.703 40.4215C191.425 41.7865 190.786 43.6575 190.786 46.0346V77.6657H170.542V46.0346C170.542 43.6575 169.89 41.7865 168.586 40.4215C167.283 39.08 165.532 38.4092 163.334 38.4092C161.877 38.4092 160.624 38.7152 159.576 39.3271C158.528 39.939 157.723 40.8098 157.161 41.9395C156.573 43.0927 156.279 44.4577 156.279 46.0346V77.6657H135.115ZM236.642 77.6657V23.4409H256.733V33.7493H257.346C258.573 30.3602 260.669 27.6772 263.634 25.7003C266.6 23.7233 270.127 22.7349 274.217 22.7349C278.358 22.7349 281.923 23.7351 284.914 25.7356C287.904 27.7596 289.707 30.4308 290.32 33.7493H290.933C291.93 30.4308 294.052 27.7596 297.298 25.7356C300.544 23.7351 304.353 22.7349 308.724 22.7349C314.373 22.7349 318.961 24.4059 322.488 27.7478C325.99 31.0898 327.741 35.5379 327.741 41.0922V77.6657H306.577V46.0346C306.577 43.6575 305.925 41.7865 304.621 40.4215C303.318 39.08 301.567 38.4092 299.369 38.4092C297.196 38.4092 295.483 39.08 294.231 40.4215C292.953 41.7865 292.314 43.6575 292.314 46.0346V77.6657H272.07V46.0346C272.07 43.6575 271.418 41.7865 270.114 40.4215C268.811 39.08 267.06 38.4092 264.861 38.4092C263.404 38.4092 262.152 38.7152 261.104 39.3271C260.056 39.939 259.251 40.8098 258.688 41.9395C258.101 43.0927 257.807 44.4577 257.807 46.0346V77.6657H236.642ZM376.358 53.9424V23.4409H397.522V77.6657H377.431V67.3574H376.818C375.54 70.817 373.303 73.5118 370.108 75.4416C366.913 77.3951 363.117 78.3718 358.721 78.3718C354.605 78.3718 351.014 77.501 347.947 75.7594C344.854 74.0178 342.464 71.6172 340.777 68.5576C339.064 65.4981 338.195 61.9914 338.17 58.0375V23.4409H359.334V53.9424C359.36 56.6254 360.114 58.7318 361.596 60.2615C363.053 61.7913 365.111 62.5562 367.769 62.5562C369.533 62.5562 371.067 62.2032 372.37 61.4971C373.648 60.8146 374.645 59.8261 375.361 58.5317C376.051 57.2608 376.383 55.731 376.358 53.9424ZM429.422 47.1643V77.6657H408.258V23.4409H428.348V33.7493H428.962C430.24 30.3132 432.502 27.6184 435.748 25.665C438.969 23.7116 442.739 22.7349 447.059 22.7349C451.225 22.7349 454.855 23.6057 457.948 25.3473C461.015 27.1124 463.405 29.5247 465.118 32.5843C466.805 35.6439 467.636 39.1388 467.61 43.0692V77.6657H446.446V47.1643C446.471 44.4813 445.743 42.3749 444.26 40.8451C442.752 39.3153 440.669 38.5504 438.011 38.5504C436.272 38.5504 434.764 38.8917 433.486 39.5742C432.183 40.2803 431.186 41.2687 430.496 42.5396C429.806 43.8341 429.448 45.3756 429.422 47.1643ZM478.039 77.6657V23.4409H499.203V77.6657H478.039ZM488.659 17.7925C485.771 17.7925 483.304 16.9217 481.259 15.1801C479.215 13.4385 478.192 11.3439 478.192 8.89626C478.192 6.44862 479.215 4.35399 481.259 2.6124C483.304 0.870803 485.758 1.3113e-06 488.621 1.3113e-06C491.509 1.3113e-06 493.976 0.870803 496.021 2.6124C498.04 4.35399 499.05 6.44862 499.05 8.89626C499.05 11.3439 498.04 13.4385 496.021 15.1801C493.976 16.9217 491.522 17.7925 488.659 17.7925ZM545.059 23.4409V37.562H506.258V23.4409H545.059ZM513.773 10.4496H534.937V60.2262C534.937 60.9794 535.078 61.603 535.359 62.0973C535.64 62.615 536.075 62.9916 536.663 63.2269C537.25 63.4858 538.005 63.6153 538.925 63.6153C539.564 63.6153 540.318 63.5447 541.187 63.4035C542.03 63.2623 542.657 63.1446 543.066 63.0504L546.133 76.7478C545.187 77.0067 543.845 77.3244 542.107 77.701C540.343 78.0776 538.26 78.3247 535.857 78.4424C531.001 78.6777 526.924 78.207 523.627 77.0303C520.329 75.877 517.85 74.0413 516.188 71.5231C514.527 69.0048 513.722 65.8511 513.773 62.062V10.4496ZM566.53 98C564.102 98 561.789 97.8235 559.591 97.4705C557.392 97.141 555.463 96.682 553.801 96.0937L558.402 82.255C560.14 82.8199 561.738 83.1847 563.195 83.3494C564.626 83.5142 565.866 83.42 566.914 83.067C567.936 82.714 568.677 82.0432 569.138 81.0548L569.598 80.0663L548.893 23.4409H570.978L580.487 61.0029H581.1L590.762 23.4409H613L591.529 82.1844C590.455 85.1734 588.909 87.8564 586.89 90.2334C584.845 92.634 582.174 94.5286 578.876 95.9171C575.579 97.3057 571.464 98 566.53 98Z" fill="url(#paint7_linear_187_18)"/>
<path d="M30.5196 78.6542C24.1294 78.6542 18.6594 77.4774 14.1096 75.1239C9.55975 72.7939 6.0707 69.5226 3.64242 65.3098C1.21414 61.1206 0 56.2488 0 50.6945C0 45.1403 1.21414 40.2567 3.64242 36.044C6.0707 31.8547 9.55975 28.5833 14.1096 26.2298C18.6594 23.8999 24.1294 22.7349 30.5196 22.7349C36.2964 22.7349 41.3063 23.688 45.5494 25.5944C49.7669 27.5243 53.0387 30.2308 55.3648 33.714C57.6908 37.2207 58.8666 41.3276 58.8922 46.0346H39.2614C38.9803 43.1868 38.0984 41.0099 36.6159 39.5036C35.1078 38.0209 33.178 37.2795 30.8264 37.2795C28.986 37.2795 27.3757 37.762 25.9954 38.727C24.6151 39.7154 23.5415 41.1864 22.7747 43.1398C22.0079 45.1167 21.6245 47.5879 21.6245 50.5533C21.6245 53.5187 22.0079 55.9782 22.7747 57.9316C23.5415 59.9085 24.6151 61.3794 25.9954 62.3444C27.3757 63.3329 28.986 63.8271 30.8264 63.8271C32.3856 63.8271 33.7659 63.4858 34.9672 62.8033C36.1686 62.1443 37.1527 61.1559 37.9195 59.8379C38.6608 58.5435 39.1081 56.9549 39.2614 55.0721H58.8922C58.8155 59.8497 57.6269 64.0036 55.3264 67.5339C53.026 71.0877 49.7797 73.8295 45.5878 75.7594C41.3702 77.6892 36.3475 78.6542 30.5196 78.6542ZM96.0065 78.6542C89.6163 78.6542 84.1463 77.4774 79.5964 75.1239C75.0466 72.7939 71.5576 69.5226 69.1293 65.3098C66.701 61.1206 65.4869 56.2488 65.4869 50.6945C65.4869 45.1403 66.701 40.2567 69.1293 36.044C71.5576 31.8547 75.0466 28.5833 79.5964 26.2298C84.1463 23.8999 89.6163 22.7349 96.0065 22.7349C102.397 22.7349 107.867 23.8999 112.417 26.2298C116.966 28.5833 120.455 31.8547 122.884 36.044C125.312 40.2567 126.526 45.1403 126.526 50.6945C126.526 56.2488 125.312 61.1206 122.884 65.3098C120.455 69.5226 116.966 72.7939 112.417 75.1239C107.867 77.4774 102.397 78.6542 96.0065 78.6542ZM96.1599 64.2507C97.9491 64.2507 99.4955 63.6976 100.799 62.5915C102.103 61.4854 103.112 59.9085 103.828 57.861C104.544 55.8134 104.902 53.3775 104.902 50.5533C104.902 47.7056 104.544 45.2579 103.828 43.2104C103.112 41.1864 102.103 39.6213 100.799 38.5151C99.4955 37.409 97.9491 36.8559 96.1599 36.8559C94.2684 36.8559 92.6453 37.409 91.2905 38.5151C89.9358 39.6213 88.9006 41.1864 88.1849 43.2104C87.4692 45.2579 87.1113 47.7056 87.1113 50.5533C87.1113 53.3775 87.4692 55.8134 88.1849 57.861C88.9006 59.9085 89.9358 61.4854 91.2905 62.5915C92.6453 63.6976 94.2684 64.2507 96.1599 64.2507ZM135.115 77.6657V23.4409H155.205V33.7493H155.819C157.046 30.3602 159.142 27.6772 162.107 25.7003C165.072 23.7233 168.599 22.7349 172.689 22.7349C176.83 22.7349 180.396 23.7351 183.386 25.7356C186.377 27.7596 188.179 30.4308 188.792 33.7493H189.406C190.403 30.4308 192.524 27.7596 195.77 25.7356C199.017 23.7351 202.825 22.7349 207.196 22.7349C212.845 22.7349 217.433 24.4059 220.961 27.7478C224.463 31.0898 226.213 35.5379 226.213 41.0922V77.6657H205.049V46.0346C205.049 43.6575 204.397 41.7865 203.094 40.4215C201.79 39.08 200.039 38.4092 197.841 38.4092C195.668 38.4092 193.956 39.08 192.703 40.4215C191.425 41.7865 190.786 43.6575 190.786 46.0346V77.6657H170.542V46.0346C170.542 43.6575 169.89 41.7865 168.586 40.4215C167.283 39.08 165.532 38.4092 163.334 38.4092C161.877 38.4092 160.624 38.7152 159.576 39.3271C158.528 39.939 157.723 40.8098 157.161 41.9395C156.573 43.0927 156.279 44.4577 156.279 46.0346V77.6657H135.115ZM236.642 77.6657V23.4409H256.733V33.7493H257.346C258.573 30.3602 260.669 27.6772 263.634 25.7003C266.6 23.7233 270.127 22.7349 274.217 22.7349C278.358 22.7349 281.923 23.7351 284.914 25.7356C287.904 27.7596 289.707 30.4308 290.32 33.7493H290.933C291.93 30.4308 294.052 27.7596 297.298 25.7356C300.544 23.7351 304.353 22.7349 308.724 22.7349C314.373 22.7349 318.961 24.4059 322.488 27.7478C325.99 31.0898 327.741 35.5379 327.741 41.0922V77.6657H306.577V46.0346C306.577 43.6575 305.925 41.7865 304.621 40.4215C303.318 39.08 301.567 38.4092 299.369 38.4092C297.196 38.4092 295.483 39.08 294.231 40.4215C292.953 41.7865 292.314 43.6575 292.314 46.0346V77.6657H272.07V46.0346C272.07 43.6575 271.418 41.7865 270.114 40.4215C268.811 39.08 267.06 38.4092 264.861 38.4092C263.404 38.4092 262.152 38.7152 261.104 39.3271C260.056 39.939 259.251 40.8098 258.688 41.9395C258.101 43.0927 257.807 44.4577 257.807 46.0346V77.6657H236.642ZM376.358 53.9424V23.4409H397.522V77.6657H377.431V67.3574H376.818C375.54 70.817 373.303 73.5118 370.108 75.4416C366.913 77.3951 363.117 78.3718 358.721 78.3718C354.605 78.3718 351.014 77.501 347.947 75.7594C344.854 74.0178 342.464 71.6172 340.777 68.5576C339.064 65.4981 338.195 61.9914 338.17 58.0375V23.4409H359.334V53.9424C359.36 56.6254 360.114 58.7318 361.596 60.2615C363.053 61.7913 365.111 62.5562 367.769 62.5562C369.533 62.5562 371.067 62.2032 372.37 61.4971C373.648 60.8146 374.645 59.8261 375.361 58.5317C376.051 57.2608 376.383 55.731 376.358 53.9424ZM429.422 47.1643V77.6657H408.258V23.4409H428.348V33.7493H428.962C430.24 30.3132 432.502 27.6184 435.748 25.665C438.969 23.7116 442.739 22.7349 447.059 22.7349C451.225 22.7349 454.855 23.6057 457.948 25.3473C461.015 27.1124 463.405 29.5247 465.118 32.5843C466.805 35.6439 467.636 39.1388 467.61 43.0692V77.6657H446.446V47.1643C446.471 44.4813 445.743 42.3749 444.26 40.8451C442.752 39.3153 440.669 38.5504 438.011 38.5504C436.272 38.5504 434.764 38.8917 433.486 39.5742C432.183 40.2803 431.186 41.2687 430.496 42.5396C429.806 43.8341 429.448 45.3756 429.422 47.1643ZM478.039 77.6657V23.4409H499.203V77.6657H478.039ZM488.659 17.7925C485.771 17.7925 483.304 16.9217 481.259 15.1801C479.215 13.4385 478.192 11.3439 478.192 8.89626C478.192 6.44862 479.215 4.35399 481.259 2.6124C483.304 0.870803 485.758 1.3113e-06 488.621 1.3113e-06C491.509 1.3113e-06 493.976 0.870803 496.021 2.6124C498.04 4.35399 499.05 6.44862 499.05 8.89626C499.05 11.3439 498.04 13.4385 496.021 15.1801C493.976 16.9217 491.522 17.7925 488.659 17.7925ZM545.059 23.4409V37.562H506.258V23.4409H545.059ZM513.773 10.4496H534.937V60.2262C534.937 60.9794 535.078 61.603 535.359 62.0973C535.64 62.615 536.075 62.9916 536.663 63.2269C537.25 63.4858 538.005 63.6153 538.925 63.6153C539.564 63.6153 540.318 63.5447 541.187 63.4035C542.03 63.2623 542.657 63.1446 543.066 63.0504L546.133 76.7478C545.187 77.0067 543.845 77.3244 542.107 77.701C540.343 78.0776 538.26 78.3247 535.857 78.4424C531.001 78.6777 526.924 78.207 523.627 77.0303C520.329 75.877 517.85 74.0413 516.188 71.5231C514.527 69.0048 513.722 65.8511 513.773 62.062V10.4496ZM566.53 98C564.102 98 561.789 97.8235 559.591 97.4705C557.392 97.141 555.463 96.682 553.801 96.0937L558.402 82.255C560.14 82.8199 561.738 83.1847 563.195 83.3494C564.626 83.5142 565.866 83.42 566.914 83.067C567.936 82.714 568.677 82.0432 569.138 81.0548L569.598 80.0663L548.893 23.4409H570.978L580.487 61.0029H581.1L590.762 23.4409H613L591.529 82.1844C590.455 85.1734 588.909 87.8564 586.89 90.2334C584.845 92.634 582.174 94.5286 578.876 95.9171C575.579 97.3057 571.464 98 566.53 98Z" fill="url(#paint8_linear_187_18)"/>
<path d="M30.5196 78.6542C24.1294 78.6542 18.6594 77.4774 14.1096 75.1239C9.55975 72.7939 6.0707 69.5226 3.64242 65.3098C1.21414 61.1206 0 56.2488 0 50.6945C0 45.1403 1.21414 40.2567 3.64242 36.044C6.0707 31.8547 9.55975 28.5833 14.1096 26.2298C18.6594 23.8999 24.1294 22.7349 30.5196 22.7349C36.2964 22.7349 41.3063 23.688 45.5494 25.5944C49.7669 27.5243 53.0387 30.2308 55.3648 33.714C57.6908 37.2207 58.8666 41.3276 58.8922 46.0346H39.2614C38.9803 43.1868 38.0984 41.0099 36.6159 39.5036C35.1078 38.0209 33.178 37.2795 30.8264 37.2795C28.986 37.2795 27.3757 37.762 25.9954 38.727C24.6151 39.7154 23.5415 41.1864 22.7747 43.1398C22.0079 45.1167 21.6245 47.5879 21.6245 50.5533C21.6245 53.5187 22.0079 55.9782 22.7747 57.9316C23.5415 59.9085 24.6151 61.3794 25.9954 62.3444C27.3757 63.3329 28.986 63.8271 30.8264 63.8271C32.3856 63.8271 33.7659 63.4858 34.9672 62.8033C36.1686 62.1443 37.1527 61.1559 37.9195 59.8379C38.6608 58.5435 39.1081 56.9549 39.2614 55.0721H58.8922C58.8155 59.8497 57.6269 64.0036 55.3264 67.5339C53.026 71.0877 49.7797 73.8295 45.5878 75.7594C41.3702 77.6892 36.3475 78.6542 30.5196 78.6542ZM96.0065 78.6542C89.6163 78.6542 84.1463 77.4774 79.5964 75.1239C75.0466 72.7939 71.5576 69.5226 69.1293 65.3098C66.701 61.1206 65.4869 56.2488 65.4869 50.6945C65.4869 45.1403 66.701 40.2567 69.1293 36.044C71.5576 31.8547 75.0466 28.5833 79.5964 26.2298C84.1463 23.8999 89.6163 22.7349 96.0065 22.7349C102.397 22.7349 107.867 23.8999 112.417 26.2298C116.966 28.5833 120.455 31.8547 122.884 36.044C125.312 40.2567 126.526 45.1403 126.526 50.6945C126.526 56.2488 125.312 61.1206 122.884 65.3098C120.455 69.5226 116.966 72.7939 112.417 75.1239C107.867 77.4774 102.397 78.6542 96.0065 78.6542ZM96.1599 64.2507C97.9491 64.2507 99.4955 63.6976 100.799 62.5915C102.103 61.4854 103.112 59.9085 103.828 57.861C104.544 55.8134 104.902 53.3775 104.902 50.5533C104.902 47.7056 104.544 45.2579 103.828 43.2104C103.112 41.1864 102.103 39.6213 100.799 38.5151C99.4955 37.409 97.9491 36.8559 96.1599 36.8559C94.2684 36.8559 92.6453 37.409 91.2905 38.5151C89.9358 39.6213 88.9006 41.1864 88.1849 43.2104C87.4692 45.2579 87.1113 47.7056 87.1113 50.5533C87.1113 53.3775 87.4692 55.8134 88.1849 57.861C88.9006 59.9085 89.9358 61.4854 91.2905 62.5915C92.6453 63.6976 94.2684 64.2507 96.1599 64.2507ZM135.115 77.6657V23.4409H155.205V33.7493H155.819C157.046 30.3602 159.142 27.6772 162.107 25.7003C165.072 23.7233 168.599 22.7349 172.689 22.7349C176.83 22.7349 180.396 23.7351 183.386 25.7356C186.377 27.7596 188.179 30.4308 188.792 33.7493H189.406C190.403 30.4308 192.524 27.7596 195.77 25.7356C199.017 23.7351 202.825 22.7349 207.196 22.7349C212.845 22.7349 217.433 24.4059 220.961 27.7478C224.463 31.0898 226.213 35.5379 226.213 41.0922V77.6657H205.049V46.0346C205.049 43.6575 204.397 41.7865 203.094 40.4215C201.79 39.08 200.039 38.4092 197.841 38.4092C195.668 38.4092 193.956 39.08 192.703 40.4215C191.425 41.7865 190.786 43.6575 190.786 46.0346V77.6657H170.542V46.0346C170.542 43.6575 169.89 41.7865 168.586 40.4215C167.283 39.08 165.532 38.4092 163.334 38.4092C161.877 38.4092 160.624 38.7152 159.576 39.3271C158.528 39.939 157.723 40.8098 157.161 41.9395C156.573 43.0927 156.279 44.4577 156.279 46.0346V77.6657H135.115ZM236.642 77.6657V23.4409H256.733V33.7493H257.346C258.573 30.3602 260.669 27.6772 263.634 25.7003C266.6 23.7233 270.127 22.7349 274.217 22.7349C278.358 22.7349 281.923 23.7351 284.914 25.7356C287.904 27.7596 289.707 30.4308 290.32 33.7493H290.933C291.93 30.4308 294.052 27.7596 297.298 25.7356C300.544 23.7351 304.353 22.7349 308.724 22.7349C314.373 22.7349 318.961 24.4059 322.488 27.7478C325.99 31.0898 327.741 35.5379 327.741 41.0922V77.6657H306.577V46.0346C306.577 43.6575 305.925 41.7865 304.621 40.4215C303.318 39.08 301.567 38.4092 299.369 38.4092C297.196 38.4092 295.483 39.08 294.231 40.4215C292.953 41.7865 292.314 43.6575 292.314 46.0346V77.6657H272.07V46.0346C272.07 43.6575 271.418 41.7865 270.114 40.4215C268.811 39.08 267.06 38.4092 264.861 38.4092C263.404 38.4092 262.152 38.7152 261.104 39.3271C260.056 39.939 259.251 40.8098 258.688 41.9395C258.101 43.0927 257.807 44.4577 257.807 46.0346V77.6657H236.642ZM376.358 53.9424V23.4409H397.522V77.6657H377.431V67.3574H376.818C375.54 70.817 373.303 73.5118 370.108 75.4416C366.913 77.3951 363.117 78.3718 358.721 78.3718C354.605 78.3718 351.014 77.501 347.947 75.7594C344.854 74.0178 342.464 71.6172 340.777 68.5576C339.064 65.4981 338.195 61.9914 338.17 58.0375V23.4409H359.334V53.9424C359.36 56.6254 360.114 58.7318 361.596 60.2615C363.053 61.7913 365.111 62.5562 367.769 62.5562C369.533 62.5562 371.067 62.2032 372.37 61.4971C373.648 60.8146 374.645 59.8261 375.361 58.5317C376.051 57.2608 376.383 55.731 376.358 53.9424ZM429.422 47.1643V77.6657H408.258V23.4409H428.348V33.7493H428.962C430.24 30.3132 432.502 27.6184 435.748 25.665C438.969 23.7116 442.739 22.7349 447.059 22.7349C451.225 22.7349 454.855 23.6057 457.948 25.3473C461.015 27.1124 463.405 29.5247 465.118 32.5843C466.805 35.6439 467.636 39.1388 467.61 43.0692V77.6657H446.446V47.1643C446.471 44.4813 445.743 42.3749 444.26 40.8451C442.752 39.3153 440.669 38.5504 438.011 38.5504C436.272 38.5504 434.764 38.8917 433.486 39.5742C432.183 40.2803 431.186 41.2687 430.496 42.5396C429.806 43.8341 429.448 45.3756 429.422 47.1643ZM478.039 77.6657V23.4409H499.203V77.6657H478.039ZM488.659 17.7925C485.771 17.7925 483.304 16.9217 481.259 15.1801C479.215 13.4385 478.192 11.3439 478.192 8.89626C478.192 6.44862 479.215 4.35399 481.259 2.6124C483.304 0.870803 485.758 1.3113e-06 488.621 1.3113e-06C491.509 1.3113e-06 493.976 0.870803 496.021 2.6124C498.04 4.35399 499.05 6.44862 499.05 8.89626C499.05 11.3439 498.04 13.4385 496.021 15.1801C493.976 16.9217 491.522 17.7925 488.659 17.7925ZM545.059 23.4409V37.562H506.258V23.4409H545.059ZM513.773 10.4496H534.937V60.2262C534.937 60.9794 535.078 61.603 535.359 62.0973C535.64 62.615 536.075 62.9916 536.663 63.2269C537.25 63.4858 538.005 63.6153 538.925 63.6153C539.564 63.6153 540.318 63.5447 541.187 63.4035C542.03 63.2623 542.657 63.1446 543.066 63.0504L546.133 76.7478C545.187 77.0067 543.845 77.3244 542.107 77.701C540.343 78.0776 538.26 78.3247 535.857 78.4424C531.001 78.6777 526.924 78.207 523.627 77.0303C520.329 75.877 517.85 74.0413 516.188 71.5231C514.527 69.0048 513.722 65.8511 513.773 62.062V10.4496ZM566.53 98C564.102 98 561.789 97.8235 559.591 97.4705C557.392 97.141 555.463 96.682 553.801 96.0937L558.402 82.255C560.14 82.8199 561.738 83.1847 563.195 83.3494C564.626 83.5142 565.866 83.42 566.914 83.067C567.936 82.714 568.677 82.0432 569.138 81.0548L569.598 80.0663L548.893 23.4409H570.978L580.487 61.0029H581.1L590.762 23.4409H613L591.529 82.1844C590.455 85.1734 588.909 87.8564 586.89 90.2334C584.845 92.634 582.174 94.5286 578.876 95.9171C575.579 97.3057 571.464 98 566.53 98Z" fill="url(#paint9_linear_187_18)"/>
<path d="M30.5196 78.6542C24.1294 78.6542 18.6594 77.4774 14.1096 75.1239C9.55975 72.7939 6.0707 69.5226 3.64242 65.3098C1.21414 61.1206 0 56.2488 0 50.6945C0 45.1403 1.21414 40.2567 3.64242 36.044C6.0707 31.8547 9.55975 28.5833 14.1096 26.2298C18.6594 23.8999 24.1294 22.7349 30.5196 22.7349C36.2964 22.7349 41.3063 23.688 45.5494 25.5944C49.7669 27.5243 53.0387 30.2308 55.3648 33.714C57.6908 37.2207 58.8666 41.3276 58.8922 46.0346H39.2614C38.9803 43.1868 38.0984 41.0099 36.6159 39.5036C35.1078 38.0209 33.178 37.2795 30.8264 37.2795C28.986 37.2795 27.3757 37.762 25.9954 38.727C24.6151 39.7154 23.5415 41.1864 22.7747 43.1398C22.0079 45.1167 21.6245 47.5879 21.6245 50.5533C21.6245 53.5187 22.0079 55.9782 22.7747 57.9316C23.5415 59.9085 24.6151 61.3794 25.9954 62.3444C27.3757 63.3329 28.986 63.8271 30.8264 63.8271C32.3856 63.8271 33.7659 63.4858 34.9672 62.8033C36.1686 62.1443 37.1527 61.1559 37.9195 59.8379C38.6608 58.5435 39.1081 56.9549 39.2614 55.0721H58.8922C58.8155 59.8497 57.6269 64.0036 55.3264 67.5339C53.026 71.0877 49.7797 73.8295 45.5878 75.7594C41.3702 77.6892 36.3475 78.6542 30.5196 78.6542ZM96.0065 78.6542C89.6163 78.6542 84.1463 77.4774 79.5964 75.1239C75.0466 72.7939 71.5576 69.5226 69.1293 65.3098C66.701 61.1206 65.4869 56.2488 65.4869 50.6945C65.4869 45.1403 66.701 40.2567 69.1293 36.044C71.5576 31.8547 75.0466 28.5833 79.5964 26.2298C84.1463 23.8999 89.6163 22.7349 96.0065 22.7349C102.397 22.7349 107.867 23.8999 112.417 26.2298C116.966 28.5833 120.455 31.8547 122.884 36.044C125.312 40.2567 126.526 45.1403 126.526 50.6945C126.526 56.2488 125.312 61.1206 122.884 65.3098C120.455 69.5226 116.966 72.7939 112.417 75.1239C107.867 77.4774 102.397 78.6542 96.0065 78.6542ZM96.1599 64.2507C97.9491 64.2507 99.4955 63.6976 100.799 62.5915C102.103 61.4854 103.112 59.9085 103.828 57.861C104.544 55.8134 104.902 53.3775 104.902 50.5533C104.902 47.7056 104.544 45.2579 103.828 43.2104C103.112 41.1864 102.103 39.6213 100.799 38.5151C99.4955 37.409 97.9491 36.8559 96.1599 36.8559C94.2684 36.8559 92.6453 37.409 91.2905 38.5151C89.9358 39.6213 88.9006 41.1864 88.1849 43.2104C87.4692 45.2579 87.1113 47.7056 87.1113 50.5533C87.1113 53.3775 87.4692 55.8134 88.1849 57.861C88.9006 59.9085 89.9358 61.4854 91.2905 62.5915C92.6453 63.6976 94.2684 64.2507 96.1599 64.2507ZM135.115 77.6657V23.4409H155.205V33.7493H155.819C157.046 30.3602 159.142 27.6772 162.107 25.7003C165.072 23.7233 168.599 22.7349 172.689 22.7349C176.83 22.7349 180.396 23.7351 183.386 25.7356C186.377 27.7596 188.179 30.4308 188.792 33.7493H189.406C190.403 30.4308 192.524 27.7596 195.77 25.7356C199.017 23.7351 202.825 22.7349 207.196 22.7349C212.845 22.7349 217.433 24.4059 220.961 27.7478C224.463 31.0898 226.213 35.5379 226.213 41.0922V77.6657H205.049V46.0346C205.049 43.6575 204.397 41.7865 203.094 40.4215C201.79 39.08 200.039 38.4092 197.841 38.4092C195.668 38.4092 193.956 39.08 192.703 40.4215C191.425 41.7865 190.786 43.6575 190.786 46.0346V77.6657H170.542V46.0346C170.542 43.6575 169.89 41.7865 168.586 40.4215C167.283 39.08 165.532 38.4092 163.334 38.4092C161.877 38.4092 160.624 38.7152 159.576 39.3271C158.528 39.939 157.723 40.8098 157.161 41.9395C156.573 43.0927 156.279 44.4577 156.279 46.0346V77.6657H135.115ZM236.642 77.6657V23.4409H256.733V33.7493H257.346C258.573 30.3602 260.669 27.6772 263.634 25.7003C266.6 23.7233 270.127 22.7349 274.217 22.7349C278.358 22.7349 281.923 23.7351 284.914 25.7356C287.904 27.7596 289.707 30.4308 290.32 33.7493H290.933C291.93 30.4308 294.052 27.7596 297.298 25.7356C300.544 23.7351 304.353 22.7349 308.724 22.7349C314.373 22.7349 318.961 24.4059 322.488 27.7478C325.99 31.0898 327.741 35.5379 327.741 41.0922V77.6657H306.577V46.0346C306.577 43.6575 305.925 41.7865 304.621 40.4215C303.318 39.08 301.567 38.4092 299.369 38.4092C297.196 38.4092 295.483 39.08 294.231 40.4215C292.953 41.7865 292.314 43.6575 292.314 46.0346V77.6657H272.07V46.0346C272.07 43.6575 271.418 41.7865 270.114 40.4215C268.811 39.08 267.06 38.4092 264.861 38.4092C263.404 38.4092 262.152 38.7152 261.104 39.3271C260.056 39.939 259.251 40.8098 258.688 41.9395C258.101 43.0927 257.807 44.4577 257.807 46.0346V77.6657H236.642ZM376.358 53.9424V23.4409H397.522V77.6657H377.431V67.3574H376.818C375.54 70.817 373.303 73.5118 370.108 75.4416C366.913 77.3951 363.117 78.3718 358.721 78.3718C354.605 78.3718 351.014 77.501 347.947 75.7594C344.854 74.0178 342.464 71.6172 340.777 68.5576C339.064 65.4981 338.195 61.9914 338.17 58.0375V23.4409H359.334V53.9424C359.36 56.6254 360.114 58.7318 361.596 60.2615C363.053 61.7913 365.111 62.5562 367.769 62.5562C369.533 62.5562 371.067 62.2032 372.37 61.4971C373.648 60.8146 374.645 59.8261 375.361 58.5317C376.051 57.2608 376.383 55.731 376.358 53.9424ZM429.422 47.1643V77.6657H408.258V23.4409H428.348V33.7493H428.962C430.24 30.3132 432.502 27.6184 435.748 25.665C438.969 23.7116 442.739 22.7349 447.059 22.7349C451.225 22.7349 454.855 23.6057 457.948 25.3473C461.015 27.1124 463.405 29.5247 465.118 32.5843C466.805 35.6439 467.636 39.1388 467.61 43.0692V77.6657H446.446V47.1643C446.471 44.4813 445.743 42.3749 444.26 40.8451C442.752 39.3153 440.669 38.5504 438.011 38.5504C436.272 38.5504 434.764 38.8917 433.486 39.5742C432.183 40.2803 431.186 41.2687 430.496 42.5396C429.806 43.8341 429.448 45.3756 429.422 47.1643ZM478.039 77.6657V23.4409H499.203V77.6657H478.039ZM488.659 17.7925C485.771 17.7925 483.304 16.9217 481.259 15.1801C479.215 13.4385 478.192 11.3439 478.192 8.89626C478.192 6.44862 479.215 4.35399 481.259 2.6124C483.304 0.870803 485.758 1.3113e-06 488.621 1.3113e-06C491.509 1.3113e-06 493.976 0.870803 496.021 2.6124C498.04 4.35399 499.05 6.44862 499.05 8.89626C499.05 11.3439 498.04 13.4385 496.021 15.1801C493.976 16.9217 491.522 17.7925 488.659 17.7925ZM545.059 23.4409V37.562H506.258V23.4409H545.059ZM513.773 10.4496H534.937V60.2262C534.937 60.9794 535.078 61.603 535.359 62.0973C535.64 62.615 536.075 62.9916 536.663 63.2269C537.25 63.4858 538.005 63.6153 538.925 63.6153C539.564 63.6153 540.318 63.5447 541.187 63.4035C542.03 63.2623 542.657 63.1446 543.066 63.0504L546.133 76.7478C545.187 77.0067 543.845 77.3244 542.107 77.701C540.343 78.0776 538.26 78.3247 535.857 78.4424C531.001 78.6777 526.924 78.207 523.627 77.0303C520.329 75.877 517.85 74.0413 516.188 71.5231C514.527 69.0048 513.722 65.8511 513.773 62.062V10.4496ZM566.53 98C564.102 98 561.789 97.8235 559.591 97.4705C557.392 97.141 555.463 96.682 553.801 96.0937L558.402 82.255C560.14 82.8199 561.738 83.1847 563.195 83.3494C564.626 83.5142 565.866 83.42 566.914 83.067C567.936 82.714 568.677 82.0432 569.138 81.0548L569.598 80.0663L548.893 23.4409H570.978L580.487 61.0029H581.1L590.762 23.4409H613L591.529 82.1844C590.455 85.1734 588.909 87.8564 586.89 90.2334C584.845 92.634 582.174 94.5286 578.876 95.9171C575.579 97.3057 571.464 98 566.53 98Z" fill="url(#paint10_linear_187_18)"/>
<path d="M30.5196 78.6542C24.1294 78.6542 18.6594 77.4774 14.1096 75.1239C9.55975 72.7939 6.0707 69.5226 3.64242 65.3098C1.21414 61.1206 0 56.2488 0 50.6945C0 45.1403 1.21414 40.2567 3.64242 36.044C6.0707 31.8547 9.55975 28.5833 14.1096 26.2298C18.6594 23.8999 24.1294 22.7349 30.5196 22.7349C36.2964 22.7349 41.3063 23.688 45.5494 25.5944C49.7669 27.5243 53.0387 30.2308 55.3648 33.714C57.6908 37.2207 58.8666 41.3276 58.8922 46.0346H39.2614C38.9803 43.1868 38.0984 41.0099 36.6159 39.5036C35.1078 38.0209 33.178 37.2795 30.8264 37.2795C28.986 37.2795 27.3757 37.762 25.9954 38.727C24.6151 39.7154 23.5415 41.1864 22.7747 43.1398C22.0079 45.1167 21.6245 47.5879 21.6245 50.5533C21.6245 53.5187 22.0079 55.9782 22.7747 57.9316C23.5415 59.9085 24.6151 61.3794 25.9954 62.3444C27.3757 63.3329 28.986 63.8271 30.8264 63.8271C32.3856 63.8271 33.7659 63.4858 34.9672 62.8033C36.1686 62.1443 37.1527 61.1559 37.9195 59.8379C38.6608 58.5435 39.1081 56.9549 39.2614 55.0721H58.8922C58.8155 59.8497 57.6269 64.0036 55.3264 67.5339C53.026 71.0877 49.7797 73.8295 45.5878 75.7594C41.3702 77.6892 36.3475 78.6542 30.5196 78.6542ZM96.0065 78.6542C89.6163 78.6542 84.1463 77.4774 79.5964 75.1239C75.0466 72.7939 71.5576 69.5226 69.1293 65.3098C66.701 61.1206 65.4869 56.2488 65.4869 50.6945C65.4869 45.1403 66.701 40.2567 69.1293 36.044C71.5576 31.8547 75.0466 28.5833 79.5964 26.2298C84.1463 23.8999 89.6163 22.7349 96.0065 22.7349C102.397 22.7349 107.867 23.8999 112.417 26.2298C116.966 28.5833 120.455 31.8547 122.884 36.044C125.312 40.2567 126.526 45.1403 126.526 50.6945C126.526 56.2488 125.312 61.1206 122.884 65.3098C120.455 69.5226 116.966 72.7939 112.417 75.1239C107.867 77.4774 102.397 78.6542 96.0065 78.6542ZM96.1599 64.2507C97.9491 64.2507 99.4955 63.6976 100.799 62.5915C102.103 61.4854 103.112 59.9085 103.828 57.861C104.544 55.8134 104.902 53.3775 104.902 50.5533C104.902 47.7056 104.544 45.2579 103.828 43.2104C103.112 41.1864 102.103 39.6213 100.799 38.5151C99.4955 37.409 97.9491 36.8559 96.1599 36.8559C94.2684 36.8559 92.6453 37.409 91.2905 38.5151C89.9358 39.6213 88.9006 41.1864 88.1849 43.2104C87.4692 45.2579 87.1113 47.7056 87.1113 50.5533C87.1113 53.3775 87.4692 55.8134 88.1849 57.861C88.9006 59.9085 89.9358 61.4854 91.2905 62.5915C92.6453 63.6976 94.2684 64.2507 96.1599 64.2507ZM135.115 77.6657V23.4409H155.205V33.7493H155.819C157.046 30.3602 159.142 27.6772 162.107 25.7003C165.072 23.7233 168.599 22.7349 172.689 22.7349C176.83 22.7349 180.396 23.7351 183.386 25.7356C186.377 27.7596 188.179 30.4308 188.792 33.7493H189.406C190.403 30.4308 192.524 27.7596 195.77 25.7356C199.017 23.7351 202.825 22.7349 207.196 22.7349C212.845 22.7349 217.433 24.4059 220.961 27.7478C224.463 31.0898 226.213 35.5379 226.213 41.0922V77.6657H205.049V46.0346C205.049 43.6575 204.397 41.7865 203.094 40.4215C201.79 39.08 200.039 38.4092 197.841 38.4092C195.668 38.4092 193.956 39.08 192.703 40.4215C191.425 41.7865 190.786 43.6575 190.786 46.0346V77.6657H170.542V46.0346C170.542 43.6575 169.89 41.7865 168.586 40.4215C167.283 39.08 165.532 38.4092 163.334 38.4092C161.877 38.4092 160.624 38.7152 159.576 39.3271C158.528 39.939 157.723 40.8098 157.161 41.9395C156.573 43.0927 156.279 44.4577 156.279 46.0346V77.6657H135.115ZM236.642 77.6657V23.4409H256.733V33.7493H257.346C258.573 30.3602 260.669 27.6772 263.634 25.7003C266.6 23.7233 270.127 22.7349 274.217 22.7349C278.358 22.7349 281.923 23.7351 284.914 25.7356C287.904 27.7596 289.707 30.4308 290.32 33.7493H290.933C291.93 30.4308 294.052 27.7596 297.298 25.7356C300.544 23.7351 304.353 22.7349 308.724 22.7349C314.373 22.7349 318.961 24.4059 322.488 27.7478C325.99 31.0898 327.741 35.5379 327.741 41.0922V77.6657H306.577V46.0346C306.577 43.6575 305.925 41.7865 304.621 40.4215C303.318 39.08 301.567 38.4092 299.369 38.4092C297.196 38.4092 295.483 39.08 294.231 40.4215C292.953 41.7865 292.314 43.6575 292.314 46.0346V77.6657H272.07V46.0346C272.07 43.6575 271.418 41.7865 270.114 40.4215C268.811 39.08 267.06 38.4092 264.861 38.4092C263.404 38.4092 262.152 38.7152 261.104 39.3271C260.056 39.939 259.251 40.8098 258.688 41.9395C258.101 43.0927 257.807 44.4577 257.807 46.0346V77.6657H236.642ZM376.358 53.9424V23.4409H397.522V77.6657H377.431V67.3574H376.818C375.54 70.817 373.303 73.5118 370.108 75.4416C366.913 77.3951 363.117 78.3718 358.721 78.3718C354.605 78.3718 351.014 77.501 347.947 75.7594C344.854 74.0178 342.464 71.6172 340.777 68.5576C339.064 65.4981 338.195 61.9914 338.17 58.0375V23.4409H359.334V53.9424C359.36 56.6254 360.114 58.7318 361.596 60.2615C363.053 61.7913 365.111 62.5562 367.769 62.5562C369.533 62.5562 371.067 62.2032 372.37 61.4971C373.648 60.8146 374.645 59.8261 375.361 58.5317C376.051 57.2608 376.383 55.731 376.358 53.9424ZM429.422 47.1643V77.6657H408.258V23.4409H428.348V33.7493H428.962C430.24 30.3132 432.502 27.6184 435.748 25.665C438.969 23.7116 442.739 22.7349 447.059 22.7349C451.225 22.7349 454.855 23.6057 457.948 25.3473C461.015 27.1124 463.405 29.5247 465.118 32.5843C466.805 35.6439 467.636 39.1388 467.61 43.0692V77.6657H446.446V47.1643C446.471 44.4813 445.743 42.3749 444.26 40.8451C442.752 39.3153 440.669 38.5504 438.011 38.5504C436.272 38.5504 434.764 38.8917 433.486 39.5742C432.183 40.2803 431.186 41.2687 430.496 42.5396C429.806 43.8341 429.448 45.3756 429.422 47.1643ZM478.039 77.6657V23.4409H499.203V77.6657H478.039ZM488.659 17.7925C485.771 17.7925 483.304 16.9217 481.259 15.1801C479.215 13.4385 478.192 11.3439 478.192 8.89626C478.192 6.44862 479.215 4.35399 481.259 2.6124C483.304 0.870803 485.758 1.3113e-06 488.621 1.3113e-06C491.509 1.3113e-06 493.976 0.870803 496.021 2.6124C498.04 4.35399 499.05 6.44862 499.05 8.89626C499.05 11.3439 498.04 13.4385 496.021 15.1801C493.976 16.9217 491.522 17.7925 488.659 17.7925ZM545.059 23.4409V37.562H506.258V23.4409H545.059ZM513.773 10.4496H534.937V60.2262C534.937 60.9794 535.078 61.603 535.359 62.0973C535.64 62.615 536.075 62.9916 536.663 63.2269C537.25 63.4858 538.005 63.6153 538.925 63.6153C539.564 63.6153 540.318 63.5447 541.187 63.4035C542.03 63.2623 542.657 63.1446 543.066 63.0504L546.133 76.7478C545.187 77.0067 543.845 77.3244 542.107 77.701C540.343 78.0776 538.26 78.3247 535.857 78.4424C531.001 78.6777 526.924 78.207 523.627 77.0303C520.329 75.877 517.85 74.0413 516.188 71.5231C514.527 69.0048 513.722 65.8511 513.773 62.062V10.4496ZM566.53 98C564.102 98 561.789 97.8235 559.591 97.4705C557.392 97.141 555.463 96.682 553.801 96.0937L558.402 82.255C560.14 82.8199 561.738 83.1847 563.195 83.3494C564.626 83.5142 565.866 83.42 566.914 83.067C567.936 82.714 568.677 82.0432 569.138 81.0548L569.598 80.0663L548.893 23.4409H570.978L580.487 61.0029H581.1L590.762 23.4409H613L591.529 82.1844C590.455 85.1734 588.909 87.8564 586.89 90.2334C584.845 92.634 582.174 94.5286 578.876 95.9171C575.579 97.3057 571.464 98 566.53 98Z" fill="url(#paint11_linear_187_18)"/>
<defs>
<linearGradient id="paint0_linear_187_18" x1="99.1285" y1="-87.7346" x2="571.604" y2="214.834" gradientUnits="userSpaceOnUse">
<stop stop-color="#ECAA00"/>
<stop offset="0.901833" stop-color="#E4523E"/>
<stop offset="1" stop-color="#CC00FF"/>
</linearGradient>
<linearGradient id="paint1_linear_187_18" x1="99.1285" y1="-87.7346" x2="571.604" y2="214.834" gradientUnits="userSpaceOnUse">
<stop stop-color="#ECAA00"/>
<stop offset="0.901833" stop-color="#E4523E"/>
<stop offset="1" stop-color="#CC00FF"/>
</linearGradient>
<linearGradient id="paint2_linear_187_18" x1="99.1285" y1="-87.7346" x2="571.604" y2="214.834" gradientUnits="userSpaceOnUse">
<stop stop-color="#ECAA00"/>
<stop offset="0.901833" stop-color="#E4523E"/>
<stop offset="1" stop-color="#CC00FF"/>
</linearGradient>
<linearGradient id="paint3_linear_187_18" x1="99.1285" y1="-87.7346" x2="571.604" y2="214.834" gradientUnits="userSpaceOnUse">
<stop stop-color="#ECAA00"/>
<stop offset="0.901833" stop-color="#E4523E"/>
<stop offset="1" stop-color="#CC00FF"/>
</linearGradient>
<linearGradient id="paint4_linear_187_18" x1="99.1285" y1="-87.7346" x2="571.604" y2="214.834" gradientUnits="userSpaceOnUse">
<stop stop-color="#ECAA00"/>
<stop offset="0.901833" stop-color="#E4523E"/>
<stop offset="1" stop-color="#CC00FF"/>
</linearGradient>
<linearGradient id="paint5_linear_187_18" x1="99.1285" y1="-87.7346" x2="571.604" y2="214.834" gradientUnits="userSpaceOnUse">
<stop stop-color="#ECAA00"/>
<stop offset="0.901833" stop-color="#E4523E"/>
<stop offset="1" stop-color="#CC00FF"/>
</linearGradient>
<linearGradient id="paint6_linear_187_18" x1="99.1285" y1="-87.7346" x2="571.604" y2="214.834" gradientUnits="userSpaceOnUse">
<stop stop-color="#ECAA00"/>
<stop offset="0.901833" stop-color="#E4523E"/>
<stop offset="1" stop-color="#CC00FF"/>
</linearGradient>
<linearGradient id="paint7_linear_187_18" x1="99.1285" y1="-87.7346" x2="571.604" y2="214.834" gradientUnits="userSpaceOnUse">
<stop stop-color="#ECAA00"/>
<stop offset="0.901833" stop-color="#E4523E"/>
<stop offset="1" stop-color="#CC00FF"/>
</linearGradient>
<linearGradient id="paint8_linear_187_18" x1="99.1285" y1="-87.7346" x2="571.604" y2="214.834" gradientUnits="userSpaceOnUse">
<stop stop-color="#ECAA00"/>
<stop offset="0.901833" stop-color="#E4523E"/>
<stop offset="1" stop-color="#CC00FF"/>
</linearGradient>
<linearGradient id="paint9_linear_187_18" x1="99.1285" y1="-87.7346" x2="571.604" y2="214.834" gradientUnits="userSpaceOnUse">
<stop stop-color="#ECAA00"/>
<stop offset="0.901833" stop-color="#E4523E"/>
<stop offset="1" stop-color="#CC00FF"/>
</linearGradient>
<linearGradient id="paint10_linear_187_18" x1="99.1285" y1="-87.7346" x2="571.604" y2="214.834" gradientUnits="userSpaceOnUse">
<stop stop-color="#ECAA00"/>
<stop offset="0.901833" stop-color="#E4523E"/>
<stop offset="1" stop-color="#CC00FF"/>
</linearGradient>
<linearGradient id="paint11_linear_187_18" x1="99.1285" y1="-87.7346" x2="571.604" y2="214.834" gradientUnits="userSpaceOnUse">
<stop stop-color="#ECAA00"/>
<stop offset="0.901833" stop-color="#E4523E"/>
<stop offset="1" stop-color="#CC00FF"/>
</linearGradient>
</defs>
</svg>
