<svg width="99" height="100" xmlns="http://www.w3.org/2000/svg" xml:space="preserve" version="1.1">

 <g>
  <title>Layer 1</title>
  <polygon id="svg_1" points="28.825,32.88 12.217,22.5 28.825,12.12 26.175,7.88 6.175,20.38 6.175,24.62 26.175,37.12 "/>
  <polygon id="svg_2" points="73.825,37.12 93.825,24.62 93.825,20.38 73.825,7.88 71.175,12.12 87.783,22.5 71.175,32.88 "/>
  <rect id="svg_3" height="36.056" width="5" transform="matrix(0.8321 0.5547 -0.5547 0.8321 20.8782 -23.9561)" y="4.472" x="47.5"/>
  <path id="svg_4" d="m67.5,70l0,-22.5l-35,0l0,12.5l-27.5,0l0,35l90,0l0,-25l-27.5,0zm22.5,20l-80,0l0,-25l27.5,0l0,-12.5l25,0l0,22.5l27.5,0l0,15z"/>
 </g>
</svg>