<svg width="100" height="100" xmlns="http://www.w3.org/2000/svg" data-name="Layer 1">
 <title>Office 100x100</title>

 <g>
  <title>Layer 1</title>
  <path id="svg_1" d="m87.12695,28.958l-47.57312,0l-7.95862,-16.46484a1.00146,1.00146 0 0 0 -1.335,-0.46484l-0.70556,0.341l-1.646,-3.39471a1.00361,1.00361 0 0 0 -1.33545,-0.46387l-4.3012,2.08106a1.00023,1.00023 0 0 0 -0.46435,1.33691l1.6434,3.39029l-0.702,0.33923a0.99913,0.99913 0 0 0 -0.46533,1.33594l5.78787,11.96383l-15.19859,0a7.38588,7.38588 0 0 0 -7.373,7.38184l0,47.86716a7.38589,7.38589 0 0 0 7.373,7.38184l74.2539,0a7.38589,7.38589 0 0 0 7.3731,-7.38184l0,-47.86716a7.38588,7.38588 0 0 0 -7.37305,-7.38184zm-59.08935,8.89454l4.335,0l1.3305,2.74591l0.00055,0.00214l11.41158,23.60741a1.00743,1.00743 0 0 0 0.38526,0.42187l6.52251,3.91896a1.00036,1.00036 0 0 0 1.50684,-0.72852l0.97949,-7.54883a1.00459,1.00459 0 0 0 -0.09133,-0.56448l-10.56839,-21.85446l41.53125,0l0,44.84082l-57.34326,0l0,-44.84082zm11.04248,1.25854l2.5581,-1.23706l10.84912,22.43555l-0.74414,5.73731l-4.957,-2.97852l-10.84658,-22.43823l3.1405,-1.51905zm-15.03608,-27.15503l2.501,-1.21l1.2085,2.49317l-1.17645,0.569l-1.32526,0.64044l-1.20779,-2.49261zm1.17822,4.72889l0.00146,-0.00037l1.64044,-0.79358l3.36542,-1.62732l7.79029,16.11756l0.00415,0.01232l2.74633,5.67823l-0.279,0.135l-5.42309,2.62274l-4.49927,-9.30609l-0.009,-0.01343l-6.03995,-12.48559l0.70222,-0.33947zm-12.34922,14.27306l16.16618,0l2.36792,4.89453l-4.37,0l-0.01453,0.00293l-19.47368,0a5.365,5.365 0 0 1 5.32411,-4.89746zm-5.373,6.89747l18.53711,0l0,44.835l-18.53711,0l0,-44.835zm85,46.35153a5.38329,5.38329 0 0 1 -5.37305,5.38184l-74.25395,0a5.365,5.365 0 0 1 -5.32422,-4.89844l19.4738,0l0.01453,0.00293l59.34375,0a0.99974,0.99974 0 0 0 1,-1l0,-46.84079a0.99973,0.99973 0 0 0 -1,-1l-43.49439,0l-2.3659,-4.89454l46.60638,0a5.38328,5.38328 0 0 1 5.37305,5.38184l0,47.86716z"/>
  <path id="svg_2" d="m16.76855,52.44434a5.24415,5.24415 0 1 0 -5.24365,-5.24414a5.25012,5.25012 0 0 0 5.24365,5.24414zm0,-8.48829a3.24415,3.24415 0 1 1 -3.24365,3.24415a3.24752,3.24752 0 0 1 3.24365,-3.24415z"/>
  <path id="svg_3" d="m21.0127,55.0293l-8.4878,0a0.99974,0.99974 0 0 0 -1,1l0,8.4873a0.99974,0.99974 0 0 0 1,1l8.4878,0a0.99974,0.99974 0 0 0 1,-1l0,-8.4873a0.99974,0.99974 0 0 0 -1,-1zm-1,8.4873l-6.4878,0l0,-6.4873l6.4878,0l0,6.4873z"/>
  <path id="svg_4" d="m17.66309,68.6543a1.04127,1.04127 0 0 0 -1.78907,0l-4.24365,8.48828a1.00038,1.00038 0 0 0 0.89453,1.44726l8.4878,0a1.00038,1.00038 0 0 0 0.89453,-1.44726l-4.24414,-8.48828zm-3.52,7.93554l2.62548,-5.25195l2.626,5.25195l-5.25148,0z"/>
  <path id="svg_5" d="m48.44873,60.23047a0.99982,0.99982 0 0 0 0.8999,-1.43555l-4.48681,-9.27929a1.0002,1.0002 0 1 0 -1.80078,0.87109l4.48681,9.2793a1.00113,1.00113 0 0 0 0.90088,0.56445z"/>
 </g>
</svg>