<svg width="86.63" height="95" xmlns="http://www.w3.org/2000/svg">
 <title>Asset 4</title>

 <g>
  <title>Layer 1</title>
  <g id="svg_1" data-name="Layer 2">
   <g id="svg_2" data-name="Layer 1">
    <path id="svg_3" d="m40.53,8.33a4.31,4.31 0 0 0 -1.18,-2.95c-1.78,-1.87 -5.35,-5.04 -9.11,-5.16c-5,-0.17 -9.57,2.14 -11.09,5.62c-0.74,1.69 -1,4.16 0.68,7.33a6.48,6.48 0 0 0 -6.36,0.85c-3.3,2.57 -4.1,8.12 -2.58,11.18c0.17,0.34 0.35,0.7 0.54,1.07a7,7 0 0 0 -6,4a9,9 0 0 0 -0.72,7.24c-3.71,2.14 -5,6.86 -2.94,11.56a8.23,8.23 0 0 0 3.52,3.93a4.62,4.62 0 0 0 -2.09,1.2a11.88,11.88 0 0 0 -3.13,9.62c0.37,3.56 2.1,6.77 4.51,8.37a3.28,3.28 0 0 0 2.82,0.33a6.84,6.84 0 0 0 -0.79,5c0.79,3.09 4.2,5.66 10.42,7.85c2.34,8.41 8.78,9.55 11.48,9.64l1,0c4.56,-0.17 8.74,-2.56 9.76,-5.72c0.57,-1.79 0.92,-10.06 1.11,-20.74a1,1 0 0 0 0,-0.23c0.38,-21.2 0.2,-51.66 0.15,-59.99zm-3.3,80.28c-0.58,1.79 -3.15,3.62 -6.44,4.12c0.51,-3.16 0.84,-9.25 0.28,-11.19c-0.68,-2.37 -4.46,-5.62 -4.89,-6a1.06,1.06 0 0 0 -1.37,1.62c1.43,1.21 3.84,3.62 4.22,4.94c0.48,1.68 0.06,8.24 -0.41,10.74l0,0c-6.85,-0.24 -9,-6.09 -9.64,-8.59a1.06,1.06 0 0 0 -0.69,-0.75c-5.75,-2 -9,-4.16 -9.59,-6.55c-0.7,-2.75 2.11,-5.82 4.59,-8.53c0.78,-0.86 1.52,-1.66 2.15,-2.45a1.06,1.06 0 0 0 -1.66,-1.33c-0.27,0.34 -0.55,0.67 -0.84,1l0,0.06c-2.68,3 -5.93,5.49 -7.1,4.71c-1.95,-1.23 -3.35,-3.91 -3.65,-6.81a9.77,9.77 0 0 1 2.53,-7.92c1,-1 2.89,-1 5.83,-0.95l1.3,0a1.06,1.06 0 0 0 0.6,-1.94a3.25,3.25 0 0 0 -1.5,-0.37c-2,-0.23 -5.67,-0.66 -7.23,-4.22c-1.36,-3.1 -1.07,-7 1.9,-8.81a12.29,12.29 0 0 0 4.32,4a1.06,1.06 0 1 0 1.06,-1.76c-5.28,-3.11 -5.31,-7.52 -3.73,-10.35c1.15,-2.07 3.41,-3.59 5.51,-2.54c3,5.13 7.21,11.08 10.14,12.38l0,0a1,1 0 0 0 -0.54,0.5c-0.27,0.56 -2.65,5.5 -3,7.42a1.06,1.06 0 0 0 0.87,1.22l0.18,0a1.06,1.06 0 0 0 1,-0.89a44.5,44.5 0 0 1 2.79,-6.84a1,1 0 0 0 0,-1a10.41,10.41 0 0 0 6.5,-0.48a1.06,1.06 0 0 0 -0.89,-1.93a8.07,8.07 0 0 1 -6.1,0c-2.74,-1.22 -8,-8.84 -11,-14.92c-1.11,-2.23 -0.39,-6.72 2,-8.56c2.68,-2.08 6.19,0 8.66,2.13a1.06,1.06 0 0 0 1.44,-1.56c-3.62,-3.64 -4.93,-7 -3.79,-9.59s5,-4.48 9.07,-4.34c3.14,0.1 6.39,3.19 7.64,4.51a2.19,2.19 0 0 1 0.59,1.5c0,6.7 0.08,14.59 0.09,22.75a11.25,11.25 0 0 0 -3.7,-2.41a17.31,17.31 0 0 0 -6,-1.32a1.06,1.06 0 0 0 0,2.12c2.14,0 8.35,1.26 9.47,5.32a1,1 0 0 0 0.18,0.35c0,5.63 0,11.31 -0.06,16.78c-1.72,0.48 -6.54,-0.81 -7.56,-1.38a1.06,1.06 0 0 0 -1,1.86a22.12,22.12 0 0 0 7.53,1.74a7.44,7.44 0 0 0 1.06,-0.08c0,4.75 -0.09,9.3 -0.16,13.45c-2.07,0.38 -7.33,0.72 -9.84,-0.6l-0.09,0c-2.51,-1 -5.25,-6 -6.07,-8.46a1.06,1.06 0 0 0 -2,0.67c0.81,2.44 3.76,8.26 7.23,9.73a15.18,15.18 0 0 0 6.58,1.19a29.12,29.12 0 0 0 4.25,-0.31c-0.25,10.06 -0.53,17.41 -1.02,18.92z"/>
    <path id="svg_4" d="m64.47,20.37a2.7,2.7 0 0 0 -1.2,-0.29a2.72,2.72 0 0 0 -1.21,5.17l0,9.39a2.73,2.73 0 1 0 2.12,-0.13l0,-9.13a2.67,2.67 0 0 0 1.68,-3.38l5.29,-4.63a2.62,2.62 0 0 0 1.82,0.23l5.77,6.75a2.7,2.7 0 0 0 -0.3,1.21a2.73,2.73 0 1 0 2.73,-2.73a2.7,2.7 0 0 0 -0.82,0.14l-5.65,-6.63a2.74,2.74 0 1 0 -4.92,-0.61l-5.31,4.64z"/>
    <path id="svg_5" d="m62.11,59.53l-2.64,-3.35a2.79,2.79 0 1 0 -1.78,1.17l3.39,4.3l6.66,0l0,3.86a2.73,2.73 0 1 0 2.12,0l0,-3.86l4.14,0l9.06,6.59l-3.06,7.37l-10.22,0a2.73,2.73 0 1 0 -0.13,2.12l11.78,0l4.23,-10.23l-11,-8l-12.55,0.03z"/>
    <path id="svg_6" d="m74.16,31.32a2.68,2.68 0 0 0 0,-0.31a2.76,2.76 0 1 0 -1.08,2.17l11.4,5.34l0,3.71l-8.64,-0.06l-4.84,5.05a2.7,2.7 0 0 0 -0.79,-0.13a2.73,2.73 0 1 0 2.79,2.73a2.7,2.7 0 0 0 -0.31,-1.24l4.1,-4.29l7.74,0.05l0,7.66l-2.78,3a2.79,2.79 0 1 0 1.41,1.6l3.49,-3.72l0,-15.72l-12.49,-5.84z"/>
    <path id="svg_7" d="m73.89,81.38a2.73,2.73 0 0 0 -2.27,4.24l-5.1,7l-7.52,0l0,-9.62a2.73,2.73 0 1 0 -2.12,0l0,9.62l-2.88,0l-7.43,-7.85l0.14,-14.83l5.29,0a2.73,2.73 0 1 0 0,-2.12l-5.26,0l0.12,-13.11a2.73,2.73 0 1 0 -2.13,0.12l-0.29,30.78l8.65,9.14l14.51,0l5.79,-7.94a2.73,2.73 0 1 0 0.49,-5.41l0.01,-0.02z"/>
    <path id="svg_8" d="m44.45,8.26l0,37l10.49,0a2.73,2.73 0 1 0 0.13,-2.12l-8.49,0l0,-13l6.37,0a2.73,2.73 0 1 0 -0.14,-2.14l-6.23,0l0,-19.62a2.72,2.72 0 0 0 1.82,-2.56s0,-0.09 0,-0.13l9,-3.15l4.39,6.31a2.68,2.68 0 0 0 0,0.31a2.72,2.72 0 0 0 0.21,1l-5,5a2.7,2.7 0 0 0 -1.25,-0.31a2.73,2.73 0 1 0 2.73,2.73a2.7,2.7 0 0 0 -0.11,-0.73l5.56,-5.12a2.73,2.73 0 1 0 -0.93,-4.86l-4.78,-6.87l-10.77,3.77a2.72,2.72 0 1 0 -3,4.49z"/>
   </g>
  </g>
 </g>
</svg>